STARTFONT 2.1
COMMENT
COMMENT Converted from OpenType font "NotoSansMono-Regular.ttf" by "otf2bdf 3.0".
COMMENT
FONT -FreeType-Noto Sans Mono-Medium-R-Normal--80-800-72-72-P-375-ISO10646-1
SIZE 80 72 72
FONTBOUNDINGBOX 193 130 -49 -31
STARTPROPERTIES 19
FOUNDRY "FreeType"
FAMILY_NAME "Noto Sans Mono"
WEIGHT_NAME "Medium"
SLANT "R"
SETWIDTH_NAME "Normal"
ADD_STYLE_NAME ""
PIXEL_SIZE 80
POINT_SIZE 800
RESOLUTION_X 72
RESOLUTION_Y 72
SPACING "P"
AVERAGE_WIDTH 375
CHARSET_REGISTRY "ISO10646"
CHARSET_ENCODING "1"
FONT_ASCENT 85
FONT_DESCENT 23
COPYRIGHT "Copyright 2015 Google LLC. All Rights Reserved."
_OTF_FONTFILE "NotoSansMono-Regular.ttf"
_OTF_PSNAME "NotoSansMono-Regular"
ENDPROPERTIES
CHARS 3363
STARTCHAR 0000
ENCODING 0
SWIDTH 0 0
DWIDTH 0 0
BBX 0 0 0 0
BITMAP
ENDCHAR
STARTCHAR 000D
ENCODING 13
SWIDTH 600 0
DWIDTH 48 0
BBX 0 0 0 0
BITMAP
ENDCHAR
STARTCHAR 0020
ENCODING 32
SWIDTH 600 0
DWIDTH 48 0
BBX 0 0 0 0
BITMAP
ENDCHAR
STARTCHAR 0021
ENCODING 33
SWIDTH 600 0
DWIDTH 48 0
BBX 10 59 19 -1
BITMAP
7F80
7F80
7F80
7F80
7F80
7F80
7F80
7F80
7F80
7F80
7F80
7F80
7F80
7F80
7F80
7F80
7F80
7F80
7F80
7F80
7F80
7F80
7F80
7F80
7F80
7F80
3F80
3F80
3F80
3F00
3F00
3F00
3F00
3F00
3F00
3F00
3F00
3F00
3F00
3F00
3F00
0000
0000
0000
0000
0000
0000
0000
1E00
7F80
7F80
FFC0
FFC0
FFC0
FFC0
FFC0
7F80
7F80
1E00
ENDCHAR
STARTCHAR 0022
ENCODING 34
SWIDTH 600 0
DWIDTH 48 0
BBX 22 21 13 37
BITMAP
FE01FC
FE01FC
FE01FC
FE01FC
FE01FC
FE01FC
FE01FC
FE01FC
FE01FC
7E01F8
7E01F8
7E01F8
7C00F8
7C00F8
7C00F8
7C00F8
7C00F8
7C00F8
7C00F8
7C00F8
7C00F8
ENDCHAR
STARTCHAR 0023
ENCODING 35
SWIDTH 600 0
DWIDTH 48 0
BBX 44 58 2 0
BITMAP
00007E00FC00
00007C00FC00
0000FC00FC00
0000FC00F800
0000FC00F800
0000FC00F800
0000F801F800
0001F801F800
0001F801F800
0001F801F000
0001F801F000
0001F803F000
0001F003F000
0003F003F000
0003F003E000
0003F003E000
0003F007E000
1FFFFFFFFFF0
1FFFFFFFFFF0
1FFFFFFFFFF0
1FFFFFFFFFF0
1FFFFFFFFFF0
1FFFFFFFFFF0
0007C00FC000
000FC00FC000
000FC00F8000
000FC01F8000
000F801F8000
000F801F8000
001F801F8000
001F801F0000
001F803F0000
001F003F0000
003F003F0000
003F003E0000
FFFFFFFFFFC0
FFFFFFFFFFC0
FFFFFFFFFFC0
FFFFFFFFFFC0
FFFFFFFFFFC0
FFFFFFFFFFC0
007E007C0000
007E00FC0000
007C00FC0000
00FC00FC0000
00FC00F80000
00FC00F80000
00FC01F80000
00F801F80000
00F801F80000
01F801F80000
01F801F00000
01F803F00000
01F803F00000
01F003F00000
01F003F00000
03F003E00000
03F007E00000
ENDCHAR
STARTCHAR 0024
ENCODING 36
SWIDTH 600 0
DWIDTH 48 0
BBX 36 66 6 -5
BITMAP
0001F00000
0001F00000
0001F00000
0001F00000
0001F00000
0001F00000
001FFFC000
00FFFFF800
03FFFFFF00
07FFFFFF80
0FFFFFFF80
1FFFFFFF80
3FFFFFFF00
3FE1F03F00
7FC1F00700
7F81F00000
7F01F00000
7F01F00000
FE01F00000
FE01F00000
FE01F00000
FE01F00000
7F01F00000
7F01F00000
7F81F00000
7FC1F00000
3FE1F00000
1FFDF00000
1FFFF00000
0FFFF00000
03FFFE0000
01FFFFC000
007FFFF000
001FFFFC00
0003FFFE00
0001FFFF80
0001FFFF80
0001F1FFC0
0001F07FE0
0001F01FE0
0001F00FE0
0001F00FE0
0001F007F0
0001F007F0
0001F007F0
0001F007F0
0001F00FE0
0001F00FE0
0001F01FE0
6001F03FC0
7801F07FC0
7F81F3FF80
7FFFFFFF00
7FFFFFFE00
7FFFFFFC00
7FFFFFF000
0FFFFFC000
00FFFC0000
0001F00000
0001F00000
0001F00000
0001F00000
0001F00000
0001F00000
0001F00000
0001F00000
ENDCHAR
STARTCHAR 0025
ENCODING 37
SWIDTH 600 0
DWIDTH 48 0
BBX 48 60 0 -1
BITMAP
00FE00000000
03FF80001F80
0FFFC0003F80
1FFFE0003F00
1FFFF0007F00
3F83F8007E00
7F01F800FE00
7E00FC00FC00
7E00FC01FC00
FC00FC01F800
FC007E03F800
FC007E03F000
FC007E07F000
FC007E07E000
FC007E0FE000
FC007E0FC000
FC007E0FC000
FC007E1F8000
FC007E1F8000
FC00FC3F0000
7E00FC3F0000
7E00FC7E0000
3F01F87E0000
3F83F8FC0000
1FFFF0FC0000
1FFFE1F80000
0FFFC1F80000
03FF83F00000
00FE03F00000
000007E00000
000007E00000
00000FC00000
00000FC00000
00001F807F00
00001F81FFC0
00003F07FFF0
00003F0FFFF8
00007E1FFFFC
00007E1FC1FC
0000FC3F80FE
0000FC3F007E
0001F83F007E
0001F87E003F
0003F07E003F
0003F07E003F
0007E07E003F
0007E07E003F
000FC07E003F
000FC07E003F
001F807E003F
001F807E003F
003F003F007E
003F003F007E
007F003F80FE
007E001FC1FC
00FE000FFFFC
00FC000FFFF8
01FC0007FFF0
01F80001FFE0
000000007F00
ENDCHAR
STARTCHAR 0026
ENCODING 38
SWIDTH 600 0
DWIDTH 48 0
BBX 43 60 3 -1
BITMAP
0007F8000000
003FFE000000
007FFF800000
00FFFFC00000
01FFFFE00000
03FFFFE00000
03FC0FF00000
03F807F00000
07F003F80000
07F003F80000
07F003F80000
07F003F80000
07E003F80000
07F003F80000
07F003F80000
07F003F80000
07F003F00000
03F007F00000
03F80FF00000
03F80FE00000
01FC1FC00000
01FC3FC00000
00FE7F800000
00FEFF000000
007FFE000000
007FFC000000
003FF8000000
003FF0000000
007FE0000000
00FFF0000000
01FFF8000000
03FFF8003F80
07FFFC003F00
0FF9FE003F00
1FF0FF007F00
1FE07F807F00
3FC07F807F00
3F803FC0FE00
7F801FE0FE00
7F000FF0FE00
7F000FF9FC00
FE0007F9FC00
FE0003FFF800
FE0001FFF800
FE0001FFF800
FE0000FFF000
FE00007FE000
FE00003FE000
FF00003FE000
7F00007FF000
7F8000FFF000
7F8001FFF800
3FC003FFFC00
3FF01FFFFE00
1FFFFFF9FF00
0FFFFFF0FF80
07FFFFE07F80
03FFFF803FC0
00FFFE003FE0
003FF0000000
ENDCHAR
STARTCHAR 0027
ENCODING 39
SWIDTH 600 0
DWIDTH 48 0
BBX 8 21 20 37
BITMAP
FF
FF
FF
FF
7E
7E
7E
7E
7E
7E
7E
7E
7E
7E
7E
7E
7E
3C
3C
3C
3C
ENDCHAR
STARTCHAR 0028
ENCODING 40
SWIDTH 600 0
DWIDTH 48 0
BBX 18 70 16 -12
BITMAP
001FC0
001F80
003F80
007F00
00FE00
00FE00
01FC00
01FC00
03F800
03F800
07F000
07F000
0FE000
0FE000
1FE000
1FC000
1FC000
1FC000
3F8000
3F8000
3F8000
7F8000
7F0000
7F0000
7F0000
7F0000
7F0000
FF0000
FF0000
FE0000
FE0000
FE0000
FE0000
FE0000
FE0000
FE0000
FE0000
FE0000
FE0000
FE0000
FE0000
FE0000
FF0000
FF0000
7F0000
7F0000
7F0000
7F0000
7F8000
3F8000
3F8000
3F8000
3FC000
1FC000
1FC000
1FC000
0FE000
0FE000
0FF000
07F000
07F000
03F800
03F800
01FC00
01FC00
00FE00
007F00
007F00
003F80
001FC0
ENDCHAR
STARTCHAR 0029
ENCODING 41
SWIDTH 600 0
DWIDTH 48 0
BBX 18 70 14 -14
BITMAP
FE0000
7F0000
3F8000
3F8000
1FC000
1FE000
0FE000
07F000
07F000
07F800
03F800
03FC00
01FC00
01FC00
01FE00
00FE00
00FE00
00FF00
007F00
007F00
007F00
007F80
003F80
003F80
003F80
003F80
003FC0
003FC0
001FC0
001FC0
001FC0
001FC0
001FC0
001FC0
001FC0
001FC0
001FC0
001FC0
001FC0
001FC0
001FC0
003FC0
003FC0
003F80
003F80
003F80
003F80
003F80
007F00
007F00
007F00
007F00
00FE00
00FE00
00FE00
01FC00
01FC00
01FC00
03F800
03F800
07F000
07F000
0FE000
0FE000
1FC000
1FC000
3F8000
7F0000
7E0000
FE0000
ENDCHAR
STARTCHAR 002A
ENCODING 42
SWIDTH 600 0
DWIDTH 48 0
BBX 34 33 7 27
BITMAP
0003F00000
0003F00000
0003F00000
0003F00000
0003F00000
0003F00000
0003F00000
0003F00000
0003F00000
0001E00000
0001E00080
7001E00780
7F01E03F80
7FF1E3FF80
7FFFFFFFC0
FFFFFFFFC0
FFFFFFFFC0
07FFFFFE00
0007FE0000
000FFC0000
000FFE0000
001FFE0000
003F3F0000
007F3F8000
00FE1FC000
00FE1FE000
01FC0FE000
03FC07F000
07F807F800
07F003FC00
03F003F000
00E001C000
0020018000
ENDCHAR
STARTCHAR 002B
ENCODING 43
SWIDTH 600 0
DWIDTH 48 0
BBX 36 37 6 10
BITMAP
0001F80000
0001F80000
0001F80000
0001F80000
0001F80000
0001F80000
0001F80000
0001F80000
0001F80000
0001F80000
0001F80000
0001F80000
0001F80000
0001F80000
0001F80000
FFFFFFFFF0
FFFFFFFFF0
FFFFFFFFF0
FFFFFFFFF0
FFFFFFFFF0
FFFFFFFFF0
0001F80000
0001F80000
0001F80000
0001F80000
0001F80000
0001F80000
0001F80000
0001F80000
0001F80000
0001F80000
0001F80000
0001F80000
0001F80000
0001F80000
0001F80000
0001F80000
ENDCHAR
STARTCHAR 002C
ENCODING 44
SWIDTH 600 0
DWIDTH 48 0
BBX 13 22 17 -11
BITMAP
0FF8
0FF8
0FF8
0FF8
1FF0
1FF0
1FF0
1FE0
1FE0
1FE0
3FC0
3FC0
3FC0
3F80
3F80
7F80
7F00
7F00
7E00
FE00
FC00
FC00
ENDCHAR
STARTCHAR 002D
ENCODING 45
SWIDTH 600 0
DWIDTH 48 0
BBX 24 6 12 19
BITMAP
FFFFFF
FFFFFF
FFFFFF
FFFFFF
FFFFFF
FFFFFF
ENDCHAR
STARTCHAR 002E
ENCODING 46
SWIDTH 600 0
DWIDTH 48 0
BBX 10 11 19 -1
BITMAP
1E00
7F80
7F80
FFC0
FFC0
FFC0
FFC0
FFC0
7F80
7F80
1E00
ENDCHAR
STARTCHAR 002F
ENCODING 47
SWIDTH 600 0
DWIDTH 48 0
BBX 28 58 10 0
BITMAP
000007F0
000007F0
000007E0
00000FE0
00000FE0
00001FC0
00001FC0
00001FC0
00003F80
00003F80
00003F00
00007F00
00007F00
0000FE00
0000FE00
0000FE00
0001FC00
0001FC00
0001F800
0003F800
0003F800
0007F000
0007F000
0007F000
000FE000
000FE000
001FC000
001FC000
001FC000
003F8000
003F8000
003F8000
007F0000
007F0000
00FE0000
00FE0000
00FE0000
01FC0000
01FC0000
01F80000
03F80000
03F80000
07F00000
07F00000
07F00000
0FE00000
0FE00000
0FC00000
1FC00000
1FC00000
3F800000
3F800000
3F800000
7F000000
7F000000
7E000000
FE000000
FE000000
ENDCHAR
STARTCHAR 0030
ENCODING 48
SWIDTH 600 0
DWIDTH 48 0
BBX 38 60 5 -1
BITMAP
0003FF0000
001FFFE000
007FFFF800
00FFFFFC00
01FFFFFE00
03FFFFFF00
07FE03FF80
0FF800FF80
0FF0003FC0
1FE0001FC0
1FC0003FE0
3FC0007FE0
3F80007FF0
3F8000FFF0
7F0000FFF0
7F0001FFF8
7F0001FFF8
7F0003F9F8
7E0007F9F8
FE0007F1F8
FE000FF1FC
FE000FE1FC
FE001FC1FC
FE001FC1FC
FE003F80FC
FE007F80FC
FE007F00FC
FE00FF00FC
FE00FE00FC
FE01FC00FC
FE01FC00FC
FE03F800FC
FE07F800FC
FE07F000FC
FE0FF000FC
FE0FE000FC
FE1FC001FC
FE1FC001FC
FE3F8001FC
FE7F8001FC
7E7F0001F8
7EFF0001F8
7FFE0001F8
7FFC0003F8
7FFC0003F8
3FF80003F0
3FF80007F0
3FF00007F0
1FF0000FF0
1FE0000FE0
0FE0001FE0
0FF0003FC0
07F8007FC0
07FE01FF80
03FFFFFF00
01FFFFFE00
00FFFFFC00
007FFFF800
001FFFE000
0003FF0000
ENDCHAR
STARTCHAR 0031
ENCODING 49
SWIDTH 600 0
DWIDTH 48 0
BBX 34 58 8 0
BITMAP
0001FC0000
0007FC0000
001FFC0000
007FFC0000
00FFFC0000
03FFFC0000
0FFFFC0000
3FFFFC0000
FFFDFC0000
FFF1FC0000
7FC1FC0000
7F01FC0000
3C01FC0000
3001FC0000
0001FC0000
0001FC0000
0001FC0000
0001FC0000
0001FC0000
0001FC0000
0001FC0000
0001FC0000
0001FC0000
0001FC0000
0001FC0000
0001FC0000
0001FC0000
0001FC0000
0001FC0000
0001FC0000
0001FC0000
0001FC0000
0001FC0000
0001FC0000
0001FC0000
0001FC0000
0001FC0000
0001FC0000
0001FC0000
0001FC0000
0001FC0000
0001FC0000
0001FC0000
0001FC0000
0001FC0000
0001FC0000
0001FC0000
0001FC0000
0001FC0000
0001FC0000
0001FC0000
0001FC0000
0001FC0000
1FFFFFFFC0
1FFFFFFFC0
1FFFFFFFC0
1FFFFFFFC0
1FFFFFFFC0
ENDCHAR
STARTCHAR 0032
ENCODING 50
SWIDTH 600 0
DWIDTH 48 0
BBX 38 59 6 0
BITMAP
000FFE0000
007FFFC000
03FFFFF000
0FFFFFF800
1FFFFFFC00
7FFFFFFE00
FFF807FF00
7FC000FF80
3F00007F80
1E00003FC0
1800003FC0
0000001FC0
0000001FC0
0000001FC0
0000001FC0
0000001FE0
0000001FE0
0000001FE0
0000001FC0
0000001FC0
0000001FC0
0000003FC0
0000003FC0
0000003F80
0000007F80
000000FF80
000000FF00
000001FF00
000003FE00
000003FC00
000007FC00
00000FF800
00001FF000
00003FE000
00007FE000
0000FFC000
0000FF8000
0001FF0000
0003FE0000
0007FC0000
000FF80000
001FF00000
003FE00000
007FC00000
00FF800000
01FF000000
03FE000000
07FC000000
0FF8000000
1FF0000000
3FE0000000
7FC0000000
FFFFFFFFFC
FFFFFFFFFC
FFFFFFFFFC
FFFFFFFFFC
FFFFFFFFFC
FFFFFFFFFC
FFFFFFFFFC
ENDCHAR
STARTCHAR 0033
ENCODING 51
SWIDTH 600 0
DWIDTH 48 0
BBX 36 60 6 -1
BITMAP
000FFE0000
00FFFFC000
07FFFFF000
1FFFFFF800
3FFFFFFC00
FFFFFFFE00
7FF007FF00
3F8001FF80
3E00007F80
1C00007F80
1000003FC0
0000003FC0
0000001FC0
0000001FC0
0000001FC0
0000001FC0
0000001FC0
0000001FC0
0000003FC0
0000003FC0
0000003F80
0000007F80
000000FF00
000001FE00
000007FC00
00001FF800
00FFFFF000
00FFFFC000
00FFFC0000
00FFFFC000
00FFFFF800
00FFFFFE00
00000FFF00
000001FF80
0000007FC0
0000003FC0
0000001FE0
0000000FE0
0000000FE0
0000000FF0
00000007F0
00000007F0
00000007F0
00000007F0
00000007F0
0000000FF0
0000000FF0
0000000FE0
0000001FE0
0000001FE0
8000003FC0
C000007FC0
F80001FF80
FF8007FF80
FFFFFFFF00
FFFFFFFE00
FFFFFFF800
7FFFFFE000
1FFFFF8000
00FFF80000
ENDCHAR
STARTCHAR 0034
ENCODING 52
SWIDTH 600 0
DWIDTH 48 0
BBX 40 58 4 0
BITMAP
000001FF00
000001FF00
000003FF00
000007FF00
000007FF00
00000FFF00
00000FFF00
00001FFF00
00003FFF00
00003F7F00
00007F7F00
00007E7F00
0000FE7F00
0001FC7F00
0001FC7F00
0003F87F00
0003F07F00
0007F07F00
000FE07F00
000FE07F00
001FC07F00
001F807F00
003F807F00
007F007F00
007F007F00
00FE007F00
00FE007F00
01FC007F00
03F8007F00
03F8007F00
07F0007F00
07F0007F00
0FE0007F00
0FC0007F00
1FC0007F00
3F80007F00
3F80007F00
7F00007F00
7E00007F00
FFFFFFFFFF
FFFFFFFFFF
FFFFFFFFFF
FFFFFFFFFF
FFFFFFFFFF
FFFFFFFFFF
0000007F00
0000007F00
0000007F00
0000007F00
0000007F00
0000007F00
0000007F00
0000007F00
0000007F00
0000007F00
0000007F00
0000007F00
0000007F00
ENDCHAR
STARTCHAR 0035
ENCODING 53
SWIDTH 600 0
DWIDTH 48 0
BBX 36 59 6 -1
BITMAP
0FFFFFFF00
0FFFFFFF00
0FFFFFFF00
1FFFFFFF00
1FFFFFFF00
1FFFFFFF00
1FC0000000
1FC0000000
1FC0000000
1FC0000000
1FC0000000
1F80000000
1F80000000
1F80000000
1F80000000
1F80000000
3F80000000
3F80000000
3F80000000
3F80000000
3F80000000
3F80000000
3F80000000
3F3FFC0000
3FFFFF8000
3FFFFFE000
3FFFFFF800
3FFFFFFC00
1FFFFFFE00
0F001FFF00
000003FF80
000000FF80
0000007FC0
0000003FC0
0000001FE0
0000001FE0
0000001FE0
0000000FE0
0000000FE0
0000000FE0
0000000FF0
0000000FE0
0000000FE0
0000000FE0
0000000FE0
0000000FE0
0000001FE0
0000001FC0
0000003FC0
8000007F80
C00000FF80
F80003FF00
FF001FFE00
FFFFFFFE00
FFFFFFF800
FFFFFFF000
7FFFFFC000
0FFFFF0000
00FFF00000
ENDCHAR
STARTCHAR 0036
ENCODING 54
SWIDTH 600 0
DWIDTH 48 0
BBX 38 60 5 -1
BITMAP
00000FFF80
0000FFFF80
0003FFFF80
000FFFFF80
003FFFFF80
007FFFFF80
00FFF80080
01FFC00000
03FF000000
03FE000000
07F8000000
0FF0000000
0FF0000000
1FE0000000
1FC0000000
1FC0000000
3F80000000
3F80000000
3F80000000
7F00000000
7F00000000
7F00000000
7F00000000
7F00FFC000
FE07FFF800
FE0FFFFE00
FE3FFFFF00
FE7FFFFF80
FE7FFFFFC0
FEFE00FFE0
FFF8001FF0
FFE0000FF0
FFC00007F8
FF800003F8
FF800003F8
FF000003FC
FF000001FC
FE000001FC
FE000001FC
FE000001FC
FE000001FC
FE000001FC
FE000001FC
7E000001FC
7F000001FC
7F000001FC
7F000001FC
3F800003F8
3F800003F8
1FC00007F8
1FE00007F0
0FF0000FF0
0FF8003FE0
07FF00FFC0
03FFFFFFC0
01FFFFFF80
00FFFFFE00
003FFFFC00
000FFFF000
0001FF0000
ENDCHAR
STARTCHAR 0037
ENCODING 55
SWIDTH 600 0
DWIDTH 48 0
BBX 38 58 5 0
BITMAP
FFFFFFFFFC
FFFFFFFFFC
FFFFFFFFFC
FFFFFFFFFC
FFFFFFFFFC
FFFFFFFFFC
00000001FC
00000003F8
00000003F8
00000007F0
00000007F0
00000007F0
0000000FE0
0000000FE0
0000001FC0
0000001FC0
0000003FC0
0000003F80
0000003F80
0000007F00
0000007F00
000000FF00
000000FE00
000001FE00
000001FC00
000001FC00
000003F800
000003F800
000007F800
000007F000
000007F000
00000FE000
00000FE000
00001FE000
00001FC000
00003FC000
00003F8000
00003F8000
00007F8000
00007F0000
0000FF0000
0000FE0000
0001FE0000
0001FC0000
0001FC0000
0003FC0000
0003F80000
0007F80000
0007F00000
0007F00000
000FF00000
000FE00000
001FE00000
001FC00000
003FC00000
003FC00000
003F800000
007F800000
ENDCHAR
STARTCHAR 0038
ENCODING 56
SWIDTH 600 0
DWIDTH 48 0
BBX 37 60 5 -1
BITMAP
0003FF0000
001FFFE000
007FFFF800
01FFFFFE00
03FFFFFF00
07FFFFFF80
0FFE01FFC0
0FF0007FC0
1FE0001FE0
1FC0001FE0
1FC0000FE0
3FC0000FE0
3F800007F0
3F800007F0
3F800007F0
3F800007F0
3FC0000FE0
1FC0000FE0
1FC0000FE0
1FE0001FE0
0FF0003FC0
0FF8007FC0
07FE01FF80
03FF87FF00
01FFFFFE00
00FFFFFC00
007FFFF000
003FFFC000
000FFF8000
003FFFE000
007FFFF800
01FFFFFC00
03FF0FFE00
07FC03FF80
0FF800FFC0
1FF0007FC0
1FE0001FE0
3FC0000FF0
3F800007F0
7F000007F8
7F000003F8
7F000003F8
7F000003F8
FF000003F8
FE000003F8
FF000003F8
7F000003F8
7F000003F8
7F000003F8
7F800007F8
7F80000FF0
3FC0001FF0
3FF0003FE0
1FFC00FFC0
0FFFFFFFC0
07FFFFFF80
03FFFFFE00
00FFFFFC00
003FFFF000
0007FF0000
ENDCHAR
STARTCHAR 0039
ENCODING 57
SWIDTH 600 0
DWIDTH 48 0
BBX 38 60 5 -1
BITMAP
0003FE0000
003FFFC000
00FFFFF000
01FFFFFC00
03FFFFFE00
07FFFFFF00
0FFC03FF80
1FF000FFC0
3FE0003FC0
3FC0001FE0
7F80000FE0
7F00000FF0
7F000007F0
FE000003F0
FE000003F8
FE000003F8
FE000001F8
FE000001F8
FE000001FC
FE000001FC
FE000001FC
FE000001FC
FE000001FC
FE000001FC
FE000003FC
FF000003FC
7F000007FC
7F000007FC
7F80000FFC
3FC0003FFC
3FF0007FFC
1FFC03FDFC
0FFFFFF9FC
07FFFFF9FC
03FFFFE1FC
01FFFFC1FC
007FFF01FC
000FFC03F8
00000003F8
00000003F8
00000003F8
00000007F0
00000007F0
00000007F0
0000000FF0
0000000FE0
0000001FE0
0000001FC0
0000003FC0
0000007F80
000000FF00
000003FF00
000007FE00
06003FFC00
07FFFFF800
07FFFFF000
07FFFFC000
07FFFF8000
07FFFC0000
03FFC00000
ENDCHAR
STARTCHAR 003A
ENCODING 58
SWIDTH 600 0
DWIDTH 48 0
BBX 10 45 19 -1
BITMAP
1E00
7F80
7F80
FFC0
FFC0
FFC0
FFC0
FFC0
7F80
7F80
1E00
0000
0000
0000
0000
0000
0000
0000
0000
0000
0000
0000
0000
0000
0000
0000
0000
0000
0000
0000
0000
0000
0000
0000
1E00
7F80
7F80
FFC0
FFC0
FFC0
FFC0
FFC0
7F80
7F80
1E00
ENDCHAR
STARTCHAR 003B
ENCODING 59
SWIDTH 600 0
DWIDTH 48 0
BBX 14 55 17 -11
BITMAP
03E0
07F8
0FF8
0FFC
0FFC
0FFC
0FFC
0FFC
0FF8
07F8
01E0
0000
0000
0000
0000
0000
0000
0000
0000
0000
0000
0000
0000
0000
0000
0000
0000
0000
0000
0000
0000
0000
0000
0FF8
0FF8
0FF8
0FF8
1FF0
1FF0
1FF0
1FE0
1FE0
1FE0
3FC0
3FC0
3FC0
3F80
3F80
7F80
7F00
7F00
7E00
FE00
FC00
FC00
ENDCHAR
STARTCHAR 003C
ENCODING 60
SWIDTH 600 0
DWIDTH 48 0
BBX 34 40 7 9
BITMAP
0000000040
00000000C0
00000003C0
0000000FC0
0000003FC0
0000007FC0
000001FFC0
000007FF00
00001FFC00
00007FF800
0000FFE000
0003FF8000
000FFE0000
003FF80000
007FE00000
01FFC00000
07FF000000
1FFC000000
7FF0000000
FFC0000000
FF80000000
FF80000000
FFE0000000
7FF8000000
1FFE000000
07FF800000
01FFE00000
007FF80000
001FFE0000
0007FFC000
0001FFF000
00007FFC00
00001FFF00
000007FFC0
000001FFC0
0000007FC0
0000001FC0
00000007C0
00000001C0
0000000040
ENDCHAR
STARTCHAR 003D
ENCODING 61
SWIDTH 600 0
DWIDTH 48 0
BBX 36 22 6 17
BITMAP
FFFFFFFFF0
FFFFFFFFF0
FFFFFFFFF0
FFFFFFFFF0
FFFFFFFFF0
FFFFFFFFF0
0000000000
0000000000
0000000000
0000000000
0000000000
0000000000
0000000000
0000000000
0000000000
0000000000
FFFFFFFFF0
FFFFFFFFF0
FFFFFFFFF0
FFFFFFFFF0
FFFFFFFFF0
FFFFFFFFF0
ENDCHAR
STARTCHAR 003E
ENCODING 62
SWIDTH 600 0
DWIDTH 48 0
BBX 34 40 7 9
BITMAP
8000000000
C000000000
F000000000
FC00000000
FF00000000
FF80000000
FFE0000000
3FF8000000
0FFE000000
07FF800000
01FFC00000
007FF00000
001FFC0000
0007FF0000
0001FF8000
0000FFE000
00003FF800
00000FFE00
000003FF80
000000FFC0
0000007FC0
0000007FC0
000001FFC0
000007FF80
00001FFE00
00007FF800
0001FFE000
0007FF8000
001FFE0000
00FFF80000
03FFE00000
0FFF800000
3FFE000000
FFF8000000
FFE0000000
FF80000000
FE00000000
F800000000
E000000000
8000000000
ENDCHAR
STARTCHAR 003F
ENCODING 63
SWIDTH 600 0
DWIDTH 48 0
BBX 34 60 7 -1
BITMAP
003FFC0000
03FFFF8000
1FFFFFE000
FFFFFFF800
7FFFFFFC00
7FFFFFFE00
7FE007FF00
3F0001FF00
3C00007F80
1000003F80
0000003F80
0000001FC0
0000001FC0
0000001FC0
0000001FC0
0000001FC0
0000001FC0
0000001FC0
0000003F80
0000003F80
0000003F80
0000007F80
000000FF00
000000FF00
000003FE00
000007FC00
00000FF800
00001FF000
00007FE000
0000FFC000
0001FF8000
0003FF0000
0003FC0000
0007F80000
0007F00000
000FE00000
000FE00000
000FC00000
000FC00000
001FC00000
001FC00000
001FC00000
001FC00000
0000000000
0000000000
0000000000
0000000000
0000000000
0000000000
000F800000
001FE00000
003FE00000
003FF00000
003FF00000
003FF00000
003FF00000
003FF00000
003FE00000
001FE00000
0007800000
ENDCHAR
STARTCHAR 0040
ENCODING 64
SWIDTH 600 0
DWIDTH 48 0
BBX 46 66 1 -8
BITMAP
00000FF80000
0000FFFF0000
0003FFFFC000
000FFFFFF000
001FFFFFF800
003FFFFFFC00
007FF007FE00
00FF8001FF00
01FE00007F80
01FC00003F80
03F800001FC0
07F000000FC0
07E000000FE0
0FE0000007E0
0FC0000003F0
1F80000003F0
1F8007FC03F0
1F801FFFC1F0
3F007FFFE1F8
3F00FFFFE1F8
3E01FFFFE0F8
3E03FC1FE0F8
7E03F80FC0F8
7E07F00FC0FC
7E07E00FC0FC
7C0FE00FC0FC
7C0FC00FC0FC
7C0FC00FC0FC
FC1FC00FC0FC
FC1FC00FC0FC
FC1F800FC0FC
FC1F800FC0FC
FC1F800FC0FC
FC1F800FC0FC
FC1F800FC0F8
FC1F801FC0F8
FC1F801FC0F8
FC1F801FC0F8
FC1F801FC0F8
FC1FC01FC0F8
FC0FC03FC1F0
7C0FC03FC1F0
7C0FE07FE1F0
7E07F0FBE3E0
7E07FFF9FFE0
7E03FFF1FFC0
3E01FFE0FFC0
3F00FFC07F80
3F003F003E00
3F8000000000
1F8000000000
1FC000000000
0FC000000000
0FE000000000
07F000000000
07F800000000
03FC00000000
01FE00000600
01FF80003E00
00FFF001FE00
007FFFFFFE00
001FFFFFFE00
000FFFFFFE00
0003FFFFF800
0000FFFFC000
00000FFC0000
ENDCHAR
STARTCHAR 0041
ENCODING 65
SWIDTH 600 0
DWIDTH 48 0
BBX 44 58 2 0
BITMAP
00003FC00000
00003FC00000
00007FE00000
00007FE00000
00007FE00000
0000FFF00000
0000FFF00000
0000FFF00000
0001FFF80000
0001FFF80000
0001FBF80000
0003F9F80000
0003F9FC0000
0003F9FC0000
0007F0FC0000
0007F0FE0000
0007F0FE0000
0007E0FE0000
000FE07F0000
000FE07F0000
000FE07F0000
001FC03F8000
001FC03F8000
001FC03F8000
003F801FC000
003F801FC000
003F801FC000
007F000FE000
007F000FE000
007F000FE000
00FE000FF000
00FE0007F000
00FE0007F000
01FE0007F800
01FFFFFFF800
01FFFFFFF800
03FFFFFFFC00
03FFFFFFFC00
03FFFFFFFC00
07FFFFFFFC00
07F00000FE00
07F00000FE00
07F00000FE00
0FE000007F00
0FE000007F00
0FE000007F00
1FC000003F80
1FC000003F80
1FC000003F80
3F8000003FC0
3F8000001FC0
3F8000001FC0
7F8000001FE0
7F0000000FE0
7F0000000FE0
FF0000000FF0
FE00000007F0
FE00000007F0
ENDCHAR
STARTCHAR 0042
ENCODING 66
SWIDTH 600 0
DWIDTH 48 0
BBX 36 58 8 0
BITMAP
FFFFF80000
FFFFFF8000
FFFFFFF000
FFFFFFF800
FFFFFFFC00
FFFFFFFE00
FC000FFF00
FC0001FF80
FC0000FF80
FC00007F80
FC00003FC0
FC00003FC0
FC00003FC0
FC00001FC0
FC00001FC0
FC00001FC0
FC00001FC0
FC00001FC0
FC00003FC0
FC00003F80
FC00003F80
FC00007F80
FC0000FF00
FC0001FE00
FC000FFC00
FFFFFFF800
FFFFFFE000
FFFFFF0000
FFFFFFC000
FFFFFFF800
FFFFFFFE00
FC0007FF00
FC0000FF80
FC00007FC0
FC00003FC0
FC00001FE0
FC00001FE0
FC00000FE0
FC00000FE0
FC00000FF0
FC00000FF0
FC00000FF0
FC00000FF0
FC00000FE0
FC00000FE0
FC00000FE0
FC00001FE0
FC00001FE0
FC00003FC0
FC00007FC0
FC0000FF80
FC0007FF80
FFFFFFFF00
FFFFFFFE00
FFFFFFFC00
FFFFFFF000
FFFFFFC000
FFFFFC0000
ENDCHAR
STARTCHAR 0043
ENCODING 67
SWIDTH 600 0
DWIDTH 48 0
BBX 39 60 5 -1
BITMAP
00001FFE00
0000FFFFE0
0007FFFFFC
000FFFFFFE
003FFFFFFC
007FFFFFFC
00FFF003F8
01FF800078
03FF000018
03FC000000
07F8000000
0FF0000000
0FF0000000
1FE0000000
1FC0000000
1FC0000000
3FC0000000
3F80000000
3F80000000
7F80000000
7F00000000
7F00000000
7F00000000
7F00000000
7F00000000
FF00000000
FF00000000
FF00000000
FF00000000
FF00000000
FF00000000
FF00000000
FF00000000
FF00000000
FF00000000
7F00000000
7F00000000
7F00000000
7F00000000
7F80000000
7F80000000
3F80000000
3FC0000000
3FC0000000
3FC0000000
1FE0000000
1FE0000000
0FF0000000
0FF8000000
07FC000000
07FE000008
03FF800038
01FFF003F8
01FFFFFFF8
00FFFFFFF8
003FFFFFF8
001FFFFFF8
0007FFFFF8
0001FFFFC0
00003FFC00
ENDCHAR
STARTCHAR 0044
ENCODING 68
SWIDTH 600 0
DWIDTH 48 0
BBX 38 58 6 0
BITMAP
FFFFE00000
FFFFFE0000
FFFFFF8000
FFFFFFE000
FFFFFFF800
FFFFFFFC00
FE003FFE00
FE0007FF00
FE0001FF80
FE0000FF80
FE00007FC0
FE00003FE0
FE00001FE0
FE00000FF0
FE00000FF0
FE000007F0
FE000007F8
FE000007F8
FE000003F8
FE000003FC
FE000003FC
FE000003FC
FE000001FC
FE000001FC
FE000001FC
FE000001FC
FE000001FC
FE000001FC
FE000001FC
FE000001FC
FE000001FC
FE000001FC
FE000001FC
FE000001FC
FE000001FC
FE000001FC
FE000003FC
FE000003FC
FE000003F8
FE000003F8
FE000007F8
FE000007F8
FE00000FF0
FE00000FF0
FE00001FE0
FE00001FE0
FE00003FC0
FE00007FC0
FE0000FF80
FE0003FF00
FE000FFE00
FE007FFC00
FFFFFFF800
FFFFFFF000
FFFFFFC000
FFFFFF8000
FFFFFC0000
FFFFC00000
ENDCHAR
STARTCHAR 0045
ENCODING 69
SWIDTH 600 0
DWIDTH 48 0
BBX 33 58 8 0
BITMAP
FFFFFFFF80
FFFFFFFF80
FFFFFFFF80
FFFFFFFF80
FFFFFFFF80
FFFFFFFF80
FE00000000
FE00000000
FE00000000
FE00000000
FE00000000
FE00000000
FE00000000
FE00000000
FE00000000
FE00000000
FE00000000
FE00000000
FE00000000
FE00000000
FE00000000
FE00000000
FE00000000
FE00000000
FE00000000
FFFFFFFF00
FFFFFFFF00
FFFFFFFF00
FFFFFFFF00
FFFFFFFF00
FFFFFFFF00
FE00000000
FE00000000
FE00000000
FE00000000
FE00000000
FE00000000
FE00000000
FE00000000
FE00000000
FE00000000
FE00000000
FE00000000
FE00000000
FE00000000
FE00000000
FE00000000
FE00000000
FE00000000
FE00000000
FE00000000
FE00000000
FFFFFFFF80
FFFFFFFF80
FFFFFFFF80
FFFFFFFF80
FFFFFFFF80
FFFFFFFF80
ENDCHAR
STARTCHAR 0046
ENCODING 70
SWIDTH 600 0
DWIDTH 48 0
BBX 33 58 8 0
BITMAP
FFFFFFFF80
FFFFFFFF80
FFFFFFFF80
FFFFFFFF80
FFFFFFFF80
FFFFFFFF80
FE00000000
FE00000000
FE00000000
FE00000000
FE00000000
FE00000000
FE00000000
FE00000000
FE00000000
FE00000000
FE00000000
FE00000000
FE00000000
FE00000000
FE00000000
FE00000000
FE00000000
FE00000000
FE00000000
FE00000000
FE00000000
FFFFFFFF00
FFFFFFFF00
FFFFFFFF00
FFFFFFFF00
FFFFFFFF00
FFFFFFFF00
FE00000000
FE00000000
FE00000000
FE00000000
FE00000000
FE00000000
FE00000000
FE00000000
FE00000000
FE00000000
FE00000000
FE00000000
FE00000000
FE00000000
FE00000000
FE00000000
FE00000000
FE00000000
FE00000000
FE00000000
FE00000000
FE00000000
FE00000000
FE00000000
FE00000000
ENDCHAR
STARTCHAR 0047
ENCODING 71
SWIDTH 600 0
DWIDTH 48 0
BBX 38 60 4 -1
BITMAP
00001FFC00
0001FFFF80
0007FFFFF0
001FFFFFFC
007FFFFFF8
00FFFFFFF8
01FFFFFFF8
03FFF007F0
03FF8000F0
07FE000020
0FFC000000
0FF8000000
1FF0000000
1FE0000000
3FC0000000
3FC0000000
3F80000000
7F80000000
7F80000000
7F00000000
FF00000000
FF00000000
FF00000000
FE00000000
FE00000000
FE00000000
FE00000000
FE00000000
FE00000000
FE0007FFFC
FE0007FFFC
FE0007FFFC
FE0007FFFC
FE0007FFFC
FE0007FFFC
FE000001FC
FE000001FC
FE000001FC
FF000001FC
FF000001FC
FF000001FC
7F000001FC
7F000001FC
7F800001FC
7F800001FC
3F800001FC
3FC00001FC
3FE00001FC
1FE00001FC
1FF00001FC
0FF80001FC
07FC0001FC
07FF0001FC
03FFC007FC
01FFFFFFFC
00FFFFFFFC
003FFFFFFC
000FFFFFFC
0003FFFFE0
00007FFC00
ENDCHAR
STARTCHAR 0048
ENCODING 72
SWIDTH 600 0
DWIDTH 48 0
BBX 36 58 6 0
BITMAP
FE000007F0
FE000007F0
FE000007F0
FE000007F0
FE000007F0
FE000007F0
FE000007F0
FE000007F0
FE000007F0
FE000007F0
FE000007F0
FE000007F0
FE000007F0
FE000007F0
FE000007F0
FE000007F0
FE000007F0
FE000007F0
FE000007F0
FE000007F0
FE000007F0
FE000007F0
FE000007F0
FE000007F0
FE000007F0
FFFFFFFFF0
FFFFFFFFF0
FFFFFFFFF0
FFFFFFFFF0
FFFFFFFFF0
FFFFFFFFF0
FE000007F0
FE000007F0
FE000007F0
FE000007F0
FE000007F0
FE000007F0
FE000007F0
FE000007F0
FE000007F0
FE000007F0
FE000007F0
FE000007F0
FE000007F0
FE000007F0
FE000007F0
FE000007F0
FE000007F0
FE000007F0
FE000007F0
FE000007F0
FE000007F0
FE000007F0
FE000007F0
FE000007F0
FE000007F0
FE000007F0
FE000007F0
ENDCHAR
STARTCHAR 0049
ENCODING 73
SWIDTH 600 0
DWIDTH 48 0
BBX 30 58 9 0
BITMAP
FFFFFFFC
FFFFFFFC
FFFFFFFC
FFFFFFFC
FFFFFFFC
FFFFFFFC
001FE000
001FE000
001FE000
001FE000
001FE000
001FE000
001FE000
001FE000
001FE000
001FE000
001FE000
001FE000
001FE000
001FE000
001FE000
001FE000
001FE000
001FE000
001FE000
001FE000
001FE000
001FE000
001FE000
001FE000
001FE000
001FE000
001FE000
001FE000
001FE000
001FE000
001FE000
001FE000
001FE000
001FE000
001FE000
001FE000
001FE000
001FE000
001FE000
001FE000
001FE000
001FE000
001FE000
001FE000
001FE000
001FE000
07FFFF80
FFFFFFFC
FFFFFFFC
FFFFFFFC
FFFFFFFC
FFFFFFFC
ENDCHAR
STARTCHAR 004A
ENCODING 74
SWIDTH 600 0
DWIDTH 48 0
BBX 29 59 8 -1
BITMAP
000003F8
000003F8
000003F8
000003F8
000003F8
000003F8
000003F8
000003F8
000003F8
000003F8
000003F8
000003F8
000003F8
000003F8
000003F8
000003F8
000003F8
000003F8
000003F8
000003F8
000003F8
000003F8
000003F8
000003F8
000003F8
000003F8
000003F8
000003F8
000003F8
000003F8
000003F8
000003F8
000003F8
000003F8
000003F8
000003F8
000003F8
000003F8
000003F8
000003F8
000003F8
000003F8
000003F8
000003F8
000007F8
000007F8
000007F8
00000FF0
00000FF0
00001FF0
E0007FE0
FE01FFE0
FFFFFFC0
FFFFFF80
FFFFFF80
FFFFFE00
FFFFFC00
3FFFF000
01FF8000
ENDCHAR
STARTCHAR 004B
ENCODING 75
SWIDTH 600 0
DWIDTH 48 0
BBX 38 58 6 0
BITMAP
FE000007F8
FE00000FF0
FE00001FE0
FE00003FE0
FE00003FC0
FE00007F80
FE0000FF80
FE0000FF00
FE0001FE00
FE0003FC00
FE0007FC00
FE0007F800
FE000FF000
FE001FF000
FE003FE000
FE003FC000
FE007F8000
FE00FF8000
FE00FF0000
FE01FE0000
FE03FC0000
FE07FC0000
FE07F80000
FE0FF00000
FE1FF00000
FE1FE00000
FE3FC00000
FE7FE00000
FE7FE00000
FEFFF00000
FFFFF80000
FFFFF80000
FFF3FC0000
FFE1FE0000
FFE1FE0000
FFC0FF0000
FF80FF0000
FF007F8000
FE003FC000
FE003FC000
FE001FE000
FE000FF000
FE000FF000
FE0007F800
FE0007FC00
FE0003FC00
FE0001FE00
FE0001FE00
FE0000FF00
FE0000FF80
FE00007F80
FE00003FC0
FE00003FE0
FE00001FE0
FE00000FF0
FE00000FF0
FE000007F8
FE000007FC
ENDCHAR
STARTCHAR 004C
ENCODING 76
SWIDTH 600 0
DWIDTH 48 0
BBX 32 58 9 0
BITMAP
FE000000
FE000000
FE000000
FE000000
FE000000
FE000000
FE000000
FE000000
FE000000
FE000000
FE000000
FE000000
FE000000
FE000000
FE000000
FE000000
FE000000
FE000000
FE000000
FE000000
FE000000
FE000000
FE000000
FE000000
FE000000
FE000000
FE000000
FE000000
FE000000
FE000000
FE000000
FE000000
FE000000
FE000000
FE000000
FE000000
FE000000
FE000000
FE000000
FE000000
FE000000
FE000000
FE000000
FE000000
FE000000
FE000000
FE000000
FE000000
FE000000
FE000000
FE000000
FFFFFFFF
FFFFFFFF
FFFFFFFF
FFFFFFFF
FFFFFFFF
FFFFFFFF
FFFFFFFF
ENDCHAR
STARTCHAR 004D
ENCODING 77
SWIDTH 600 0
DWIDTH 48 0
BBX 40 58 4 0
BITMAP
FFC00007FF
FFE00007FF
FFE00007FF
FFE00007FF
FFF0000FFF
FFF0000FFF
FFF0000FFF
FFF0001FFF
FFF8001FFF
FDF8001FBF
FDF8001FBF
FDFC003FBF
FDFC003F3F
FCFC003F3F
FCFC003F7F
FCFE007F7F
FE7E007E7F
FE7E007E7F
FE7E00FE7F
FE3F00FC7F
FE3F00FC7F
FE3F00FC7F
FE3F81F87F
FE1F81F87F
FE1F81F87F
FE1F83F87F
FE0FC3F07F
FE0FC3F07F
FE0FC3F07F
FE0FE7E07F
FE07E7E07F
FE07E7E07F
FE07E7E07F
FE03FFC07F
FE03FFC07F
FE03FFC07F
FE01FF807F
FE01FF807F
FE01FF807F
FE01FF007F
FE00FF007F
FE00FF007F
FE00FF007F
FE007E007F
FE0000007F
FE0000007F
FE0000007F
FE0000007F
FE0000007F
FE0000007F
FE0000007F
FE0000007F
FE0000007F
FE0000007F
FE0000007F
FE0000007F
FE0000007F
FE0000007F
ENDCHAR
STARTCHAR 004E
ENCODING 78
SWIDTH 600 0
DWIDTH 48 0
BBX 36 58 6 0
BITMAP
FF800007F0
FFC00007F0
FFC00007F0
FFE00007F0
FFE00007F0
FFE00007F0
FFF00007F0
FFF00007F0
FFF80007F0
FDF80007F0
FDFC0007F0
FDFC0007F0
FCFC0007F0
FCFE0007F0
FC7E0007F0
FC7F0007F0
FC3F0007F0
FC3F8007F0
FC3F8007F0
FC1FC007F0
FC1FC007F0
FC0FC007F0
FC0FE007F0
FE07E007F0
FE07F007F0
FE03F007F0
FE03F807F0
FE03F807F0
FE01F807F0
FE01FC07F0
FE00FC07F0
FE00FE07F0
FE007E07F0
FE007F07F0
FE007F07F0
FE003F07F0
FE003F87F0
FE001F83F0
FE001FC3F0
FE000FC3F0
FE000FE3F0
FE000FE3F0
FE0007E3F0
FE0007F3F0
FE0003F3F0
FE0003FBF0
FE0001FBF0
FE0001FFF0
FE0000FFF0
FE0000FFF0
FE0000FFF0
FE00007FF0
FE00007FF0
FE00003FF0
FE00003FF0
FE00001FF0
FE00001FF0
FE00001FF0
ENDCHAR
STARTCHAR 004F
ENCODING 79
SWIDTH 600 0
DWIDTH 48 0
BBX 40 60 4 -1
BITMAP
0001FF8000
000FFFF000
003FFFFC00
007FFFFE00
00FFFFFF00
01FFFFFF80
03FF00FFC0
07FC003FE0
0FF8000FF0
0FF0000FF0
1FE00007F8
1FC00003F8
3FC00003FC
3F800001FC
3F800001FC
7F800001FE
7F000000FE
7F000000FE
7F000000FE
FF000000FF
FF000000FF
FE0000007F
FE0000007F
FE0000007F
FE0000007F
FE0000007F
FE0000007F
FE0000007F
FE0000007F
FE0000007F
FE0000007F
FE0000007F
FE0000007F
FE0000007F
FE0000007F
FE0000007F
FE0000007F
FE0000007F
FE0000007F
FF000000FF
FF000000FF
7F000000FE
7F000000FE
7F000000FE
7F800001FE
3F800001FC
3F800001FC
3FC00003FC
1FC00003F8
1FE00007F8
0FF0000FF0
0FF8000FF0
07FC003FE0
03FF00FFC0
03FFFFFF80
01FFFFFF00
007FFFFE00
003FFFFC00
000FFFF000
0001FF8000
ENDCHAR
STARTCHAR 0050
ENCODING 80
SWIDTH 600 0
DWIDTH 48 0
BBX 36 58 8 0
BITMAP
FFFFFC0000
FFFFFFC000
FFFFFFF000
FFFFFFFC00
FFFFFFFE00
FFFFFFFF00
FE0007FF80
FE0001FF80
FE00007FC0
FE00003FC0
FE00001FE0
FE00001FE0
FE00000FE0
FE00000FE0
FE00000FE0
FE00000FF0
FE00000FF0
FE00000FF0
FE00000FF0
FE00000FE0
FE00000FE0
FE00000FE0
FE00000FE0
FE00001FE0
FE00001FC0
FE00003FC0
FE00007FC0
FE0000FF80
FE0003FF00
FE001FFF00
FFFFFFFE00
FFFFFFFC00
FFFFFFF000
FFFFFFE000
FFFFFF0000
FFFFF00000
FE00000000
FE00000000
FE00000000
FE00000000
FE00000000
FE00000000
FE00000000
FE00000000
FE00000000
FE00000000
FE00000000
FE00000000
FE00000000
FE00000000
FE00000000
FE00000000
FE00000000
FE00000000
FE00000000
FE00000000
FE00000000
FE00000000
ENDCHAR
STARTCHAR 0051
ENCODING 81
SWIDTH 600 0
DWIDTH 48 0
BBX 40 73 4 -14
BITMAP
0001FF8000
000FFFF000
003FFFFC00
007FFFFE00
00FFFFFF00
01FFFFFF80
03FF00FFC0
07FC003FE0
0FF8000FF0
0FF0000FF0
1FE00007F8
1FC00003F8
3FC00003FC
3F800001FC
3F800001FC
7F800001FE
7F000000FE
7F000000FE
7F000000FE
FF000000FF
FF000000FF
FE0000007F
FE0000007F
FE0000007F
FE0000007F
FE0000007F
FE0000007F
FE0000007F
FE0000007F
FE0000007F
FE0000007F
FE0000007F
FE0000007F
FE0000007F
FE0000007F
FE0000007F
FE0000007F
FE0000007F
FE0000007F
FF000000FF
FF000000FF
7F000000FE
7F000000FE
7F000000FE
7F800001FE
3F800001FC
3F800001FC
3FC00003FC
1FC00003F8
1FE00007F8
0FF0000FF0
0FF8000FF0
07FC003FE0
03FF00FFE0
03FFFFFFC0
01FFFFFF80
007FFFFF00
003FFFFE00
000FFFFE00
0001FFFF00
0000007F00
0000007F80
0000003F80
0000003FC0
0000001FC0
0000001FE0
0000000FF0
0000000FF0
00000007F8
00000007F8
00000003FC
00000003FC
00000001FE
ENDCHAR
STARTCHAR 0052
ENCODING 82
SWIDTH 600 0
DWIDTH 48 0
BBX 38 58 8 0
BITMAP
FFFFE00000
FFFFFE0000
FFFFFFC000
FFFFFFE000
FFFFFFF800
FFFFFFFC00
FE003FFC00
FE0007FE00
FE0001FF00
FE0000FF00
FE0000FF00
FE00007F80
FE00007F80
FE00007F80
FE00007F80
FE00003F80
FE00003F80
FE00003F80
FE00007F80
FE00007F80
FE00007F80
FE00007F00
FE00007F00
FE0000FF00
FE0001FE00
FE0003FE00
FE0007FC00
FE003FF800
FFFFFFF000
FFFFFFE000
FFFFFF8000
FFFFFF0000
FFFFFC0000
FFFFFE0000
FE00FF0000
FE007F0000
FE007F8000
FE003F8000
FE003FC000
FE001FE000
FE001FE000
FE000FF000
FE0007F000
FE0007F800
FE0003FC00
FE0003FC00
FE0001FE00
FE0001FE00
FE0000FF00
FE00007F80
FE00007F80
FE00003FC0
FE00003FC0
FE00001FE0
FE00000FE0
FE00000FF0
FE000007F8
FE000007FC
ENDCHAR
STARTCHAR 0053
ENCODING 83
SWIDTH 600 0
DWIDTH 48 0
BBX 35 60 7 -1
BITMAP
0003FFC000
003FFFFC00
00FFFFFF80
01FFFFFFC0
07FFFFFFC0
0FFFFFFF80
0FFE007F80
1FF0000F00
3FE0000100
3FC0000000
3F80000000
7F80000000
7F80000000
7F80000000
7F00000000
7F00000000
7F00000000
7F80000000
7F80000000
7F80000000
3FC0000000
3FE0000000
3FF0000000
1FFC000000
0FFF000000
0FFFC00000
07FFF00000
03FFFE0000
00FFFF8000
007FFFE000
001FFFF000
0007FFFC00
0001FFFE00
00007FFF00
00001FFF80
000007FFC0
000001FFC0
0000007FC0
0000003FE0
0000001FE0
0000001FE0
0000000FE0
0000000FE0
0000000FE0
0000000FE0
0000000FE0
0000000FE0
0000001FE0
0000001FE0
0000001FC0
0000003FC0
C000007FC0
F80001FF80
FF8007FF00
FFFFFFFE00
FFFFFFFC00
FFFFFFF800
FFFFFFF000
1FFFFF8000
00FFF80000
ENDCHAR
STARTCHAR 0054
ENCODING 84
SWIDTH 600 0
DWIDTH 48 0
BBX 40 58 4 0
BITMAP
FFFFFFFFFF
FFFFFFFFFF
FFFFFFFFFF
FFFFFFFFFF
FFFFFFFFFF
FFFFFFFFFF
0000FF0000
0000FF0000
0000FF0000
0000FF0000
0000FF0000
0000FF0000
0000FF0000
0000FF0000
0000FF0000
0000FF0000
0000FF0000
0000FF0000
0000FF0000
0000FF0000
0000FF0000
0000FF0000
0000FF0000
0000FF0000
0000FF0000
0000FF0000
0000FF0000
0000FF0000
0000FF0000
0000FF0000
0000FF0000
0000FF0000
0000FF0000
0000FF0000
0000FF0000
0000FF0000
0000FF0000
0000FF0000
0000FF0000
0000FF0000
0000FF0000
0000FF0000
0000FF0000
0000FF0000
0000FF0000
0000FF0000
0000FF0000
0000FF0000
0000FF0000
0000FF0000
0000FF0000
0000FF0000
0000FF0000
0000FF0000
0000FF0000
0000FF0000
0000FF0000
0000FF0000
ENDCHAR
STARTCHAR 0055
ENCODING 85
SWIDTH 600 0
DWIDTH 48 0
BBX 36 59 6 -1
BITMAP
FE000007F0
FE000007F0
FE000007F0
FE000007F0
FE000007F0
FE000007F0
FE000007F0
FE000007F0
FE000007F0
FE000007F0
FE000007F0
FE000007F0
FE000007F0
FE000007F0
FE000007F0
FE000007F0
FE000007F0
FE000007F0
FE000007F0
FE000007F0
FE000007F0
FE000007F0
FE000007F0
FE000007F0
FE000007F0
FE000007F0
FE000007F0
FE000007F0
FE000007F0
FE000007F0
FE000007F0
FE000007F0
FE000007F0
FE000007F0
FE000007F0
FE000007F0
FE000007F0
FE000007F0
FE000007F0
FE000007F0
FE000007F0
FE000007F0
FE000007F0
FE000007F0
FE00000FF0
FF00000FF0
7F00000FE0
7F00000FE0
7F80001FE0
3FC0003FC0
3FC0003FC0
1FF000FF80
1FFC03FF80
0FFFFFFF00
07FFFFFE00
03FFFFFC00
01FFFFF000
007FFFC000
000FFE0000
ENDCHAR
STARTCHAR 0056
ENCODING 86
SWIDTH 600 0
DWIDTH 48 0
BBX 44 58 2 0
BITMAP
FF0000000FF0
FF0000000FF0
7F0000000FE0
7F8000001FE0
7F8000001FE0
3F8000001FC0
3F8000001FC0
3FC000003FC0
1FC000003F80
1FC000003F80
1FE000007F80
0FE000007F00
0FE000007F00
0FE000007F00
07F00000FE00
07F00000FE00
07F00000FE00
03F80001FE00
03F80001FC00
03F80001FC00
01FC0001FC00
01FC0003F800
01FC0003F800
01FC0003F800
00FE0007F000
00FE0007F000
00FE0007F000
007F0007E000
007F000FE000
007F000FE000
003F800FE000
003F801FC000
003F801FC000
001F801FC000
001FC01F8000
001FC03F8000
000FC03F8000
000FE03F0000
000FE07F0000
0007E07F0000
0007E07E0000
0007F07E0000
0007F0FE0000
0003F0FC0000
0003F8FC0000
0003F8FC0000
0001F9FC0000
0001F9F80000
0001FDF80000
0000FDF80000
0000FFF00000
0000FFF00000
00007FF00000
00007FE00000
00007FE00000
00003FE00000
00003FC00000
00003FC00000
ENDCHAR
STARTCHAR 0057
ENCODING 87
SWIDTH 600 0
DWIDTH 48 0
BBX 44 58 2 0
BITMAP
FE00000007F0
FE00000007F0
FE00000007F0
FE00000007F0
FE00000007F0
7E00000007E0
7E00000007E0
7E00000007E0
7E00000007E0
7F00000007E0
7F0000000FE0
7F0000000FE0
7F0000000FE0
7F0000000FE0
3F0000000FE0
3F001FC00FC0
3F003FC00FC0
3F003FC00FC0
3F003FC00FC0
3F003FE00FC0
3F807FE00FC0
3F807FE00FC0
3F807FE01FC0
1F807FF01FC0
1F80FDF01FC0
1F80FDF01F80
1F80F9F01F80
1F80F9F01F80
1F81F9F81F80
1F81F8F81F80
1F81F8F81F80
1FC1F0F81F80
0FC1F0FC1F80
0FC3F07C1F80
0FC3F07C1F80
0FC3E07C3F00
0FC3E07E3F00
0FC7E07E3F00
0FC7E03E3F00
0FC7C03E3F00
0FC7C03F3F00
07C7C03F3F00
07CFC01F3F00
07CF801F3F00
07CF801F3F00
07EF801FBE00
07EF800FBE00
07FF800FBE00
07FF000FBE00
07FF000FBE00
03FF0007FE00
03FF0007FE00
03FE0007FE00
03FE0007FE00
03FE0003FE00
03FE0003FE00
03FC0003FC00
03FC0003FC00
ENDCHAR
STARTCHAR 0058
ENCODING 88
SWIDTH 600 0
DWIDTH 48 0
BBX 42 58 3 0
BITMAP
7F8000007F80
3FC000007F00
3FC00000FF00
1FE00001FE00
0FE00001FC00
0FF00003FC00
07F00003F800
07F80007F800
03F80007F000
01FC000FE000
01FC000FE000
00FE001FC000
00FF003FC000
007F003F8000
003F807F8000
003F807F0000
001FC0FE0000
001FC0FE0000
000FE1FC0000
000FE1FC0000
0007F3F80000
0003F3F00000
0003FFF00000
0001FFE00000
0001FFE00000
0000FFC00000
00007FC00000
00007F800000
00007F800000
00007F800000
0000FFC00000
0000FFC00000
0001FFE00000
0003FFF00000
0003FFF00000
0007F3F80000
0007F3F80000
000FE1FC0000
001FE0FE0000
001FC0FE0000
003F807F0000
003F807F0000
007F003F8000
00FF003FC000
00FE001FC000
01FE000FE000
01FC000FE000
03F80007F000
07F80007F800
07F00003F800
0FF00003FC00
0FE00001FC00
1FE00000FE00
3FC00000FF00
3F8000007F00
7F8000007F80
7F0000003F80
FF0000003FC0
ENDCHAR
STARTCHAR 0059
ENCODING 89
SWIDTH 600 0
DWIDTH 48 0
BBX 42 58 3 0
BITMAP
FF0000003FC0
7F0000003F80
7F8000007F80
3F8000007F00
3FC00000FF00
1FC00000FE00
1FE00000FE00
0FE00001FC00
0FF00001FC00
07F00003F800
07F00003F800
03F80007F000
03F80007F000
01FC000FE000
01FC000FE000
00FE001FC000
00FE001FC000
007F001F8000
007F003F8000
003F803F0000
003F807F0000
001F807E0000
001FC0FE0000
000FC0FC0000
000FE1FC0000
0007E1F80000
0007F3F80000
0003F3F00000
0003FBF00000
0001FFF00000
0001FFE00000
0000FFE00000
0000FFC00000
00007FC00000
00007F800000
00003F800000
00003F000000
00003F000000
00003F000000
00003F000000
00003F000000
00003F000000
00003F000000
00003F000000
00003F000000
00003F000000
00003F000000
00003F000000
00003F000000
00003F000000
00003F000000
00003F000000
00003F000000
00003F000000
00003F000000
00003F000000
00003F000000
00003F000000
ENDCHAR
STARTCHAR 005A
ENCODING 90
SWIDTH 600 0
DWIDTH 48 0
BBX 32 58 8 0
BITMAP
7FFFFFFF
7FFFFFFF
7FFFFFFF
7FFFFFFF
7FFFFFFF
7FFFFFFF
0000007F
000000FE
000000FE
000001FC
000003FC
000003F8
000007F8
000007F0
00000FF0
00000FE0
00001FC0
00001FC0
00003F80
00003F80
00007F00
0000FF00
0000FE00
0001FE00
0001FC00
0003FC00
0003F800
0007F800
0007F000
000FE000
000FE000
001FC000
001FC000
003F8000
007F8000
007F0000
00FF0000
00FE0000
01FE0000
01FC0000
03FC0000
03F80000
07F80000
07F00000
0FE00000
0FE00000
1FC00000
3FC00000
3F800000
7F800000
7F000000
FF000000
FFFFFFFF
FFFFFFFF
FFFFFFFF
FFFFFFFF
FFFFFFFF
FFFFFFFF
ENDCHAR
STARTCHAR 005B
ENCODING 91
SWIDTH 600 0
DWIDTH 48 0
BBX 18 70 19 -12
BITMAP
FFFFC0
FFFFC0
FFFFC0
FFFFC0
FFFFC0
FFFFC0
FE0000
FE0000
FE0000
FE0000
FE0000
FE0000
FE0000
FE0000
FE0000
FE0000
FE0000
FE0000
FE0000
FE0000
FE0000
FE0000
FE0000
FE0000
FE0000
FE0000
FE0000
FE0000
FE0000
FE0000
FE0000
FE0000
FE0000
FE0000
FE0000
FE0000
FE0000
FE0000
FE0000
FE0000
FE0000
FE0000
FE0000
FE0000
FE0000
FE0000
FE0000
FE0000
FE0000
FE0000
FE0000
FE0000
FE0000
FE0000
FE0000
FE0000
FE0000
FE0000
FE0000
FE0000
FE0000
FE0000
FE0000
FE0000
FFFFC0
FFFFC0
FFFFC0
FFFFC0
FFFFC0
FFFFC0
ENDCHAR
STARTCHAR 005C
ENCODING 92
SWIDTH 600 0
DWIDTH 48 0
BBX 28 58 10 0
BITMAP
FE000000
FE000000
7E000000
7F000000
7F000000
3F800000
3F800000
3F800000
1FC00000
1FC00000
0FC00000
0FE00000
0FE00000
07F00000
07F00000
07F00000
03F80000
03F80000
01F80000
01FC0000
01FC0000
00FE0000
00FE0000
00FE0000
007F0000
007F0000
003F8000
003F8000
003F8000
001FC000
001FC000
001FC000
000FE000
000FE000
0007F000
0007F000
0007F000
0003F800
0003F800
0001F800
0001FC00
0001FC00
0000FE00
0000FE00
0000FE00
00007F00
00007F00
00003F00
00003F80
00003F80
00001FC0
00001FC0
00001FC0
00000FE0
00000FE0
000007E0
000007F0
000007F0
ENDCHAR
STARTCHAR 005D
ENCODING 93
SWIDTH 600 0
DWIDTH 48 0
BBX 18 70 11 -13
BITMAP
FFFFC0
FFFFC0
FFFFC0
FFFFC0
FFFFC0
FFFFC0
001FC0
001FC0
001FC0
001FC0
001FC0
001FC0
001FC0
001FC0
001FC0
001FC0
001FC0
001FC0
001FC0
001FC0
001FC0
001FC0
001FC0
001FC0
001FC0
001FC0
001FC0
001FC0
001FC0
001FC0
001FC0
001FC0
001FC0
001FC0
001FC0
001FC0
001FC0
001FC0
001FC0
001FC0
001FC0
001FC0
001FC0
001FC0
001FC0
001FC0
001FC0
001FC0
001FC0
001FC0
001FC0
001FC0
001FC0
001FC0
001FC0
001FC0
001FC0
001FC0
001FC0
001FC0
001FC0
001FC0
001FC0
001FC0
FFFFC0
FFFFC0
FFFFC0
FFFFC0
FFFFC0
FFFFC0
ENDCHAR
STARTCHAR 005E
ENCODING 94
SWIDTH 600 0
DWIDTH 48 0
BBX 40 37 4 22
BITMAP
0000780000
00007C0000
0000FC0000
0000FE0000
0001FE0000
0001FF0000
0003FF0000
0003FF8000
0007FF8000
0007EFC000
000FCFC000
000FC7E000
001F87E000
001F83F000
001F03F000
003F01F800
003E01F800
007E00FC00
007E00FC00
00FC007E00
00FC007E00
01F8003F00
01F8003F80
03F0001F80
03F0001FC0
07E0000FC0
07E0000FE0
0FE00007E0
0FC00007F0
0FC00003F0
1F800003F8
1F800001F8
3F000001FC
3F000000FC
7E0000007E
7E0000007E
FC0000003F
ENDCHAR
STARTCHAR 005F
ENCODING 95
SWIDTH 600 0
DWIDTH 48 0
BBX 48 6 0 -12
BITMAP
FFFFFFFFFFFF
FFFFFFFFFFFF
FFFFFFFFFFFF
FFFFFFFFFFFF
FFFFFFFFFFFF
FFFFFFFFFFFF
ENDCHAR
STARTCHAR 0060
ENCODING 96
SWIDTH 600 0
DWIDTH 48 0
BBX 16 13 15 49
BITMAP
FF80
7F80
7FC0
3FC0
1FE0
0FF0
07F0
03F8
01FC
00FC
007E
003F
001F
ENDCHAR
STARTCHAR 0061
ENCODING 97
SWIDTH 600 0
DWIDTH 48 0
BBX 35 45 6 -1
BITMAP
000FFF0000
00FFFFE000
07FFFFF800
1FFFFFFC00
1FFFFFFE00
1FFFFFFF00
0FF003FF80
0F8000FF80
0600003FC0
0000001FC0
0000001FC0
0000000FE0
0000000FE0
0000000FE0
0000000FE0
0000000FE0
0000000FE0
0000000FE0
0007FFFFE0
007FFFFFE0
03FFFFFFE0
07FFFFFFE0
1FFFFFFFE0
3FFE000FE0
3FE0000FE0
7F80000FE0
7F00000FE0
FF00000FE0
FE00000FE0
FE00000FE0
FE00000FE0
FC00001FE0
FC00001FE0
FE00001FE0
FE00003FE0
FE00007FE0
FF0000FFE0
FF8003FFE0
7FE00FFFE0
7FFFFFEFE0
3FFFFFC7E0
1FFFFF87E0
0FFFFE07E0
03FFF807E0
007FE00000
ENDCHAR
STARTCHAR 0062
ENCODING 98
SWIDTH 600 0
DWIDTH 48 0
BBX 38 62 6 -1
BITMAP
FE00000000
FE00000000
FE00000000
FE00000000
FE00000000
FE00000000
FE00000000
FE00000000
FE00000000
FE00000000
FE00000000
FE00000000
FE00000000
FE00000000
FE00000000
FE00000000
FE00000000
FE00FF8000
FE07FFF000
FE1FFFF800
FE3FFFFE00
FE7FFFFF00
FEFFFFFF80
FFFE01FF80
FFF8007FC0
FFF0003FE0
FFE0001FE0
FFC0000FF0
FFC0000FF0
FF800007F0
FF800007F8
FF000007F8
FF000003F8
FF000003F8
FF000003F8
FF000003F8
FE000003F8
FE000003FC
FE000003FC
FE000003FC
FE000003FC
FE000003FC
FE000003F8
FF000003F8
FF000003F8
FF000003F8
FF000003F8
FF000007F8
FF800007F8
FF800007F0
FF80000FF0
FFC0000FF0
FFE0001FE0
FFF0003FE0
FFF8007FC0
FFFE01FF80
FEFFFFFF80
FE7FFFFF00
FC3FFFFE00
FC1FFFF800
FC07FFE000
0000FF8000
ENDCHAR
STARTCHAR 0063
ENCODING 99
SWIDTH 600 0
DWIDTH 48 0
BBX 33 45 7 -1
BITMAP
0001FFC000
000FFFFC00
007FFFFF80
00FFFFFF80
03FFFFFF80
07FFFFFF00
0FFF003F00
0FFC000700
1FF0000200
3FE0000000
3FC0000000
3F80000000
7F80000000
7F80000000
7F00000000
FF00000000
FF00000000
FF00000000
FE00000000
FE00000000
FE00000000
FE00000000
FE00000000
FE00000000
FE00000000
FE00000000
FE00000000
FE00000000
FF00000000
FF00000000
FF00000000
7F00000000
7F80000000
7F80000000
3FC0000000
3FE0000000
1FF0000080
1FF8000380
0FFF001F80
07FFFFFF80
03FFFFFF80
01FFFFFF80
007FFFFF80
001FFFFE00
0001FFC000
ENDCHAR
STARTCHAR 0064
ENCODING 100
SWIDTH 600 0
DWIDTH 48 0
BBX 38 62 4 -1
BITMAP
00000003FC
00000003FC
00000003FC
00000003FC
00000003FC
00000003FC
00000003FC
00000003FC
00000003FC
00000003FC
00000003FC
00000003FC
00000003FC
00000003FC
00000003FC
00000003FC
00000003FC
0003FE03FC
001FFF81FC
007FFFE1FC
01FFFFF1FC
03FFFFF9FC
07FFFFFDFC
0FFF01FFFC
0FFC007FFC
1FF0003FFC
1FE0001FFC
3FE0000FFC
3FC0000FFC
3F800007FC
7F800007FC
7F800003FC
7F800003FC
7F000003FC
7F000003FC
7F000003FC
FF000003FC
FF000003FC
FF000003FC
FF000003FC
FF000003FC
FF000003FC
FF000003FC
7F000003FC
7F000003FC
7F000003FC
7F000003FC
7F800003FC
7F800007FC
3F800007FC
3FC00007FC
3FC0000FFC
1FE0001FFC
1FF0001FFC
0FF8007FFC
0FFE01FFFC
07FFFFFDFC
03FFFFF9FC
01FFFFF1FC
007FFFE1FC
001FFF80FC
0003FE0000
ENDCHAR
STARTCHAR 0065
ENCODING 101
SWIDTH 600 0
DWIDTH 48 0
BBX 38 45 5 -1
BITMAP
0001FF8000
000FFFF000
003FFFFC00
00FFFFFE00
01FFFFFF00
03FFFFFF80
07FF00FFC0
0FFC003FE0
1FF0001FE0
1FE0000FF0
3FC00007F0
3FC00007F8
7F800003F8
7F800003F8
7F000001FC
7F000001FC
FF000001FC
FE000001FC
FFFFFFFFFC
FFFFFFFFFC
FFFFFFFFFC
FFFFFFFFFC
FFFFFFFFFC
FFFFFFFFFC
FE00000000
FE00000000
FE00000000
FE00000000
FF00000000
FF00000000
7F00000000
7F00000000
7F80000000
3FC0000000
3FC0000000
1FE0000000
1FF0000030
0FFC0000F0
07FF800FF0
03FFFFFFF0
01FFFFFFF0
007FFFFFF0
003FFFFFE0
0007FFFF00
0000FFF000
ENDCHAR
STARTCHAR 0066
ENCODING 102
SWIDTH 600 0
DWIDTH 48 0
BBX 41 61 5 0
BITMAP
0000007FF000
000007FFFF80
00001FFFFF00
00003FFFFF00
00007FFFFF00
0000FFFFFE00
0000FFC00E00
0001FF000000
0001FE000000
0001FC000000
0003FC000000
0003FC000000
0003FC000000
0003FC000000
0003F8000000
0003F8000000
0003F8000000
0003F8000000
01FFFFFFFC00
FFFFFFFFFC00
FFFFFFFFFC00
FFFFFFFFFC00
FFFFFFFFFC00
FFFFFFFFFC00
0003F8000000
0003F8000000
0003F8000000
0003F8000000
0003F8000000
0003F8000000
0003F8000000
0003F8000000
0003F8000000
0003F8000000
0003F8000000
0003F8000000
0003F8000000
0003F8000000
0003F8000000
0003F8000000
0003F8000000
0003F8000000
0003F8000000
0003F8000000
0003F8000000
0003F8000000
0003F8000000
0003F8000000
0003F8000000
0003F8000000
0003F8000000
0003F8000000
0003F8000000
0003F8000000
0003F8000000
0003F8000000
0003F8000000
0003F8000000
0003F8000000
0003F8000000
0003F8000000
ENDCHAR
STARTCHAR 0067
ENCODING 103
SWIDTH 600 0
DWIDTH 48 0
BBX 38 63 4 -19
BITMAP
0003FC0000
001FFF80FC
007FFFE0FC
00FFFFF1FC
03FFFFF9FC
03FFFFFDFC
07FE01FFFC
0FF8007FFC
1FF0001FFC
1FE0000FFC
1FC00007FC
3FC00007FC
3F800003FC
7F800003FC
7F800003FC
7F000003FC
7F000001FC
7F000001FC
7F000001FC
FF000001FC
FF000001FC
FF000001FC
FF000001FC
FF000001FC
FF000001FC
FF000001FC
7F000001FC
7F000001FC
7F000001FC
7F000001FC
7F800003FC
7F800003FC
3F800003FC
3FC00007FC
3FC00007FC
1FE0000FFC
1FF0001FFC
0FF8003FFC
07FF00FFFC
07FFFFFFFC
03FFFFFDFC
01FFFFF9FC
007FFFF1FC
001FFFC1FC
0003FE01FC
00000001FC
00000001FC
00000001F8
00000001F8
00000003F8
00000003F8
00000003F8
00000007F0
0000000FF0
1000001FF0
1E00003FE0
1FE001FFC0
1FFFFFFFC0
1FFFFFFF80
1FFFFFFF00
0FFFFFFC00
01FFFFF000
001FFF0000
ENDCHAR
STARTCHAR 0068
ENCODING 104
SWIDTH 600 0
DWIDTH 48 0
BBX 36 61 6 0
BITMAP
FF00000000
FF00000000
FF00000000
FF00000000
FF00000000
FF00000000
FF00000000
FF00000000
FF00000000
FF00000000
FF00000000
FF00000000
FF00000000
FF00000000
FF00000000
FF00000000
FF00000000
FF007FC000
FF03FFF800
FF0FFFFC00
FE1FFFFF00
FE3FFFFF80
FE7FFFFF80
FEFF01FFC0
FEF8007FE0
FFF0003FE0
FFE0001FE0
FFC0000FE0
FFC0000FF0
FF80000FF0
FF80000FF0
FF800007F0
FF000007F0
FF000007F0
FF000007F0
FF000007F0
FF000007F0
FF000007F0
FF000007F0
FF000007F0
FF000007F0
FF000007F0
FF000007F0
FF000007F0
FF000007F0
FF000007F0
FF000007F0
FF000007F0
FF000007F0
FF000007F0
FF000007F0
FF000007F0
FF000007F0
FF000007F0
FF000007F0
FF000007F0
FF000007F0
FF000007F0
FF000007F0
FF000007F0
FF000007F0
ENDCHAR
STARTCHAR 0069
ENCODING 105
SWIDTH 600 0
DWIDTH 48 0
BBX 37 61 6 0
BITMAP
0000F80000
0001FC0000
0003FE0000
0003FE0000
0003FF0000
0003FF0000
0003FE0000
0003FE0000
0001FC0000
0000F80000
0000000000
0000000000
0000000000
0000000000
0000000000
0000000000
0000000000
0000000000
3FFFFE0000
3FFFFE0000
3FFFFE0000
3FFFFE0000
3FFFFE0000
1FFFFE0000
0000FE0000
0000FE0000
0000FE0000
0000FE0000
0000FE0000
0000FE0000
0000FE0000
0000FE0000
0000FE0000
0000FE0000
0000FE0000
0000FE0000
0000FE0000
0000FE0000
0000FE0000
0000FE0000
0000FE0000
0000FE0000
0000FE0000
0000FE0000
0000FE0000
0000FE0000
0000FE0000
0000FE0000
0000FE0000
0000FE0000
0000FE0000
0000FE0000
0000FE0000
0000FE0000
0000FE0000
003FFFF000
FFFFFFFFF8
FFFFFFFFF8
FFFFFFFFF8
FFFFFFFFF8
FFFFFFFFF8
ENDCHAR
STARTCHAR 006A
ENCODING 106
SWIDTH 600 0
DWIDTH 48 0
BBX 27 80 5 -19
BITMAP
00000F80
00001FC0
00003FE0
00003FE0
00007FE0
00007FE0
00003FE0
00003FE0
00001FC0
00000F80
00000000
00000000
00000000
00000000
00000000
00000000
00000000
00000000
03FFFFE0
03FFFFE0
03FFFFE0
03FFFFE0
03FFFFE0
001FFFE0
00000FE0
00000FE0
00000FE0
00000FE0
00000FE0
00000FE0
00000FE0
00000FE0
00000FE0
00000FE0
00000FE0
00000FE0
00000FE0
00000FE0
00000FE0
00000FE0
00000FE0
00000FE0
00000FE0
00000FE0
00000FE0
00000FE0
00000FE0
00000FE0
00000FE0
00000FE0
00000FE0
00000FE0
00000FE0
00000FE0
00000FE0
00000FE0
00000FE0
00000FE0
00000FE0
00000FE0
00000FE0
00000FE0
00000FE0
00000FE0
00000FE0
00001FE0
00001FE0
00001FE0
00001FC0
00003FC0
00003FC0
00007FC0
8000FF80
F003FF80
FFFFFF00
FFFFFE00
FFFFFC00
FFFFF800
FFFFE000
0FFF0000
ENDCHAR
STARTCHAR 006B
ENCODING 107
SWIDTH 600 0
DWIDTH 48 0
BBX 38 61 8 0
BITMAP
FF00000000
FF00000000
FF00000000
FF00000000
FF00000000
FF00000000
FF00000000
FF00000000
FF00000000
FF00000000
FF00000000
FF00000000
FF00000000
FF00000000
FF00000000
FF00000000
FF00000000
FF00000000
FF00001FF0
FF00003FE0
FF00003FC0
FF00007F80
FF0000FF00
FF0001FF00
FF0003FE00
FF0007FC00
FF000FF800
FF001FF000
FF003FE000
FF003FC000
FF007F8000
FF00FF0000
FF01FE0000
FE03FC0000
FE07FC0000
FE0FF80000
FE1FF00000
FE1FF00000
FE3FF80000
FE7FF80000
FEFFFC0000
FFFDFE0000
FFF8FF0000
FFF0FF0000
FFE07F8000
FFC03FC000
FF801FE000
FF001FE000
FF000FF000
FF0007F800
FF0003FC00
FF0003FC00
FF0001FE00
FF0000FF00
FF00007F80
FF00007F80
FF00003FC0
FF00001FE0
FF00001FF0
FF00000FF0
FF000007FC
ENDCHAR
STARTCHAR 006C
ENCODING 108
SWIDTH 600 0
DWIDTH 48 0
BBX 37 61 6 0
BITMAP
7FFFFE0000
7FFFFE0000
7FFFFE0000
7FFFFE0000
7FFFFE0000
7FFFFE0000
0000FE0000
0000FE0000
0000FE0000
0000FE0000
0000FE0000
0000FE0000
0000FE0000
0000FE0000
0000FE0000
0000FE0000
0000FE0000
0000FE0000
0000FE0000
0000FE0000
0000FE0000
0000FE0000
0000FE0000
0000FE0000
0000FE0000
0000FE0000
0000FE0000
0000FE0000
0000FE0000
0000FE0000
0000FE0000
0000FE0000
0000FE0000
0000FE0000
0000FE0000
0000FE0000
0000FE0000
0000FE0000
0000FE0000
0000FE0000
0000FE0000
0000FE0000
0000FE0000
0000FE0000
0000FE0000
0000FE0000
0000FE0000
0000FE0000
0000FE0000
0000FE0000
0000FE0000
0000FE0000
0000FE0000
0000FE0000
0000FE0000
003FFFF800
FFFFFFFFF8
FFFFFFFFF8
FFFFFFFFF8
FFFFFFFFF8
FFFFFFFFF8
ENDCHAR
STARTCHAR 006D
ENCODING 109
SWIDTH 600 0
DWIDTH 48 0
BBX 40 44 4 0
BITMAP
001FC00FC0
F87FE03FF0
F8FFF07FF8
FDFFF8FFFC
FDFFFDFFFC
FFFFFDFFFE
FFC3FFE0FE
FF81FFC0FE
FF00FFC07F
FF00FF807F
FF00FF807F
FE007F007F
FE007F003F
FE007F003F
FE007F003F
FE007F003F
FE007F003F
FE007E003F
FC007E003F
FC007E003F
FC007E003F
FC007E003F
FC007E003F
FC007E003F
FC007E003F
FC007E003F
FC007E003F
FC007E003F
FC007E003F
FC007E003F
FC007E003F
FC007E003F
FC007E003F
FC007E003F
FC007E003F
FC007E003F
FC007E003F
FC007E003F
FC007E003F
FC007E003F
FC007E003F
FC007E003F
FC007E003F
FC007E003F
ENDCHAR
STARTCHAR 006E
ENCODING 110
SWIDTH 600 0
DWIDTH 48 0
BBX 36 44 6 0
BITMAP
00007FC000
FC03FFF800
FC0FFFFE00
FE3FFFFF00
FE7FFFFF80
FE7FFFFFC0
FEFE00FFC0
FFF8003FE0
FFF0001FE0
FFE0001FE0
FFC0000FF0
FFC0000FF0
FF80000FF0
FF800007F0
FF000007F0
FF000007F0
FF000007F0
FF000007F0
FF000007F0
FF000007F0
FF000007F0
FF000007F0
FF000007F0
FF000007F0
FF000007F0
FF000007F0
FF000007F0
FF000007F0
FF000007F0
FF000007F0
FF000007F0
FF000007F0
FF000007F0
FF000007F0
FF000007F0
FF000007F0
FF000007F0
FF000007F0
FF000007F0
FF000007F0
FF000007F0
FF000007F0
FF000007F0
FF000007F0
ENDCHAR
STARTCHAR 006F
ENCODING 111
SWIDTH 600 0
DWIDTH 48 0
BBX 40 45 4 -1
BITMAP
0001FF8000
000FFFF000
003FFFFC00
00FFFFFF00
01FFFFFF80
03FFFFFFC0
07FF00FFE0
0FF8003FF0
0FF0000FF0
1FE00007F8
1FC00007F8
3FC00003FC
3F800003FC
7F800001FC
7F800001FE
7F000000FE
7F000000FE
7F000000FE
7F000000FE
FF000000FE
FF000000FF
FF000000FF
FF000000FF
FF000000FF
FF000000FF
7F000000FE
7F000000FE
7F000000FE
7F000000FE
7F000001FE
7F800001FE
3F800001FC
3F800003FC
3FC00003FC
1FE00007F8
1FE00007F8
0FF0000FF0
0FFC003FF0
07FF00FFE0
03FFFFFFC0
01FFFFFF80
00FFFFFF00
003FFFFC00
000FFFF000
0001FF8000
ENDCHAR
STARTCHAR 0070
ENCODING 112
SWIDTH 600 0
DWIDTH 48 0
BBX 38 63 6 -19
BITMAP
0000FF8000
FC07FFF000
FE1FFFF800
FE3FFFFE00
FE7FFFFF00
FEFFFFFF80
FEFE01FFC0
FFF8007FC0
FFE0003FE0
FFC0001FE0
FFC0000FF0
FF80000FF0
FF800007F0
FF000007F8
FF000007F8
FF000003F8
FF000003F8
FF000003F8
FF000003F8
FF000003F8
FF000003FC
FF000003FC
FF000003FC
FF000003FC
FF000003FC
FF000003F8
FF000003F8
FF000003F8
FF000003F8
FF000003F8
FF000007F8
FF800007F8
FF800007F0
FF80000FF0
FFC0000FF0
FFE0001FE0
FFE0003FE0
FFF8007FC0
FFFE01FF80
FEFFFFFF80
FE7FFFFF00
FE3FFFFE00
FE0FFFF800
FE07FFF000
FF00FF8000
FF00000000
FF00000000
FF00000000
FF00000000
FF00000000
FF00000000
FF00000000
FF00000000
FF00000000
FF00000000
FF00000000
FF00000000
FF00000000
FF00000000
FF00000000
FF00000000
FF00000000
FF00000000
ENDCHAR
STARTCHAR 0071
ENCODING 113
SWIDTH 600 0
DWIDTH 48 0
BBX 38 63 4 -19
BITMAP
0003FC0000
001FFF80FC
007FFFC0FC
00FFFFF1FC
03FFFFF9FC
03FFFFFDFC
07FE01FDFC
0FF8007FFC
1FF0001FFC
1FE0001FFC
3FC0000FFC
3FC00007FC
3F800007FC
7F800007FC
7F800003FC
7F000003FC
7F000003FC
7F000003FC
7F000003FC
FF000003FC
FF000003FC
FF000003FC
FF000003FC
FF000003FC
FF000003FC
FF000003FC
7F000003FC
7F000003FC
7F000003FC
7F000003FC
7F800003FC
7F800003FC
3F800007FC
3FC00007FC
3FC0000FFC
1FE0000FFC
1FF0001FFC
0FF8007FFC
07FE01FDFC
07FFFFFDFC
03FFFFF9FC
01FFFFF1FC
007FFFE1FC
001FFF83FC
0007FC03FC
00000003FC
00000003FC
00000003FC
00000003FC
00000003FC
00000003FC
00000003FC
00000003FC
00000003FC
00000003FC
00000003FC
00000003FC
00000003FC
00000003FC
00000003FC
00000003FC
00000003FC
00000003FC
ENDCHAR
STARTCHAR 0072
ENCODING 114
SWIDTH 600 0
DWIDTH 48 0
BBX 41 44 5 0
BITMAP
0000000FF800
7FFFE03FFF00
7FFFE07FFF80
7FFFE0FFFF00
7FFFE1FFFF00
3FFFE3FFFF00
003FE7F80E00
0007F7E00200
0007FF800000
0007FF000000
0007FF000000
0007FE000000
0007FE000000
0007FC000000
0007FC000000
0007F8000000
0007F8000000
0007F8000000
0007F8000000
0007F0000000
0007F0000000
0007F0000000
0007F0000000
0007F0000000
0007F0000000
0007F0000000
0007F0000000
0007F0000000
0007F0000000
0007F0000000
0007F0000000
0007F0000000
0007F0000000
0007F0000000
0007F0000000
0007F0000000
0007F0000000
0007F0000000
01FFFFC00000
FFFFFFFF8000
FFFFFFFF8000
FFFFFFFF8000
FFFFFFFF8000
FFFFFFFF8000
ENDCHAR
STARTCHAR 0073
ENCODING 115
SWIDTH 600 0
DWIDTH 48 0
BBX 32 45 8 -1
BITMAP
000FFF00
00FFFFF0
03FFFFFC
07FFFFFE
0FFFFFFC
1FFFFFFC
3FF001FC
3FC00038
7F800008
7F000000
7F000000
7F000000
7F000000
7F800000
7F800000
3FC00000
3FF00000
1FFC0000
0FFF0000
07FFE000
03FFF800
00FFFE00
003FFF80
000FFFE0
0003FFF0
0000FFF8
00003FFC
00000FFE
000003FE
000001FE
000000FE
000000FF
000000FF
000000FF
000000FE
000000FE
C00001FE
F80003FE
FF000FFC
FFFFFFFC
FFFFFFF8
FFFFFFF0
7FFFFFC0
1FFFFF00
00FFF000
ENDCHAR
STARTCHAR 0074
ENCODING 116
SWIDTH 600 0
DWIDTH 48 0
BBX 37 56 4 -1
BITMAP
0003E00000
0007E00000
0007E00000
0007E00000
0007E00000
0007E00000
0007E00000
0007E00000
0007E00000
000FE00000
000FE00000
000FE00000
07FFFFFFF0
FFFFFFFFF0
FFFFFFFFF0
FFFFFFFFF0
FFFFFFFFF0
FFFFFFFFF0
000FE00000
000FE00000
000FE00000
000FE00000
000FE00000
000FE00000
000FE00000
000FE00000
000FE00000
000FE00000
000FE00000
000FE00000
000FE00000
000FE00000
000FE00000
000FE00000
000FE00000
000FE00000
000FE00000
000FE00000
000FE00000
000FE00000
000FE00000
000FE00000
000FE00000
000FF00000
000FF00000
000FF00000
0007F80000
0007F80000
0007FC0000
0003FF0038
0003FFFFF8
0001FFFFF8
0000FFFFF8
00007FFFF8
00001FFFF8
000001FFC0
ENDCHAR
STARTCHAR 0075
ENCODING 117
SWIDTH 600 0
DWIDTH 48 0
BBX 36 44 6 -1
BITMAP
FE00000FF0
FE00000FF0
FE00000FF0
FE00000FF0
FE00000FF0
FE00000FF0
FE00000FF0
FE00000FF0
FE00000FF0
FE00000FF0
FE00000FF0
FE00000FF0
FE00000FF0
FE00000FF0
FE00000FF0
FE00000FF0
FE00000FF0
FE00000FF0
FE00000FF0
FE00000FF0
FE00000FF0
FE00000FF0
FE00000FF0
FE00000FF0
FE00000FF0
FE00000FF0
FE00000FF0
FE00000FF0
FE00000FF0
FE00000FF0
FE00001FF0
FF00001FF0
FF00001FF0
FF00003FF0
7F80007FF0
7F80007FF0
7FC001FFF0
3FF007F7F0
3FFFFFF7F0
1FFFFFE7F0
0FFFFFC7F0
07FFFF83F0
01FFFE03F0
003FF00000
ENDCHAR
STARTCHAR 0076
ENCODING 118
SWIDTH 600 0
DWIDTH 48 0
BBX 40 43 4 0
BITMAP
FE0000007F
FE000000FF
7F000000FE
7F000000FE
7F800001FE
3F800001FC
3F800001FC
3FC00003FC
1FC00003F8
1FC00003F8
1FE00007F0
0FE00007F0
0FE00007F0
07F0000FE0
07F0000FE0
07F0001FE0
03F8001FC0
03F8001FC0
03F8003F80
01FC003F80
01FC003F80
00FE007F00
00FE007F00
00FE007F00
007F00FE00
007F00FE00
007F00FC00
003F81FC00
003F81FC00
003F81F800
001FC3F800
001FC3F800
000FC3F000
000FE7F000
000FE7E000
0007E7E000
0007FFE000
0007FFC000
0003FFC000
0003FFC000
0001FF8000
0001FF8000
0001FF8000
ENDCHAR
STARTCHAR 0077
ENCODING 119
SWIDTH 600 0
DWIDTH 48 0
BBX 46 43 1 0
BITMAP
FE00000001FC
7E00000001FC
7E00000001F8
7F00000001F8
7F00000001F8
7F00000003F8
7F00000003F8
7F00000003F8
3F001FE003F0
3F001FE003F0
3F803FF003F0
3F803FF007F0
3F803FF007F0
3F807FF007F0
1F807FF807E0
1F807FF807E0
1F807FF807E0
1FC0FCFC0FE0
1FC0FCFC0FE0
1FC0FCFC0FE0
0FC1FCFC0FC0
0FC1F87E0FC0
0FC1F87E0FC0
0FC1F87E0FC0
0FE3F07E1FC0
0FE3F03F1FC0
07E3F03F1F80
07E3F03F1F80
07E7E03F1F80
07E7E01F9F80
07E7E01F9F80
07E7E01F9F80
07E7C01F9F80
03EFC00FDF00
03EFC00FDF00
03EFC00FFF00
03FF800FFF00
03FF8007FF00
03FF8007FF00
01FF0007FE00
01FF0007FE00
01FF0003FE00
01FF0003FE00
ENDCHAR
STARTCHAR 0078
ENCODING 120
SWIDTH 600 0
DWIDTH 48 0
BBX 40 43 4 0
BITMAP
FF800001FF
7FC00003FE
3FC00003FC
1FE00007F8
0FF0000FF0
0FF0000FF0
07F8001FE0
03FC003FC0
01FC003F80
01FE007F80
00FF00FF00
007F81FE00
007F81FC00
003FC3FC00
001FE7F800
000FE7F000
000FFFF000
0007FFE000
0003FFC000
0001FF8000
0001FF8000
0000FF0000
0001FF8000
0003FFC000
0007FFE000
0007FFE000
000FFFF000
001FE7F800
003FC3F800
003FC3FC00
007F81FE00
00FF00FF00
01FE007F00
01FE007F80
03FC003FC0
07F8001FE0
0FF0000FE0
0FF0000FF0
1FE00007F8
3FC00003FC
7FC00003FC
7F800001FE
FF000000FF
ENDCHAR
STARTCHAR 0079
ENCODING 121
SWIDTH 600 0
DWIDTH 48 0
BBX 40 62 4 -19
BITMAP
FE0000007F
FE000000FF
7F000000FE
7F000000FE
7F000001FE
3F800001FC
3F800001FC
1FC00003FC
1FC00003F8
0FE00003F8
0FE00007F0
0FE00007F0
07F00007F0
07F0000FE0
03F8000FE0
03F8000FE0
03F8001FC0
01FC001FC0
01FC001F80
00FE003F80
00FE003F80
007E003F00
007F007F00
007F007F00
003F807E00
003F80FE00
001F80FC00
001FC0FC00
000FC1FC00
000FE1F800
000FE1F800
0007E3F800
0007F3F000
0003F3F000
0003F3E000
0003F7E000
0001FFE000
0001FFC000
0000FFC000
0000FFC000
00007F8000
00007F8000
00007F0000
00007F0000
00007F0000
00007E0000
0000FE0000
0000FE0000
0001FC0000
0001FC0000
0003F80000
0003F80000
0007F80000
0007F00000
000FE00000
003FE00000
7FFFC00000
7FFFC00000
7FFF800000
7FFE000000
7FFC000000
3FE0000000
ENDCHAR
STARTCHAR 007A
ENCODING 122
SWIDTH 600 0
DWIDTH 48 0
BBX 34 43 7 0
BITMAP
7FFFFFFF80
7FFFFFFF80
7FFFFFFF80
7FFFFFFF80
7FFFFFFF80
7FFFFFFF80
0000007F80
000000FF00
000001FE00
000001FE00
000003FC00
000007F800
00000FF000
00001FE000
00001FE000
00003FC000
00007F8000
0000FF0000
0000FE0000
0001FE0000
0003FC0000
0007F80000
000FF00000
000FF00000
001FE00000
003FC00000
007F800000
007F000000
00FF000000
01FE000000
03FC000000
07F8000000
07F0000000
0FF0000000
1FE0000000
3FC0000000
3F80000000
7FFFFFFFC0
FFFFFFFFC0
FFFFFFFFC0
FFFFFFFFC0
FFFFFFFFC0
FFFFFFFFC0
ENDCHAR
STARTCHAR 007B
ENCODING 123
SWIDTH 600 0
DWIDTH 48 0
BBX 26 70 11 -12
BITMAP
000007C0
00007FC0
0001FFC0
0003FFC0
0007FFC0
000FFFC0
001FF800
001FF000
001FC000
003FC000
003F8000
003F8000
003F8000
003F8000
003F8000
003F8000
003F8000
003F8000
003F8000
003F8000
003F8000
003F8000
003F8000
003F8000
003F8000
003F8000
003F8000
003F8000
007F0000
00FF0000
01FF0000
07FE0000
FFFC0000
FFF00000
FFC00000
FF800000
FFF00000
FFFC0000
07FE0000
01FE0000
00FF0000
007F0000
007F8000
003F8000
003F8000
003F8000
003F8000
003F8000
003F8000
003F8000
003F8000
003F8000
003F8000
003F8000
003F8000
003F8000
003F8000
003F8000
003F8000
003F8000
003FC000
003FC000
001FE000
001FF800
000FFFC0
0007FFC0
0003FFC0
0001FFC0
00007FC0
00000FC0
ENDCHAR
STARTCHAR 007C
ENCODING 124
SWIDTH 600 0
DWIDTH 48 0
BBX 6 80 21 -19
BITMAP
FC
FC
FC
FC
FC
FC
FC
FC
FC
FC
FC
FC
FC
FC
FC
FC
FC
FC
FC
FC
FC
FC
FC
FC
FC
FC
FC
FC
FC
FC
FC
FC
FC
FC
FC
FC
FC
FC
FC
FC
FC
FC
FC
FC
FC
FC
FC
FC
FC
FC
FC
FC
FC
FC
FC
FC
FC
FC
FC
FC
FC
FC
FC
FC
FC
FC
FC
FC
FC
FC
FC
FC
FC
FC
FC
FC
FC
FC
FC
FC
ENDCHAR
STARTCHAR 007D
ENCODING 125
SWIDTH 600 0
DWIDTH 48 0
BBX 26 70 11 -14
BITMAP
FC000000
FF800000
FFE00000
FFF00000
FFF80000
FFFC0000
07FE0000
01FE0000
00FE0000
00FF0000
007F0000
007F0000
007F0000
007F0000
007F0000
007F0000
007F0000
007F0000
007F0000
007F0000
007F0000
007F0000
007F0000
007F0000
007F0000
007F0000
007F0000
007F0000
003F8000
003FC000
003FE000
001FF800
000FFFC0
0003FFC0
00007FC0
0000FFC0
0003FFC0
000FFFC0
001FF800
003FE000
003FC000
003F8000
007F0000
007F0000
007F0000
007F0000
007F0000
007F0000
007F0000
007F0000
007F0000
007F0000
007F0000
007F0000
007F0000
007F0000
007F0000
007F0000
007F0000
007F0000
00FF0000
00FE0000
03FE0000
07FE0000
FFFC0000
FFF80000
FFF00000
FFE00000
FF800000
FC000000
ENDCHAR
STARTCHAR 007E
ENCODING 126
SWIDTH 600 0
DWIDTH 48 0
BBX 36 14 6 23
BITMAP
01F80001F0
07FE0001F0
0FFF0001F0
1FFFC003E0
3FFFE003E0
3F0FF003E0
7E03F803E0
7C01FE07C0
7C00FF0FC0
78007FFF80
F8003FFF80
F8001FFF00
F80007FE00
F80001F800
ENDCHAR
STARTCHAR 00A0
ENCODING 160
SWIDTH 600 0
DWIDTH 48 0
BBX 0 0 0 0
BITMAP
ENDCHAR
STARTCHAR 00A1
ENCODING 161
SWIDTH 600 0
DWIDTH 48 0
BBX 10 59 19 -16
BITMAP
1E00
7F80
7F80
FFC0
FFC0
FFC0
FFC0
FFC0
7F80
7F80
1E00
0000
0000
0000
0000
0000
0000
0000
3F00
3F00
3F00
3F00
3F00
3F00
3F00
3F00
3F00
3F00
3F00
3F00
7F00
7F00
7F00
7F80
7F80
7F80
7F80
7F80
7F80
7F80
7F80
7F80
7F80
7F80
7F80
7F80
7F80
7F80
7F80
7F80
7F80
7F80
7F80
7F80
7F80
7F80
7F80
7F80
7F80
ENDCHAR
STARTCHAR 00A2
ENCODING 162
SWIDTH 600 0
DWIDTH 48 0
BBX 34 59 7 -1
BITMAP
00007C0000
00007C0000
00007C0000
00007C0000
00007C0000
00007C0000
0000FFE000
000FFFFE00
003FFFFFC0
00FFFFFF80
01FFFFFF80
03FFFFFF80
07FF803F00
0FFC000300
0FF0000000
1FE0000000
3FC0000000
3FC0000000
3F80000000
7F80000000
7F00000000
7F00000000
7F00000000
7F00000000
FF00000000
FF00000000
FE00000000
FE00000000
FE00000000
FE00000000
FE00000000
FE00000000
FF00000000
FF00000000
7F00000000
7F00000000
7F00000000
7F80000000
7F80000000
3FC0000000
3FC0000000
1FE0000000
1FF0000000
0FFC000180
0FFF001F80
07FFFFFF80
03FFFFFF80
00FFFFFF80
007FFFFF80
001FFFFE00
0001FFF000
00007C0000
00007C0000
00007C0000
00007C0000
00007C0000
00007C0000
00007C0000
00007C0000
ENDCHAR
STARTCHAR 00A3
ENCODING 163
SWIDTH 600 0
DWIDTH 48 0
BBX 35 59 7 0
BITMAP
00003FF000
0001FFFE00
0003FFFF80
000FFFFFC0
001FFFFFC0
001FFFFF80
003FE01F80
007FC00300
007F800100
007F000000
00FF000000
00FE000000
00FE000000
00FE000000
00FE000000
00FE000000
00FE000000
00FE000000
00FE000000
00FE000000
00FE000000
00FE000000
00FE000000
00FE000000
00FE000000
00FE000000
00FE000000
00FE000000
FFFFFFF800
FFFFFFF800
FFFFFFF800
FFFFFFF800
FFFFFFF800
FFFFFFF800
00FE000000
00FE000000
00FE000000
00FE000000
00FE000000
00FE000000
00FE000000
00FE000000
00FE000000
00FE000000
00FC000000
01FC000000
01FC000000
01FC000000
01F8000000
03F8000000
07F0000000
0FE0000000
1FE0000000
7FFFFFFFE0
FFFFFFFFE0
FFFFFFFFE0
FFFFFFFFE0
FFFFFFFFE0
FFFFFFFFE0
ENDCHAR
STARTCHAR 00A4
ENCODING 164
SWIDTH 600 0
DWIDTH 48 0
BBX 36 36 6 11
BITMAP
1000000080
38000001C0
7C03FC03E0
FE0FFF07F0
FF3FFFCFF0
7FFFFFFFE0
3FFFFFFFC0
1FFFFFFF80
0FFC03FF00
07F000FE00
0FE0007F00
0FC0003F00
1F80001F80
1F00000F80
1F00000FC0
3F00000FC0
3F000007C0
3F000007C0
3F000007C0
3F000007C0
3F00000FC0
3F00000FC0
1F00000F80
1F80001F80
0FC0001F80
0FE0003F00
07F000FE00
0FFC03FF00
1FFFFFFF80
3FFFFFFFC0
7FFFFFFFE0
FF3FFFFFE0
FE0FFF8FF0
7C03FC07E0
38000001C0
1000000080
ENDCHAR
STARTCHAR 00A5
ENCODING 165
SWIDTH 600 0
DWIDTH 48 0
BBX 42 58 3 0
BITMAP
FE0000001FC0
7F0000003F80
7F0000003F80
3F8000007F00
3F8000007F00
1FC00000FE00
1FC00000FE00
0FE00001FC00
0FE00001FC00
0FF00003F800
07F00003F800
07F80007F000
03F80007F000
03FC000FE000
01FC000FE000
01FE001FC000
00FE001FC000
00FF003F8000
007F003F8000
007F007F0000
003F807F0000
003F80FE0000
001FC0FE0000
001FC0FC0000
000FE1FC0000
000FE1F80000
0007F3F80000
0007F3F00000
0003FFF00000
0003FFE00000
0001FFE00000
03FFFFFFF000
03FFFFFFF000
03FFFFFFF000
03FFFFFFF000
03FFFFFFF000
00007F000000
00007F000000
00007F000000
00007F000000
00007F000000
00007F000000
00007F000000
03FFFFFFF000
03FFFFFFF000
03FFFFFFF000
03FFFFFFF000
03FFFFFFF000
00007F000000
00007F000000
00007F000000
00007F000000
00007F000000
00007F000000
00007F000000
00007F000000
00007F000000
00007F000000
ENDCHAR
STARTCHAR 00A6
ENCODING 166
SWIDTH 600 0
DWIDTH 48 0
BBX 6 80 21 -19
BITMAP
FC
FC
FC
FC
FC
FC
FC
FC
FC
FC
FC
FC
FC
FC
FC
FC
FC
FC
FC
FC
FC
FC
FC
FC
FC
FC
FC
FC
FC
FC
FC
00
00
00
00
00
00
00
00
00
00
00
00
00
00
00
00
00
00
FC
FC
FC
FC
FC
FC
FC
FC
FC
FC
FC
FC
FC
FC
FC
FC
FC
FC
FC
FC
FC
FC
FC
FC
FC
FC
FC
FC
FC
FC
FC
ENDCHAR
STARTCHAR 00A7
ENCODING 167
SWIDTH 600 0
DWIDTH 48 0
BBX 30 62 9 -1
BITMAP
003FFC00
01FFFFC0
07FFFFF8
0FFFFFF8
1FFFFFF8
3FE007F0
7F8000F0
7F000030
7E000000
7E000000
7E000000
7E000000
7F000000
7F800000
7FC00000
3FF00000
1FFC0000
1FFF0000
0FFFE000
03FFF800
03FFFE00
07FFFF80
1FFFFFC0
3F81FFE0
3F003FF0
7E000FF8
7E0007F8
7C0003FC
FC0001FC
FC0000FC
FC0000FC
FC0000FC
7E0000FC
7F0000FC
7F8000FC
3FE001F8
1FF801F8
1FFE07F0
07FF8FE0
03FFFFE0
00FFFF80
003FFF00
0007FFC0
0001FFE0
00007FF0
00001FF8
000007F8
000003FC
000001FC
000001FC
000000FC
000000FC
000001FC
000001FC
C00003F8
F80007F8
FF003FF0
FFFFFFF0
FFFFFFC0
FFFFFF80
3FFFFE00
03FFE000
ENDCHAR
STARTCHAR 00A8
ENCODING 168
SWIDTH 600 0
DWIDTH 48 0
BBX 27 9 11 50
BITMAP
3C000F00
FE001FC0
FF003FC0
FF003FE0
FF003FE0
FF003FE0
FF003FC0
FE001FC0
3C000F00
ENDCHAR
STARTCHAR 00A9
ENCODING 169
SWIDTH 600 0
DWIDTH 48 0
BBX 40 41 4 8
BITMAP
0001FF8000
000FFFF800
007FFFFE00
00FFFFFF00
03FE00FFC0
07F0001FE0
0FC00007F0
0F800001F8
1F007F80F8
3E01FFF07C
3C07FFF07C
7C07FFE03E
780FC0E01E
F81F80001F
F01F00001F
F03E00000F
F03E00000F
F03C00000F
F03C00000F
F03C00000F
F03C00000F
F03C00000F
F03C00000F
F03C00000F
F03E00000F
F03E00000F
F83F00001F
F81F00001E
781FC0601E
7C0FFFE03E
3E07FFE03C
3E01FFE07C
1F007F80F8
1F800001F0
0FE00007F0
07F8000FE0
03FF007FC0
00FFFFFF00
007FFFFE00
001FFFF800
0001FF8000
ENDCHAR
STARTCHAR 00AA
ENCODING 170
SWIDTH 600 0
DWIDTH 48 0
BBX 22 27 12 31
BITMAP
01FF00
0FFFE0
3FFFF0
3FFFF8
1F03F8
1800FC
00007C
00007C
00007C
00007C
00007C
01FFFC
0FFFFC
1FFFFC
3FFFFC
7F007C
7C007C
FC007C
F8007C
F8007C
F800FC
FC00FC
7C03FC
7FFFFC
3FFFBC
1FFE3C
07F83C
ENDCHAR
STARTCHAR 00AB
ENCODING 171
SWIDTH 600 0
DWIDTH 48 0
BBX 34 34 7 4
BITMAP
0004000400
000F000E00
001F801F80
001FC03FC0
003F807F80
007F807F00
00FF00FE00
01FE01FE00
01FC03FC00
03F807F800
07F80FF000
0FF00FE000
1FE01FE000
3FC03FC000
3F807F8000
7F80FF0000
FF00FE0000
FF00FF0000
7F807F0000
3F807F8000
1FC03FC000
1FE01FE000
0FF00FE000
07F807F000
03F807F800
01FC03FC00
00FE01FE00
00FF00FE00
007F807F00
003F803F80
001FC03FC0
000F801F80
0006000E00
0004000400
ENDCHAR
STARTCHAR 00AC
ENCODING 172
SWIDTH 600 0
DWIDTH 48 0
BBX 35 21 6 11
BITMAP
FFFFFFFFE0
FFFFFFFFE0
FFFFFFFFE0
FFFFFFFFE0
FFFFFFFFE0
FFFFFFFFE0
00000003E0
00000003E0
00000003E0
00000003E0
00000003E0
00000003E0
00000003E0
00000003E0
00000003E0
00000003E0
00000003E0
00000003E0
00000003E0
00000003E0
00000003E0
ENDCHAR
STARTCHAR 00AD
ENCODING 173
SWIDTH 600 0
DWIDTH 48 0
BBX 24 6 12 19
BITMAP
FFFFFF
FFFFFF
FFFFFF
FFFFFF
FFFFFF
FFFFFF
ENDCHAR
STARTCHAR 00AE
ENCODING 174
SWIDTH 600 0
DWIDTH 48 0
BBX 40 41 4 8
BITMAP
0001FF8000
000FFFF800
007FFFFE00
00FFFFFF00
03FE00FFC0
07F0001FE0
0FC00007F0
0F800001F8
1F07FF00F8
3E07FFC07C
3C07FFE07C
7C07FFF03E
780781F01E
F80780F01F
F00780F81F
F00780F80F
F00780F80F
F00780F00F
F00783F00F
F007FFE00F
F007FFC00F
F007FF800F
F007FF800F
F00787800F
F00787C00F
F00783C00F
F80783E01F
F80781F01E
780780F01E
7C0780F83E
3E07807C3C
3E07807C7C
1F000002F8
1F800001F0
0FE00007F0
07F8000FE0
03FF007FC0
00FFFFFF00
007FFFFE00
001FFFF800
0001FF8000
ENDCHAR
STARTCHAR 00AF
ENCODING 175
SWIDTH 600 0
DWIDTH 48 0
BBX 24 6 12 50
BITMAP
FFFFFF
FFFFFF
FFFFFF
FFFFFF
FFFFFF
FFFFFF
ENDCHAR
STARTCHAR 00B0
ENCODING 176
SWIDTH 600 0
DWIDTH 48 0
BBX 24 24 12 34
BITMAP
00FF00
03FFC0
07FFF0
1FFFF8
3FFFFC
3F81FC
7E007E
7C003E
FC003F
F8001F
F8001F
F8001F
F8001F
F8001F
F8001F
FC003F
7C003E
7E007E
3F81FC
3FFFFC
1FFFF8
0FFFF0
03FFC0
00FF00
ENDCHAR
STARTCHAR 00B1
ENCODING 177
SWIDTH 600 0
DWIDTH 48 0
BBX 36 47 6 0
BITMAP
0001F80000
0001F80000
0001F80000
0001F80000
0001F80000
0001F80000
0001F80000
0001F80000
0001F80000
0001F80000
0001F80000
0001F80000
0001F80000
0001F80000
0001F80000
FFFFFFFFF0
FFFFFFFFF0
FFFFFFFFF0
FFFFFFFFF0
FFFFFFFFF0
FFFFFFFFF0
0001F80000
0001F80000
0001F80000
0001F80000
0001F80000
0001F80000
0001F80000
0001F80000
0001F80000
0001F80000
0001F80000
0001F80000
0001F80000
0001F80000
0001F80000
0001F80000
0000000000
0000000000
0000000000
0000000000
FFFFFFFFF0
FFFFFFFFF0
FFFFFFFFF0
FFFFFFFFF0
FFFFFFFFF0
FFFFFFFFF0
ENDCHAR
STARTCHAR 00B2
ENCODING 178
SWIDTH 600 0
DWIDTH 48 0
BBX 24 35 12 33
BITMAP
00FF00
07FFE0
1FFFF0
3FFFF8
7FFFFC
3F01FC
3C007E
18007E
00003E
00003E
00003E
00003E
00007E
00007E
0000FC
0000FC
0001F8
0003F0
0007E0
000FC0
001F80
003F00
007E00
00FC00
01F800
03F000
07E000
0FC000
1F8000
3F0000
7FFFFF
FFFFFF
FFFFFF
FFFFFF
FFFFFF
ENDCHAR
STARTCHAR 00B3
ENCODING 179
SWIDTH 600 0
DWIDTH 48 0
BBX 24 36 12 33
BITMAP
007E00
07FFC0
1FFFF0
3FFFF8
7FFFF8
7F83FC
3C00FC
1000FC
00007E
00007E
00007C
00007C
0000FC
0001FC
0003F8
07FFF0
07FFE0
07FF80
07FFF0
07FFF8
0003FC
0000FE
00007E
00003E
00003F
00003F
00003F
00003E
00007E
C000FE
F801FC
FFFFFC
FFFFF8
FFFFF0
3FFFC0
07FE00
ENDCHAR
STARTCHAR 00B4
ENCODING 180
SWIDTH 600 0
DWIDTH 48 0
BBX 16 13 20 49
BITMAP
01FF
03FE
03FE
07FC
07F8
0FF0
1FE0
1FC0
3F80
3F00
7E00
FC00
F800
ENDCHAR
STARTCHAR 00B5
ENCODING 181
SWIDTH 600 0
DWIDTH 48 0
BBX 36 62 6 -19
BITMAP
FE00000FF0
FE00000FF0
FE00000FF0
FE00000FF0
FE00000FF0
FE00000FF0
FE00000FF0
FE00000FF0
FE00000FF0
FE00000FF0
FE00000FF0
FE00000FF0
FE00000FF0
FE00000FF0
FE00000FF0
FE00000FF0
FE00000FF0
FE00000FF0
FE00000FF0
FE00000FF0
FE00000FF0
FE00000FF0
FE00000FF0
FE00000FF0
FE00000FF0
FE00000FF0
FE00000FF0
FE00000FF0
FE00000FF0
FE00000FF0
FE00001FF0
FF00001FF0
FF00001FF0
FF00003FF0
FF80007FF0
FF80007FF0
FFC001FFF0
FFF007F7F0
FFFFFFF7F0
FFFFFFE7F0
FFFFFFC7F0
FFFFFF83F0
FFFFFE03F0
FE3FF00000
FE00000000
FE00000000
FE00000000
FE00000000
FE00000000
FE00000000
FE00000000
FE00000000
FE00000000
FE00000000
FE00000000
FE00000000
FE00000000
FE00000000
FE00000000
FE00000000
FE00000000
FE00000000
ENDCHAR
STARTCHAR 00B6
ENCODING 182
SWIDTH 600 0
DWIDTH 48 0
BBX 39 72 4 -11
BITMAP
000FFFFFFE
007FFFFFFE
01FFFFFFFE
07FFFFFFFE
0FFFFFFFFE
0FFFFFC03E
1FFFFFC03E
3FFFFFC03E
3FFFFFC03E
3FFFFFC03E
7FFFFFC03E
7FFFFFC03E
7FFFFFC03E
7FFFFFC03E
FFFFFFC03E
FFFFFFC03E
FFFFFFC03E
FFFFFFC03E
FFFFFFC03E
FFFFFFC03E
FFFFFFC03E
FFFFFFC03E
FFFFFFC03E
FFFFFFC03E
FFFFFFC03E
FFFFFFC03E
FFFFFFC03E
7FFFFFC03E
7FFFFFC03E
7FFFFFC03E
7FFFFFC03E
3FFFFFC03E
3FFFFFC03E
3FFFFFC03E
1FFFFFC03E
0FFFFFC03E
0FFFFFC03E
03FFFFC03E
01FFFFC03E
007FFFC03E
000003C03E
000003C03E
000003C03E
000003C03E
000003C03E
000003C03E
000003C03E
000003C03E
000003C03E
000003C03E
000003C03E
000003C03E
000003C03E
000003C03E
000003C03E
000003C03E
000003C03E
000003C03E
000003C03E
000003C03E
000003C03E
000003C03E
000003C03E
000003C03E
000003C03E
000003C03E
000003C03E
000003C03E
000003C03E
000003C03E
000003C03E
000003C03E
ENDCHAR
STARTCHAR 00B7
ENCODING 183
SWIDTH 600 0
DWIDTH 48 0
BBX 10 11 19 22
BITMAP
1E00
7F80
7F80
FFC0
FFC0
FFC0
FFC0
FFC0
7F80
7F80
1E00
ENDCHAR
STARTCHAR 00B8
ENCODING 184
SWIDTH 600 0
DWIDTH 48 0
BBX 16 20 16 -19
BITMAP
03E0
03C0
07C0
07C0
0F80
0F80
1FF0
1FFC
07FE
00FE
007F
003F
003F
003F
007E
00FE
FFFC
FFF8
FFF0
FF80
ENDCHAR
STARTCHAR 00B9
ENCODING 185
SWIDTH 600 0
DWIDTH 48 0
BBX 24 34 12 33
BITMAP
003F00
00FF00
03FF00
0FFF00
1FFF00
7FFF00
FFDF00
7F1F00
7C1F00
381F00
201F00
001F00
001F00
001F00
001F00
001F00
001F00
001F00
001F00
001F00
001F00
001F00
001F00
001F00
001F00
001F00
001F00
001F00
001F00
3FFFFF
3FFFFF
3FFFFF
3FFFFF
3FFFFF
ENDCHAR
STARTCHAR 00BA
ENCODING 186
SWIDTH 600 0
DWIDTH 48 0
BBX 24 27 12 31
BITMAP
00FF00
03FFC0
0FFFF0
1FFFF8
1F81F8
3F00FC
7E007C
7C003E
7C003E
7C003E
F8003E
F8003F
F8001F
F8001F
F8001F
F8003F
F8003F
7C003E
7C003E
7C003E
7E007C
3F00FC
1F81F8
1FFFF8
0FFFE0
03FFC0
00FF00
ENDCHAR
STARTCHAR 00BB
ENCODING 187
SWIDTH 600 0
DWIDTH 48 0
BBX 34 34 7 4
BITMAP
0800080000
1C001C0000
3E007C0000
FF00FE0000
7F007F0000
3F807F8000
1FC03FC000
1FE01FE000
0FF00FE000
07F807F000
03F807F800
01FC03FC00
01FE01FE00
00FF00FE00
007F807F00
003FC07F80
001FC03FC0
001FC03FC0
003FC03F80
007F807F00
00FF00FF00
00FE01FE00
01FC03FC00
03FC07F800
07F807F000
0FF00FF000
0FE01FE000
1FC03FC000
3F807F8000
7F807F0000
FF00FE0000
7E007E0000
1C003C0000
0800080000
ENDCHAR
STARTCHAR 00BC
ENCODING 188
SWIDTH 600 0
DWIDTH 48 0
BBX 46 57 0 0
BITMAP
00FC00000FC0
03FC00001FC0
0FFC00001F80
1FFC00003F80
FFFC00003F00
7FFC00007F00
7F7C00007E00
3C7C0000FC00
107C0000FC00
007C0001F800
007C0001F800
007C0003F000
007C0003F000
007C0007E000
007C0007E000
007C000FC000
007C000FC000
007C001F8000
007C001F8000
007C003F0000
007C003F0000
007C007E0000
007C007E0000
01FE00FC0000
1FFFF0FC0000
1FFFF1F80000
1FFFF1F80000
1FFFF3F00000
000003F00000
000007E00FC0
000007E00FC0
00000FC01FC0
00001FC03FC0
00001F807FC0
00003F807FC0
00003F00FFC0
00007F01F7C0
00007E03F7C0
0000FE03E7C0
0000FC07C7C0
0001FC0FC7C0
0001F80F87C0
0003F81F07C0
0003F03E07C0
0007E07E07C0
0007E07C07C0
000FC0FFFFFC
000FC0FFFFFC
001F80FFFFFC
001F80FFFFFC
003F00FFFFFC
003F000007C0
007E000007C0
007E000007C0
00FC000007C0
00FC000007C0
01F8000007C0
ENDCHAR
STARTCHAR 00BD
ENCODING 189
SWIDTH 600 0
DWIDTH 48 0
BBX 46 58 0 0
BITMAP
00FC00000FC0
03FC00001FC0
0FFC00001F80
1FFC00003F80
FFFC00003F00
7FFC00007F00
7F7C00007E00
3C7C0000FE00
107C0000FC00
007C0001F800
007C0001F800
007C0003F000
007C0003F000
007C0007E000
007C0007E000
007C000FC000
007C000FC000
007C001F8000
007C001F8000
007C003F0000
007C003F0000
007C007E0000
007C007E0000
01FE00FC0000
1FFFF0FC0000
1FFFF1F80000
1FFFF1F80000
1FFFF3F00000
000003F00000
000007E0FE00
000007E3FFC0
00000FC7FFE0
00000FDFFFF0
00001F9FFFF0
00001F8F83F8
00003F0601F8
00003F0400F8
00007E0000F8
00007E0000F8
0000FC0000F8
0000FC0001F8
0001F80001F0
0001F80003F0
0003F00007E0
0003F0000FC0
0007E0001F80
000FE0003F00
000FC0007E00
001FC000FC00
001F8001F800
003F8003F000
003F0007E000
007F000FC000
007E001FFFFC
00FE003FFFFC
00FC003FFFFC
01FC003FFFFC
01F8003FFFFC
ENDCHAR
STARTCHAR 00BE
ENCODING 190
SWIDTH 600 0
DWIDTH 48 0
BBX 44 58 2 0
BITMAP
07F800000000
1FFE00003F00
7FFF00007E00
FFFF80007E00
FFFFC000FC00
7C1FC000FC00
300FC001F800
000FC001F800
000FC003F000
000FC003F000
000FC007E000
003F8007E000
1FFF000FC000
1FFC000FC000
1FFF001F8000
1FFF801F8000
001FC03F0000
000FE03F0000
0007E07E0000
0007E07E0000
0007E0FC0000
0007E0FC0000
800FE1F80000
F01FC1F80000
FFFFC3F00000
FFFF83F00000
FFFF07E00000
FFFE07E00000
1FF00FC00000
00001FC00000
00001F803F00
00003F807F00
00003F007F00
00007F00FF00
00007E01FF00
0000FE03FF00
0000FC03FF00
0001FC07DF00
0001F80F9F00
0003F80F9F00
0003F01F1F00
0007F03E1F00
0007E07E1F00
000FC07C1F00
000FC0F81F00
001F81F81F00
001F81F01F00
003F03FFFFF0
003F03FFFFF0
007E03FFFFF0
007E03FFFFF0
00FC03FFFFF0
00FC00001F00
01F800001F00
01F800001F00
03F000001F00
03F000001F00
07E000001F00
ENDCHAR
STARTCHAR 00BF
ENCODING 191
SWIDTH 600 0
DWIDTH 48 0
BBX 34 60 5 -17
BITMAP
00007C0000
0000FE0000
0001FF0000
0003FF0000
0003FF0000
0003FF0000
0003FF0000
0003FF0000
0001FF0000
0001FE0000
00007C0000
0000000000
0000000000
0000000000
0000000000
0000000000
0000000000
0000FE0000
0000FE0000
0000FE0000
0000FE0000
0000FE0000
0000FC0000
0001FC0000
0001FC0000
0003F80000
0007F80000
000FF00000
003FF00000
007FE00000
00FFC00000
01FF800000
03FE000000
07FC000000
0FF8000000
1FF0000000
3FE0000000
3FC0000000
7F80000000
7F00000000
7F00000000
7F00000000
FE00000000
FE00000000
FE00000000
FE00000000
FE00000000
FE00000000
FE00000000
7F00000000
7F80000300
7F80000F00
3FE0003F00
3FF801FF80
1FFFFFFF80
0FFFFFFFC0
07FFFFFFC0
01FFFFFE00
007FFFF000
000FFF0000
ENDCHAR
STARTCHAR 00C0
ENCODING 192
SWIDTH 600 0
DWIDTH 48 0
BBX 44 76 2 0
BITMAP
000FF0000000
000FF8000000
0007F8000000
0007FC000000
0003FC000000
0001FE000000
0000FF000000
00007F000000
00003F800000
00001FC00000
00000FC00000
000007E00000
000003F00000
000000000000
000000000000
000000000000
000000000000
000000000000
00003FC00000
00003FC00000
00007FE00000
00007FE00000
00007FE00000
0000FFF00000
0000FFF00000
0000FFF00000
0001FFF80000
0001FFF80000
0001FBF80000
0003F9F80000
0003F9FC0000
0003F9FC0000
0007F0FC0000
0007F0FE0000
0007F0FE0000
0007E0FE0000
000FE07F0000
000FE07F0000
000FE07F0000
001FC03F8000
001FC03F8000
001FC03F8000
003F801FC000
003F801FC000
003F801FC000
007F000FE000
007F000FE000
007F000FE000
00FE000FF000
00FE0007F000
00FE0007F000
01FE0007F800
01FFFFFFF800
01FFFFFFF800
03FFFFFFFC00
03FFFFFFFC00
03FFFFFFFC00
07FFFFFFFC00
07F00000FE00
07F00000FE00
07F00000FE00
0FE000007F00
0FE000007F00
0FE000007F00
1FC000003F80
1FC000003F80
1FC000003F80
3F8000003FC0
3F8000001FC0
3F8000001FC0
7F8000001FE0
7F0000000FE0
7F0000000FE0
FF0000000FF0
FE00000007F0
FE00000007F0
ENDCHAR
STARTCHAR 00C1
ENCODING 193
SWIDTH 600 0
DWIDTH 48 0
BBX 44 76 2 0
BITMAP
0000003FE000
0000003FC000
0000007FC000
000000FF8000
000000FF0000
000001FE0000
000001FC0000
000003F80000
000007F00000
000007E00000
00000FC00000
00001F800000
00001F000000
000000000000
000000000000
000000000000
000000000000
000000000000
00003FC00000
00003FC00000
00007FE00000
00007FE00000
00007FE00000
0000FFF00000
0000FFF00000
0000FFF00000
0001FFF80000
0001FFF80000
0001FBF80000
0003F9F80000
0003F9FC0000
0003F9FC0000
0007F0FC0000
0007F0FE0000
0007F0FE0000
0007E0FE0000
000FE07F0000
000FE07F0000
000FE07F0000
001FC03F8000
001FC03F8000
001FC03F8000
003F801FC000
003F801FC000
003F801FC000
007F000FE000
007F000FE000
007F000FE000
00FE000FF000
00FE0007F000
00FE0007F000
01FE0007F800
01FFFFFFF800
01FFFFFFF800
03FFFFFFFC00
03FFFFFFFC00
03FFFFFFFC00
07FFFFFFFC00
07F00000FE00
07F00000FE00
07F00000FE00
0FE000007F00
0FE000007F00
0FE000007F00
1FC000003F80
1FC000003F80
1FC000003F80
3F8000003FC0
3F8000001FC0
3F8000001FC0
7F8000001FE0
7F0000000FE0
7F0000000FE0
FF0000000FF0
FE00000007F0
FE00000007F0
ENDCHAR
STARTCHAR 00C2
ENCODING 194
SWIDTH 600 0
DWIDTH 48 0
BBX 44 76 2 0
BITMAP
00003FC00000
00007FC00000
00007FE00000
0000FFF00000
0001FFF80000
0003FFF80000
0007F9FC0000
0007F0FE0000
000FE07F0000
001FC03F8000
003F001FC000
007E000FE000
00FC0003F000
000000000000
000000000000
000000000000
000000000000
000000000000
00003FC00000
00003FC00000
00007FE00000
00007FE00000
00007FE00000
0000FFF00000
0000FFF00000
0000FFF00000
0001FFF80000
0001FFF80000
0001FBF80000
0003F9F80000
0003F9FC0000
0003F9FC0000
0007F0FC0000
0007F0FE0000
0007F0FE0000
0007E0FE0000
000FE07F0000
000FE07F0000
000FE07F0000
001FC03F8000
001FC03F8000
001FC03F8000
003F801FC000
003F801FC000
003F801FC000
007F000FE000
007F000FE000
007F000FE000
00FE000FF000
00FE0007F000
00FE0007F000
01FE0007F800
01FFFFFFF800
01FFFFFFF800
03FFFFFFFC00
03FFFFFFFC00
03FFFFFFFC00
07FFFFFFFC00
07F00000FE00
07F00000FE00
07F00000FE00
0FE000007F00
0FE000007F00
0FE000007F00
1FC000003F80
1FC000003F80
1FC000003F80
3F8000003FC0
3F8000001FC0
3F8000001FC0
7F8000001FE0
7F0000000FE0
7F0000000FE0
FF0000000FF0
FE00000007F0
FE00000007F0
ENDCHAR
STARTCHAR 00C3
ENCODING 195
SWIDTH 600 0
DWIDTH 48 0
BBX 44 73 2 0
BITMAP
0007E000F000
000FFC00F000
001FFE01F000
003FFF83F000
007FFFFFE000
007FFFFFE000
00FC1FFFC000
00F807FF8000
00F001FF0000
00F0007E0000
000000000000
000000000000
000000000000
000000000000
000000000000
00003FC00000
00003FC00000
00007FE00000
00007FE00000
00007FE00000
0000FFF00000
0000FFF00000
0000FFF00000
0001FFF80000
0001FFF80000
0001FBF80000
0003F9F80000
0003F9FC0000
0003F9FC0000
0007F0FC0000
0007F0FE0000
0007F0FE0000
0007E0FE0000
000FE07F0000
000FE07F0000
000FE07F0000
001FC03F8000
001FC03F8000
001FC03F8000
003F801FC000
003F801FC000
003F801FC000
007F000FE000
007F000FE000
007F000FE000
00FE000FF000
00FE0007F000
00FE0007F000
01FE0007F800
01FFFFFFF800
01FFFFFFF800
03FFFFFFFC00
03FFFFFFFC00
03FFFFFFFC00
07FFFFFFFC00
07F00000FE00
07F00000FE00
07F00000FE00
0FE000007F00
0FE000007F00
0FE000007F00
1FC000003F80
1FC000003F80
1FC000003F80
3F8000003FC0
3F8000001FC0
3F8000001FC0
7F8000001FE0
7F0000000FE0
7F0000000FE0
FF0000000FF0
FE00000007F0
FE00000007F0
ENDCHAR
STARTCHAR 00C4
ENCODING 196
SWIDTH 600 0
DWIDTH 48 0
BBX 44 73 2 0
BITMAP
001E00078000
007F000FE000
007F801FE000
007F801FE000
00FF801FF000
007F801FE000
007F801FE000
007F000FE000
001E00078000
000000000000
000000000000
000000000000
000000000000
000000000000
000000000000
00003FC00000
00003FC00000
00007FE00000
00007FE00000
00007FE00000
0000FFF00000
0000FFF00000
0000FFF00000
0001FFF80000
0001FFF80000
0001FBF80000
0003F9F80000
0003F9FC0000
0003F9FC0000
0007F0FC0000
0007F0FE0000
0007F0FE0000
0007E0FE0000
000FE07F0000
000FE07F0000
000FE07F0000
001FC03F8000
001FC03F8000
001FC03F8000
003F801FC000
003F801FC000
003F801FC000
007F000FE000
007F000FE000
007F000FE000
00FE000FF000
00FE0007F000
00FE0007F000
01FE0007F800
01FFFFFFF800
01FFFFFFF800
03FFFFFFFC00
03FFFFFFFC00
03FFFFFFFC00
07FFFFFFFC00
07F00000FE00
07F00000FE00
07F00000FE00
0FE000007F00
0FE000007F00
0FE000007F00
1FC000003F80
1FC000003F80
1FC000003F80
3F8000003FC0
3F8000001FC0
3F8000001FC0
7F8000001FE0
7F0000000FE0
7F0000000FE0
FF0000000FF0
FE00000007F0
FE00000007F0
ENDCHAR
STARTCHAR 00C5
ENCODING 197
SWIDTH 600 0
DWIDTH 48 0
BBX 44 80 2 0
BITMAP
00001F800000
0000FFE00000
0001FFF80000
0003FFF80000
0003F0FC0000
0003E07C0000
0007C03E0000
0007C03E0000
0007C03E0000
0007C03E0000
0007C03E0000
0003E07C0000
0003F0FC0000
0001FFF80000
0001FFF80000
00007FE00000
00001F800000
000000000000
000000000000
000000000000
000000000000
000000000000
00003FC00000
00003FC00000
00007FE00000
00007FE00000
00007FE00000
0000FFF00000
0000FFF00000
0000FFF00000
0001FFF80000
0001FFF80000
0001FBF80000
0003F9F80000
0003F9FC0000
0003F9FC0000
0007F0FC0000
0007F0FE0000
0007F0FE0000
0007E0FE0000
000FE07F0000
000FE07F0000
000FE07F0000
001FC03F8000
001FC03F8000
001FC03F8000
003F801FC000
003F801FC000
003F801FC000
007F000FE000
007F000FE000
007F000FE000
00FE000FF000
00FE0007F000
00FE0007F000
01FE0007F800
01FFFFFFF800
01FFFFFFF800
03FFFFFFFC00
03FFFFFFFC00
03FFFFFFFC00
07FFFFFFFC00
07F00000FE00
07F00000FE00
07F00000FE00
0FE000007F00
0FE000007F00
0FE000007F00
1FC000003F80
1FC000003F80
1FC000003F80
3F8000003FC0
3F8000001FC0
3F8000001FC0
7F8000001FE0
7F0000000FE0
7F0000000FE0
FF0000000FF0
FE00000007F0
FE00000007F0
ENDCHAR
STARTCHAR 00C6
ENCODING 198
SWIDTH 600 0
DWIDTH 48 0
BBX 41 58 2 0
BITMAP
000FFFFFFF80
000FFFFFFF80
000FFFFFFF80
000FFFFFFF80
001FFFFFFF80
001FFFFFFF80
001F8FE00000
001F8FE00000
001F8FE00000
003F8FE00000
003F0FE00000
003F0FE00000
003F0FE00000
007F0FE00000
007F0FE00000
007E0FE00000
007E0FE00000
007E0FE00000
00FE0FE00000
00FE0FE00000
00FC0FE00000
00FC0FE00000
01FC0FE00000
01FC0FE00000
01FC0FE00000
01F80FFFFF00
01F80FFFFF00
03F80FFFFF00
03F80FFFFF00
03F80FFFFF00
03F00FFFFF00
07F00FE00000
07F00FE00000
07F00FE00000
07FFFFE00000
07FFFFE00000
0FFFFFE00000
0FFFFFE00000
0FFFFFE00000
0FFFFFE00000
1FC00FE00000
1FC00FE00000
1FC00FE00000
1FC00FE00000
1F800FE00000
3F800FE00000
3F800FE00000
3F800FE00000
3F800FE00000
7F000FE00000
7F000FE00000
7F000FE00000
7F000FFFFF80
7F000FFFFF80
FE000FFFFF80
FE000FFFFF80
FE000FFFFF80
FE000FFFFF80
ENDCHAR
STARTCHAR 00C7
ENCODING 199
SWIDTH 600 0
DWIDTH 48 0
BBX 39 78 5 -19
BITMAP
00001FFE00
0000FFFFE0
0007FFFFFC
000FFFFFFE
003FFFFFFC
007FFFFFFC
00FFF003F8
01FF800078
03FF000018
03FC000000
07F8000000
0FF0000000
0FF0000000
1FE0000000
1FC0000000
1FC0000000
3FC0000000
3F80000000
3F80000000
7F80000000
7F00000000
7F00000000
7F00000000
7F00000000
7F00000000
FF00000000
FF00000000
FF00000000
FF00000000
FF00000000
FF00000000
FF00000000
FF00000000
FF00000000
FF00000000
7F00000000
7F00000000
7F00000000
7F00000000
7F80000000
7F80000000
3F80000000
3FC0000000
3FC0000000
3FC0000000
1FE0000000
1FE0000000
0FF0000000
0FF8000000
07FC000000
07FE000008
03FF800038
01FFF003F8
01FFFFFFF8
00FFFFFFF8
003FFFFFF8
001FFFFFF8
0007FFFFF8
0001FFFFC0
00003FFC00
00000F8000
00000F0000
00001F0000
00001F0000
00003FE000
00003FF800
00000FFC00
000001FC00
000000FC00
0000007E00
0000007E00
0000007E00
000000FC00
000001FC00
0001FFF800
0001FFF000
0001FFE000
0001FF0000
ENDCHAR
STARTCHAR 00C8
ENCODING 200
SWIDTH 600 0
DWIDTH 48 0
BBX 33 76 8 0
BITMAP
03FE000000
03FE000000
01FF000000
00FF000000
007F800000
003FC00000
001FC00000
001FE00000
000FE00000
0007F00000
0003F80000
0000FC0000
00007C0000
0000000000
0000000000
0000000000
0000000000
0000000000
FFFFFFFF80
FFFFFFFF80
FFFFFFFF80
FFFFFFFF80
FFFFFFFF80
FFFFFFFF80
FE00000000
FE00000000
FE00000000
FE00000000
FE00000000
FE00000000
FE00000000
FE00000000
FE00000000
FE00000000
FE00000000
FE00000000
FE00000000
FE00000000
FE00000000
FE00000000
FE00000000
FE00000000
FE00000000
FFFFFFFF00
FFFFFFFF00
FFFFFFFF00
FFFFFFFF00
FFFFFFFF00
FFFFFFFF00
FE00000000
FE00000000
FE00000000
FE00000000
FE00000000
FE00000000
FE00000000
FE00000000
FE00000000
FE00000000
FE00000000
FE00000000
FE00000000
FE00000000
FE00000000
FE00000000
FE00000000
FE00000000
FE00000000
FE00000000
FE00000000
FFFFFFFF80
FFFFFFFF80
FFFFFFFF80
FFFFFFFF80
FFFFFFFF80
FFFFFFFF80
ENDCHAR
STARTCHAR 00C9
ENCODING 201
SWIDTH 600 0
DWIDTH 48 0
BBX 33 76 8 0
BITMAP
000007F800
00000FF800
00001FF000
00001FE000
00003FC000
00003FC000
00007F8000
0000FF0000
0000FE0000
0001FC0000
0003F80000
0003F00000
0007E00000
0000000000
0000000000
0000000000
0000000000
0000000000
FFFFFFFF80
FFFFFFFF80
FFFFFFFF80
FFFFFFFF80
FFFFFFFF80
FFFFFFFF80
FE00000000
FE00000000
FE00000000
FE00000000
FE00000000
FE00000000
FE00000000
FE00000000
FE00000000
FE00000000
FE00000000
FE00000000
FE00000000
FE00000000
FE00000000
FE00000000
FE00000000
FE00000000
FE00000000
FFFFFFFF00
FFFFFFFF00
FFFFFFFF00
FFFFFFFF00
FFFFFFFF00
FFFFFFFF00
FE00000000
FE00000000
FE00000000
FE00000000
FE00000000
FE00000000
FE00000000
FE00000000
FE00000000
FE00000000
FE00000000
FE00000000
FE00000000
FE00000000
FE00000000
FE00000000
FE00000000
FE00000000
FE00000000
FE00000000
FE00000000
FFFFFFFF80
FFFFFFFF80
FFFFFFFF80
FFFFFFFF80
FFFFFFFF80
FFFFFFFF80
ENDCHAR
STARTCHAR 00CA
ENCODING 202
SWIDTH 600 0
DWIDTH 48 0
BBX 33 76 8 0
BITMAP
000FF00000
000FF80000
001FFC0000
003FFC0000
003FFE0000
007F7F0000
00FE3F8000
01FC1FC000
03F80FE000
07F007F000
0FE003F000
0FC001F800
1F8000FC00
0000000000
0000000000
0000000000
0000000000
0000000000
FFFFFFFF80
FFFFFFFF80
FFFFFFFF80
FFFFFFFF80
FFFFFFFF80
FFFFFFFF80
FE00000000
FE00000000
FE00000000
FE00000000
FE00000000
FE00000000
FE00000000
FE00000000
FE00000000
FE00000000
FE00000000
FE00000000
FE00000000
FE00000000
FE00000000
FE00000000
FE00000000
FE00000000
FE00000000
FFFFFFFF00
FFFFFFFF00
FFFFFFFF00
FFFFFFFF00
FFFFFFFF00
FFFFFFFF00
FE00000000
FE00000000
FE00000000
FE00000000
FE00000000
FE00000000
FE00000000
FE00000000
FE00000000
FE00000000
FE00000000
FE00000000
FE00000000
FE00000000
FE00000000
FE00000000
FE00000000
FE00000000
FE00000000
FE00000000
FE00000000
FFFFFFFF80
FFFFFFFF80
FFFFFFFF80
FFFFFFFF80
FFFFFFFF80
FFFFFFFF80
ENDCHAR
STARTCHAR 00CB
ENCODING 203
SWIDTH 600 0
DWIDTH 48 0
BBX 33 73 8 0
BITMAP
07C001F000
0FE003F800
1FE003FC00
1FF007FC00
1FF007FC00
1FF007FC00
1FE003FC00
0FE003F800
078001F000
0000000000
0000000000
0000000000
0000000000
0000000000
0000000000
FFFFFFFF80
FFFFFFFF80
FFFFFFFF80
FFFFFFFF80
FFFFFFFF80
FFFFFFFF80
FE00000000
FE00000000
FE00000000
FE00000000
FE00000000
FE00000000
FE00000000
FE00000000
FE00000000
FE00000000
FE00000000
FE00000000
FE00000000
FE00000000
FE00000000
FE00000000
FE00000000
FE00000000
FE00000000
FFFFFFFF00
FFFFFFFF00
FFFFFFFF00
FFFFFFFF00
FFFFFFFF00
FFFFFFFF00
FE00000000
FE00000000
FE00000000
FE00000000
FE00000000
FE00000000
FE00000000
FE00000000
FE00000000
FE00000000
FE00000000
FE00000000
FE00000000
FE00000000
FE00000000
FE00000000
FE00000000
FE00000000
FE00000000
FE00000000
FE00000000
FFFFFFFF80
FFFFFFFF80
FFFFFFFF80
FFFFFFFF80
FFFFFFFF80
FFFFFFFF80
ENDCHAR
STARTCHAR 00CC
ENCODING 204
SWIDTH 600 0
DWIDTH 48 0
BBX 30 76 9 0
BITMAP
07F80000
07FC0000
03FC0000
03FE0000
01FE0000
00FF0000
007F8000
003F8000
001FC000
000FE000
0007E000
0003F000
0001F800
00000000
00000000
00000000
00000000
00000000
FFFFFFFC
FFFFFFFC
FFFFFFFC
FFFFFFFC
FFFFFFFC
FFFFFFFC
001FE000
001FE000
001FE000
001FE000
001FE000
001FE000
001FE000
001FE000
001FE000
001FE000
001FE000
001FE000
001FE000
001FE000
001FE000
001FE000
001FE000
001FE000
001FE000
001FE000
001FE000
001FE000
001FE000
001FE000
001FE000
001FE000
001FE000
001FE000
001FE000
001FE000
001FE000
001FE000
001FE000
001FE000
001FE000
001FE000
001FE000
001FE000
001FE000
001FE000
001FE000
001FE000
001FE000
001FE000
001FE000
001FE000
07FFFF80
FFFFFFFC
FFFFFFFC
FFFFFFFC
FFFFFFFC
FFFFFFFC
ENDCHAR
STARTCHAR 00CD
ENCODING 205
SWIDTH 600 0
DWIDTH 48 0
BBX 30 76 9 0
BITMAP
00001FF0
00001FE0
00003FE0
00007FC0
00007F80
0000FF00
0000FE00
0001FC00
0003F800
0003F000
0007E000
000FC000
000F8000
00000000
00000000
00000000
00000000
00000000
FFFFFFFC
FFFFFFFC
FFFFFFFC
FFFFFFFC
FFFFFFFC
FFFFFFFC
001FE000
001FE000
001FE000
001FE000
001FE000
001FE000
001FE000
001FE000
001FE000
001FE000
001FE000
001FE000
001FE000
001FE000
001FE000
001FE000
001FE000
001FE000
001FE000
001FE000
001FE000
001FE000
001FE000
001FE000
001FE000
001FE000
001FE000
001FE000
001FE000
001FE000
001FE000
001FE000
001FE000
001FE000
001FE000
001FE000
001FE000
001FE000
001FE000
001FE000
001FE000
001FE000
001FE000
001FE000
001FE000
001FE000
07FFFF80
FFFFFFFC
FFFFFFFC
FFFFFFFC
FFFFFFFC
FFFFFFFC
ENDCHAR
STARTCHAR 00CE
ENCODING 206
SWIDTH 600 0
DWIDTH 48 0
BBX 30 76 9 0
BITMAP
001FE000
003FE000
003FF000
007FF800
00FFFC00
01FFFC00
03FCFE00
03F87F00
07F03F80
0FE01FC0
1F800FE0
3F0007F0
7E0001F8
00000000
00000000
00000000
00000000
00000000
FFFFFFFC
FFFFFFFC
FFFFFFFC
FFFFFFFC
FFFFFFFC
FFFFFFFC
001FE000
001FE000
001FE000
001FE000
001FE000
001FE000
001FE000
001FE000
001FE000
001FE000
001FE000
001FE000
001FE000
001FE000
001FE000
001FE000
001FE000
001FE000
001FE000
001FE000
001FE000
001FE000
001FE000
001FE000
001FE000
001FE000
001FE000
001FE000
001FE000
001FE000
001FE000
001FE000
001FE000
001FE000
001FE000
001FE000
001FE000
001FE000
001FE000
001FE000
001FE000
001FE000
001FE000
001FE000
001FE000
001FE000
07FFFF80
FFFFFFFC
FFFFFFFC
FFFFFFFC
FFFFFFFC
FFFFFFFC
ENDCHAR
STARTCHAR 00CF
ENCODING 207
SWIDTH 600 0
DWIDTH 48 0
BBX 30 73 9 0
BITMAP
0F0003C0
3F8007F0
3FC00FF0
3FC00FF0
7FC00FF8
3FC00FF0
3FC00FF0
3F8007F0
0F0003C0
00000000
00000000
00000000
00000000
00000000
00000000
FFFFFFFC
FFFFFFFC
FFFFFFFC
FFFFFFFC
FFFFFFFC
FFFFFFFC
001FE000
001FE000
001FE000
001FE000
001FE000
001FE000
001FE000
001FE000
001FE000
001FE000
001FE000
001FE000
001FE000
001FE000
001FE000
001FE000
001FE000
001FE000
001FE000
001FE000
001FE000
001FE000
001FE000
001FE000
001FE000
001FE000
001FE000
001FE000
001FE000
001FE000
001FE000
001FE000
001FE000
001FE000
001FE000
001FE000
001FE000
001FE000
001FE000
001FE000
001FE000
001FE000
001FE000
001FE000
001FE000
001FE000
07FFFF80
FFFFFFFC
FFFFFFFC
FFFFFFFC
FFFFFFFC
FFFFFFFC
ENDCHAR
STARTCHAR 00D0
ENCODING 208
SWIDTH 600 0
DWIDTH 48 0
BBX 45 58 0 0
BITMAP
03FFFFC00000
03FFFFFC0000
03FFFFFF0000
03FFFFFFC000
03FFFFFFE000
03FFFFFFF800
03FC007FFC00
03FC000FFE00
03FC0007FE00
03FC0001FF00
03FC0000FF80
03FC00007F80
03FC00003FC0
03FC00003FC0
03FC00001FE0
03FC00000FE0
03FC00000FF0
03FC00000FF0
03FC000007F0
03FC000007F0
03FC000007F8
03FC000007F8
03FC000007F8
03FC000003F8
03FC000003F8
03FC000003F8
03FC000003F8
FFFFFE0003F8
FFFFFE0003F8
FFFFFE0003F8
FFFFFE0003F8
FFFFFE0003F8
FFFFFE0003F8
03FC000003F8
03FC000007F8
03FC000007F8
03FC000007F8
03FC000007F0
03FC000007F0
03FC00000FF0
03FC00000FF0
03FC00000FE0
03FC00001FE0
03FC00001FE0
03FC00003FC0
03FC00007FC0
03FC00007F80
03FC0000FF80
03FC0001FF00
03FC0007FE00
03FC001FFC00
03FC00FFF800
03FFFFFFF000
03FFFFFFE000
03FFFFFF8000
03FFFFFE0000
03FFFFF80000
03FFFF800000
ENDCHAR
STARTCHAR 00D1
ENCODING 209
SWIDTH 600 0
DWIDTH 48 0
BBX 36 73 6 0
BITMAP
003F000780
00FFC00F80
01FFF00F00
03FFFC1F00
03FFFFFF00
07FFFFFE00
07C1FFFE00
0F807FFC00
0F801FF800
0F0007E000
0000000000
0000000000
0000000000
0000000000
0000000000
FF800007F0
FFC00007F0
FFC00007F0
FFE00007F0
FFE00007F0
FFE00007F0
FFF00007F0
FFF00007F0
FFF80007F0
FDF80007F0
FDFC0007F0
FDFC0007F0
FCFC0007F0
FCFE0007F0
FC7E0007F0
FC7F0007F0
FC3F0007F0
FC3F8007F0
FC3F8007F0
FC1FC007F0
FC1FC007F0
FC0FC007F0
FC0FE007F0
FE07E007F0
FE07F007F0
FE03F007F0
FE03F807F0
FE03F807F0
FE01F807F0
FE01FC07F0
FE00FC07F0
FE00FE07F0
FE007E07F0
FE007F07F0
FE007F07F0
FE003F07F0
FE003F87F0
FE001F83F0
FE001FC3F0
FE000FC3F0
FE000FE3F0
FE000FE3F0
FE0007E3F0
FE0007F3F0
FE0003F3F0
FE0003FBF0
FE0001FBF0
FE0001FFF0
FE0000FFF0
FE0000FFF0
FE0000FFF0
FE00007FF0
FE00007FF0
FE00003FF0
FE00003FF0
FE00001FF0
FE00001FF0
FE00001FF0
ENDCHAR
STARTCHAR 00D2
ENCODING 210
SWIDTH 600 0
DWIDTH 48 0
BBX 40 77 4 -1
BITMAP
003FC00000
003FE00000
001FE00000
001FF00000
000FF00000
0007F80000
0003FC0000
0001FC0000
0000FE0000
00007F0000
00003F0000
00001F8000
00000FC000
0000000000
0000000000
0000000000
0000000000
0001FF8000
000FFFF000
003FFFFC00
007FFFFE00
00FFFFFF00
01FFFFFF80
03FF00FFC0
07FC003FE0
0FF8000FF0
0FF0000FF0
1FE00007F8
1FC00003F8
3FC00003FC
3F800001FC
3F800001FC
7F800001FE
7F000000FE
7F000000FE
7F000000FE
FF000000FF
FF000000FF
FE0000007F
FE0000007F
FE0000007F
FE0000007F
FE0000007F
FE0000007F
FE0000007F
FE0000007F
FE0000007F
FE0000007F
FE0000007F
FE0000007F
FE0000007F
FE0000007F
FE0000007F
FE0000007F
FE0000007F
FE0000007F
FF000000FF
FF000000FF
7F000000FE
7F000000FE
7F000000FE
7F800001FE
3F800001FC
3F800001FC
3FC00003FC
1FC00003F8
1FE00007F8
0FF0000FF0
0FF8000FF0
07FC003FE0
03FF00FFC0
03FFFFFF80
01FFFFFF00
007FFFFE00
003FFFFC00
000FFFF000
0001FF8000
ENDCHAR
STARTCHAR 00D3
ENCODING 211
SWIDTH 600 0
DWIDTH 48 0
BBX 40 77 4 -1
BITMAP
000000FF80
000000FF00
000001FF00
000003FE00
000003FC00
000007F800
000007F000
00000FE000
00001FC000
00001F8000
00003F0000
00007E0000
00007C0000
0000000000
0000000000
0000000000
0000000000
0001FF8000
000FFFF000
003FFFFC00
007FFFFE00
00FFFFFF00
01FFFFFF80
03FF00FFC0
07FC003FE0
0FF8000FF0
0FF0000FF0
1FE00007F8
1FC00003F8
3FC00003FC
3F800001FC
3F800001FC
7F800001FE
7F000000FE
7F000000FE
7F000000FE
FF000000FF
FF000000FF
FE0000007F
FE0000007F
FE0000007F
FE0000007F
FE0000007F
FE0000007F
FE0000007F
FE0000007F
FE0000007F
FE0000007F
FE0000007F
FE0000007F
FE0000007F
FE0000007F
FE0000007F
FE0000007F
FE0000007F
FE0000007F
FF000000FF
FF000000FF
7F000000FE
7F000000FE
7F000000FE
7F800001FE
3F800001FC
3F800001FC
3FC00003FC
1FC00003F8
1FE00007F8
0FF0000FF0
0FF8000FF0
07FC003FE0
03FF00FFC0
03FFFFFF80
01FFFFFF00
007FFFFE00
003FFFFC00
000FFFF000
0001FF8000
ENDCHAR
STARTCHAR 00D4
ENCODING 212
SWIDTH 600 0
DWIDTH 48 0
BBX 40 77 4 -1
BITMAP
0000FF0000
0001FF0000
0001FF8000
0003FFC000
0007FFE000
000FFFE000
001FE7F000
001FC3F800
003F81FC00
007F00FE00
00FC007F00
01F8003F80
03F0000FC0
0000000000
0000000000
0000000000
0000000000
0001FF8000
000FFFF000
003FFFFC00
007FFFFE00
00FFFFFF00
01FFFFFF80
03FF00FFC0
07FC003FE0
0FF8000FF0
0FF0000FF0
1FE00007F8
1FC00003F8
3FC00003FC
3F800001FC
3F800001FC
7F800001FE
7F000000FE
7F000000FE
7F000000FE
FF000000FF
FF000000FF
FE0000007F
FE0000007F
FE0000007F
FE0000007F
FE0000007F
FE0000007F
FE0000007F
FE0000007F
FE0000007F
FE0000007F
FE0000007F
FE0000007F
FE0000007F
FE0000007F
FE0000007F
FE0000007F
FE0000007F
FE0000007F
FF000000FF
FF000000FF
7F000000FE
7F000000FE
7F000000FE
7F800001FE
3F800001FC
3F800001FC
3FC00003FC
1FC00003F8
1FE00007F8
0FF0000FF0
0FF8000FF0
07FC003FE0
03FF00FFC0
03FFFFFF80
01FFFFFF00
007FFFFE00
003FFFFC00
000FFFF000
0001FF8000
ENDCHAR
STARTCHAR 00D5
ENCODING 213
SWIDTH 600 0
DWIDTH 48 0
BBX 40 74 4 -1
BITMAP
001F8003C0
003FF003C0
007FF807C0
00FFFE0FC0
01FFFFFF80
01FFFFFF80
03F07FFF00
03E01FFE00
03C007FC00
03C001F800
0000000000
0000000000
0000000000
0000000000
0001FF8000
000FFFF000
003FFFFC00
007FFFFE00
00FFFFFF00
01FFFFFF80
03FF00FFC0
07FC003FE0
0FF8000FF0
0FF0000FF0
1FE00007F8
1FC00003F8
3FC00003FC
3F800001FC
3F800001FC
7F800001FE
7F000000FE
7F000000FE
7F000000FE
FF000000FF
FF000000FF
FE0000007F
FE0000007F
FE0000007F
FE0000007F
FE0000007F
FE0000007F
FE0000007F
FE0000007F
FE0000007F
FE0000007F
FE0000007F
FE0000007F
FE0000007F
FE0000007F
FE0000007F
FE0000007F
FE0000007F
FE0000007F
FF000000FF
FF000000FF
7F000000FE
7F000000FE
7F000000FE
7F800001FE
3F800001FC
3F800001FC
3FC00003FC
1FC00003F8
1FE00007F8
0FF0000FF0
0FF8000FF0
07FC003FE0
03FF00FFC0
03FFFFFF80
01FFFFFF00
007FFFFE00
003FFFFC00
000FFFF000
0001FF8000
ENDCHAR
STARTCHAR 00D6
ENCODING 214
SWIDTH 600 0
DWIDTH 48 0
BBX 40 74 4 -1
BITMAP
0078001E00
01FC003F80
01FE007F80
01FE007F80
03FE007FC0
01FE007F80
01FE007F80
01FC003F80
0078001E00
0000000000
0000000000
0000000000
0000000000
0000000000
0001FF8000
000FFFF000
003FFFFC00
007FFFFE00
00FFFFFF00
01FFFFFF80
03FF00FFC0
07FC003FE0
0FF8000FF0
0FF0000FF0
1FE00007F8
1FC00003F8
3FC00003FC
3F800001FC
3F800001FC
7F800001FE
7F000000FE
7F000000FE
7F000000FE
FF000000FF
FF000000FF
FE0000007F
FE0000007F
FE0000007F
FE0000007F
FE0000007F
FE0000007F
FE0000007F
FE0000007F
FE0000007F
FE0000007F
FE0000007F
FE0000007F
FE0000007F
FE0000007F
FE0000007F
FE0000007F
FE0000007F
FE0000007F
FF000000FF
FF000000FF
7F000000FE
7F000000FE
7F000000FE
7F800001FE
3F800001FC
3F800001FC
3FC00003FC
1FC00003F8
1FE00007F8
0FF0000FF0
0FF8000FF0
07FC003FE0
03FF00FFC0
03FFFFFF80
01FFFFFF00
007FFFFE00
003FFFFC00
000FFFF000
0001FF8000
ENDCHAR
STARTCHAR 00D7
ENCODING 215
SWIDTH 600 0
DWIDTH 48 0
BBX 34 34 7 11
BITMAP
1800000600
3C00000F00
7E00001F80
FF00003FC0
7F80007F80
3FC000FF00
1FE001FE00
0FF003FC00
07F807F800
03FC0FF000
01FE1FE000
00FF3FC000
007FFF8000
003FFF0000
001FFE0000
000FFC0000
0007F80000
000FFC0000
001FFE0000
003FFF0000
007FFF8000
00FF3FC000
01FE1FE000
03FC0FF000
07F807F800
0FF003FC00
1FE001FE00
3FC000FF00
7F80007F80
FF00003FC0
FE00001FC0
7C00000F80
3800000700
1000000200
ENDCHAR
STARTCHAR 00D8
ENCODING 216
SWIDTH 600 0
DWIDTH 48 0
BBX 40 64 4 -3
BITMAP
0000000010
0000000038
0001FF807E
000FFFF07F
003FFFFCFE
007FFFFFFE
00FFFFFFFC
01FFFFFFF8
03FF00FFF8
07FC003FF0
0FF8001FF0
0FF0000FF0
1FE0000FF8
1FC0001FF8
3FC0001FFC
3F80003FFC
3F80003FFC
7F80007FFE
7F0000FEFE
7F0000FEFE
7F0001FCFE
FF0001FCFF
FF0003F8FF
FE0003F87F
FE0007F07F
FE0007E07F
FE000FE07F
FE000FC07F
FE001FC07F
FE003F807F
FE003F807F
FE007F007F
FE007F007F
FE00FE007F
FE00FC007F
FE01FC007F
FE01F8007F
FE03F8007F
FE07F0007F
FE07F0007F
FE0FE0007F
FF0FE000FF
FF1FC000FF
7F1FC000FE
7F3F8000FE
7F3F0000FE
7FFF0001FE
7FFE0001FC
3FFE0001FC
3FFC0003FC
3FFC0003F8
1FF80007F8
1FF8000FF0
0FF8000FF0
07FC003FE0
0FFF00FFC0
1FFFFFFF80
1FFFFFFF00
3FFFFFFE00
3FBFFFFC00
7F0FFFF000
FE01FF8000
3E00000000
0C00000000
ENDCHAR
STARTCHAR 00D9
ENCODING 217
SWIDTH 600 0
DWIDTH 48 0
BBX 36 77 6 -1
BITMAP
00FF000000
00FF800000
007F800000
007FC00000
003FC00000
001FE00000
000FF00000
0007F00000
0003F80000
0001FC0000
0000FC0000
00007E0000
00003F0000
0000000000
0000000000
0000000000
0000000000
0000000000
FE000007F0
FE000007F0
FE000007F0
FE000007F0
FE000007F0
FE000007F0
FE000007F0
FE000007F0
FE000007F0
FE000007F0
FE000007F0
FE000007F0
FE000007F0
FE000007F0
FE000007F0
FE000007F0
FE000007F0
FE000007F0
FE000007F0
FE000007F0
FE000007F0
FE000007F0
FE000007F0
FE000007F0
FE000007F0
FE000007F0
FE000007F0
FE000007F0
FE000007F0
FE000007F0
FE000007F0
FE000007F0
FE000007F0
FE000007F0
FE000007F0
FE000007F0
FE000007F0
FE000007F0
FE000007F0
FE000007F0
FE000007F0
FE000007F0
FE000007F0
FE000007F0
FE00000FF0
FF00000FF0
7F00000FE0
7F00000FE0
7F80001FE0
3FC0003FC0
3FC0003FC0
1FF000FF80
1FFC03FF80
0FFFFFFF00
07FFFFFE00
03FFFFFC00
01FFFFF000
007FFFC000
000FFE0000
ENDCHAR
STARTCHAR 00DA
ENCODING 218
SWIDTH 600 0
DWIDTH 48 0
BBX 36 77 6 -1
BITMAP
000003FE00
000003FC00
000007FC00
00000FF800
00000FF000
00001FE000
00001FC000
00003F8000
00007F0000
00007E0000
0000FC0000
0001F80000
0001F00000
0000000000
0000000000
0000000000
0000000000
0000000000
FE000007F0
FE000007F0
FE000007F0
FE000007F0
FE000007F0
FE000007F0
FE000007F0
FE000007F0
FE000007F0
FE000007F0
FE000007F0
FE000007F0
FE000007F0
FE000007F0
FE000007F0
FE000007F0
FE000007F0
FE000007F0
FE000007F0
FE000007F0
FE000007F0
FE000007F0
FE000007F0
FE000007F0
FE000007F0
FE000007F0
FE000007F0
FE000007F0
FE000007F0
FE000007F0
FE000007F0
FE000007F0
FE000007F0
FE000007F0
FE000007F0
FE000007F0
FE000007F0
FE000007F0
FE000007F0
FE000007F0
FE000007F0
FE000007F0
FE000007F0
FE000007F0
FE00000FF0
FF00000FF0
7F00000FE0
7F00000FE0
7F80001FE0
3FC0003FC0
3FC0003FC0
1FF000FF80
1FFC03FF80
0FFFFFFF00
07FFFFFE00
03FFFFFC00
01FFFFF000
007FFFC000
000FFE0000
ENDCHAR
STARTCHAR 00DB
ENCODING 219
SWIDTH 600 0
DWIDTH 48 0
BBX 36 77 6 -1
BITMAP
0003FC0000
0007FC0000
0007FE0000
000FFF0000
001FFF8000
003FFF8000
007F9FC000
007F0FE000
00FE07F000
01FC03F800
03F001FC00
07E000FE00
0FC0003F00
0000000000
0000000000
0000000000
0000000000
0000000000
FE000007F0
FE000007F0
FE000007F0
FE000007F0
FE000007F0
FE000007F0
FE000007F0
FE000007F0
FE000007F0
FE000007F0
FE000007F0
FE000007F0
FE000007F0
FE000007F0
FE000007F0
FE000007F0
FE000007F0
FE000007F0
FE000007F0
FE000007F0
FE000007F0
FE000007F0
FE000007F0
FE000007F0
FE000007F0
FE000007F0
FE000007F0
FE000007F0
FE000007F0
FE000007F0
FE000007F0
FE000007F0
FE000007F0
FE000007F0
FE000007F0
FE000007F0
FE000007F0
FE000007F0
FE000007F0
FE000007F0
FE000007F0
FE000007F0
FE000007F0
FE000007F0
FE00000FF0
FF00000FF0
7F00000FE0
7F00000FE0
7F80001FE0
3FC0003FC0
3FC0003FC0
1FF000FF80
1FFC03FF80
0FFFFFFF00
07FFFFFE00
03FFFFFC00
01FFFFF000
007FFFC000
000FFE0000
ENDCHAR
STARTCHAR 00DC
ENCODING 220
SWIDTH 600 0
DWIDTH 48 0
BBX 36 74 6 -1
BITMAP
01E0007800
07F000FE00
07F801FE00
07F801FE00
0FF801FF00
07F801FE00
07F801FE00
07F000FE00
01E0007800
0000000000
0000000000
0000000000
0000000000
0000000000
0000000000
FE000007F0
FE000007F0
FE000007F0
FE000007F0
FE000007F0
FE000007F0
FE000007F0
FE000007F0
FE000007F0
FE000007F0
FE000007F0
FE000007F0
FE000007F0
FE000007F0
FE000007F0
FE000007F0
FE000007F0
FE000007F0
FE000007F0
FE000007F0
FE000007F0
FE000007F0
FE000007F0
FE000007F0
FE000007F0
FE000007F0
FE000007F0
FE000007F0
FE000007F0
FE000007F0
FE000007F0
FE000007F0
FE000007F0
FE000007F0
FE000007F0
FE000007F0
FE000007F0
FE000007F0
FE000007F0
FE000007F0
FE000007F0
FE000007F0
FE000007F0
FE000007F0
FE00000FF0
FF00000FF0
7F00000FE0
7F00000FE0
7F80001FE0
3FC0003FC0
3FC0003FC0
1FF000FF80
1FFC03FF80
0FFFFFFF00
07FFFFFE00
03FFFFFC00
01FFFFF000
007FFFC000
000FFE0000
ENDCHAR
STARTCHAR 00DD
ENCODING 221
SWIDTH 600 0
DWIDTH 48 0
BBX 42 76 3 0
BITMAP
0000007FC000
0000007F8000
000000FF8000
000001FF0000
000001FE0000
000003FC0000
000003F80000
000007F00000
00000FE00000
00000FC00000
00001F800000
00003F000000
00003E000000
000000000000
000000000000
000000000000
000000000000
000000000000
FF0000003FC0
7F0000003F80
7F8000007F80
3F8000007F00
3FC00000FF00
1FC00000FE00
1FE00000FE00
0FE00001FC00
0FF00001FC00
07F00003F800
07F00003F800
03F80007F000
03F80007F000
01FC000FE000
01FC000FE000
00FE001FC000
00FE001FC000
007F001F8000
007F003F8000
003F803F0000
003F807F0000
001F807E0000
001FC0FE0000
000FC0FC0000
000FE1FC0000
0007E1F80000
0007F3F80000
0003F3F00000
0003FBF00000
0001FFF00000
0001FFE00000
0000FFE00000
0000FFC00000
00007FC00000
00007F800000
00003F800000
00003F000000
00003F000000
00003F000000
00003F000000
00003F000000
00003F000000
00003F000000
00003F000000
00003F000000
00003F000000
00003F000000
00003F000000
00003F000000
00003F000000
00003F000000
00003F000000
00003F000000
00003F000000
00003F000000
00003F000000
00003F000000
00003F000000
ENDCHAR
STARTCHAR 00DE
ENCODING 222
SWIDTH 600 0
DWIDTH 48 0
BBX 36 58 8 0
BITMAP
FE00000000
FE00000000
FE00000000
FE00000000
FE00000000
FE00000000
FE00000000
FE00000000
FE00000000
FE00000000
FE00000000
FFFFF80000
FFFFFFC000
FFFFFFF000
FFFFFFFC00
FFFFFFFE00
FFFFFFFF00
FE000FFF80
FE0001FF80
FE00007FC0
FE00003FC0
FE00003FE0
FE00001FE0
FE00001FE0
FE00000FE0
FE00000FE0
FE00000FF0
FE00000FF0
FE00000FF0
FE00000FF0
FE00000FE0
FE00000FE0
FE00000FE0
FE00001FE0
FE00001FC0
FE00003FC0
FE00003FC0
FE0000FF80
FE0001FF80
FE000FFF00
FFFFFFFE00
FFFFFFFC00
FFFFFFF800
FFFFFFE000
FFFFFF8000
FFFFF80000
FE00000000
FE00000000
FE00000000
FE00000000
FE00000000
FE00000000
FE00000000
FE00000000
FE00000000
FE00000000
FE00000000
FE00000000
ENDCHAR
STARTCHAR 00DF
ENCODING 223
SWIDTH 600 0
DWIDTH 48 0
BBX 40 62 6 -1
BITMAP
000FFE0000
00FFFFE000
03FFFFF800
07FFFFFE00
0FFFFFFF00
1FFFFFFF80
3FF803FFC0
7FC0007FC0
7F80003FC0
7F00001FE0
FF00001FE0
FE00000FE0
FE00000FE0
FE00001FE0
FE00001FE0
FE00001FC0
FE00003FC0
FE00007F80
FE0000FF00
FE0001FF00
FE0007FE00
FE000FF800
FE001FF000
FE003FE000
FE003FC000
FE007F8000
FE007F0000
FE007F0000
FE007F0000
FE007F0000
FE007F0000
FE007F8000
FE003FE000
FE003FF000
FE001FFC00
FE000FFE00
FE0007FF00
FE0003FFC0
FE0000FFE0
FE00007FF0
FE00001FF8
FE00000FFC
FE000007FC
FE000001FE
FE000001FE
FE000000FF
FE0000007F
FE0000007F
FE0000007F
FE0000007F
FE0000007F
FE0000007F
FE000000FF
FE020000FE
FE038001FE
FE03F007FE
FE03FFFFFC
FE03FFFFF8
FE03FFFFF0
FE03FFFFE0
FE00FFFF80
00001FFC00
ENDCHAR
STARTCHAR 00E0
ENCODING 224
SWIDTH 600 0
DWIDTH 48 0
BBX 35 63 6 -1
BITMAP
00FF800000
00FF800000
007FC00000
003FC00000
001FE00000
000FE00000
000FF00000
0007F80000
0003F80000
0001FC0000
0000FE0000
00007F0000
00001F0000
0000000000
0000000000
0000000000
0000000000
0000000000
000FFF0000
00FFFFE000
07FFFFF800
1FFFFFFC00
1FFFFFFE00
1FFFFFFF00
0FF003FF80
0F8000FF80
0600003FC0
0000001FC0
0000001FC0
0000000FE0
0000000FE0
0000000FE0
0000000FE0
0000000FE0
0000000FE0
0000000FE0
0007FFFFE0
007FFFFFE0
03FFFFFFE0
07FFFFFFE0
1FFFFFFFE0
3FFE000FE0
3FE0000FE0
7F80000FE0
7F00000FE0
FF00000FE0
FE00000FE0
FE00000FE0
FE00000FE0
FC00001FE0
FC00001FE0
FE00001FE0
FE00003FE0
FE00007FE0
FF0000FFE0
FF8003FFE0
7FE00FFFE0
7FFFFFEFE0
3FFFFFC7E0
1FFFFF87E0
0FFFFE07E0
03FFF807E0
007FE00000
ENDCHAR
STARTCHAR 00E1
ENCODING 225
SWIDTH 600 0
DWIDTH 48 0
BBX 35 63 6 -1
BITMAP
000003FE00
000003FE00
000007FC00
000007F800
00000FF000
00000FE000
00001FE000
00003FC000
00003F8000
00007F0000
0000FE0000
0000FC0000
0001F00000
0000000000
0000000000
0000000000
0000000000
0000000000
000FFF0000
00FFFFE000
07FFFFF800
1FFFFFFC00
1FFFFFFE00
1FFFFFFF00
0FF003FF80
0F8000FF80
0600003FC0
0000001FC0
0000001FC0
0000000FE0
0000000FE0
0000000FE0
0000000FE0
0000000FE0
0000000FE0
0000000FE0
0007FFFFE0
007FFFFFE0
03FFFFFFE0
07FFFFFFE0
1FFFFFFFE0
3FFE000FE0
3FE0000FE0
7F80000FE0
7F00000FE0
FF00000FE0
FE00000FE0
FE00000FE0
FE00000FE0
FC00001FE0
FC00001FE0
FE00001FE0
FE00003FE0
FE00007FE0
FF0000FFE0
FF8003FFE0
7FE00FFFE0
7FFFFFEFE0
3FFFFFC7E0
1FFFFF87E0
0FFFFE07E0
03FFF807E0
007FE00000
ENDCHAR
STARTCHAR 00E2
ENCODING 226
SWIDTH 600 0
DWIDTH 48 0
BBX 35 63 6 -1
BITMAP
0003FC0000
0003FE0000
0007FF0000
000FFF0000
000FFF8000
001FDFC000
003F8FE000
007F07F000
00FE03F800
01FC01F800
03F800FC00
07F0007E00
07C0003F00
0000000000
0000000000
0000000000
0000000000
0000000000
000FFF0000
00FFFFE000
07FFFFF800
1FFFFFFC00
1FFFFFFE00
1FFFFFFF00
0FF003FF80
0F8000FF80
0600003FC0
0000001FC0
0000001FC0
0000000FE0
0000000FE0
0000000FE0
0000000FE0
0000000FE0
0000000FE0
0000000FE0
0007FFFFE0
007FFFFFE0
03FFFFFFE0
07FFFFFFE0
1FFFFFFFE0
3FFE000FE0
3FE0000FE0
7F80000FE0
7F00000FE0
FF00000FE0
FE00000FE0
FE00000FE0
FE00000FE0
FC00001FE0
FC00001FE0
FE00001FE0
FE00003FE0
FE00007FE0
FF0000FFE0
FF8003FFE0
7FE00FFFE0
7FFFFFEFE0
3FFFFFC7E0
1FFFFF87E0
0FFFFE07E0
03FFF807E0
007FE00000
ENDCHAR
STARTCHAR 00E3
ENCODING 227
SWIDTH 600 0
DWIDTH 48 0
BBX 35 60 6 -1
BITMAP
003F000780
00FFC00F80
01FFF00F00
03FFFC1F00
03FFFFFF00
07FFFFFE00
07C1FFFE00
0F807FFC00
0F801FF800
0F0007E000
0000000000
0000000000
0000000000
0000000000
0000000000
000FFF0000
00FFFFE000
07FFFFF800
1FFFFFFC00
1FFFFFFE00
1FFFFFFF00
0FF003FF80
0F8000FF80
0600003FC0
0000001FC0
0000001FC0
0000000FE0
0000000FE0
0000000FE0
0000000FE0
0000000FE0
0000000FE0
0000000FE0
0007FFFFE0
007FFFFFE0
03FFFFFFE0
07FFFFFFE0
1FFFFFFFE0
3FFE000FE0
3FE0000FE0
7F80000FE0
7F00000FE0
FF00000FE0
FE00000FE0
FE00000FE0
FE00000FE0
FC00001FE0
FC00001FE0
FE00001FE0
FE00003FE0
FE00007FE0
FF0000FFE0
FF8003FFE0
7FE00FFFE0
7FFFFFEFE0
3FFFFFC7E0
1FFFFF87E0
0FFFFE07E0
03FFF807E0
007FE00000
ENDCHAR
STARTCHAR 00E4
ENCODING 228
SWIDTH 600 0
DWIDTH 48 0
BBX 35 60 6 -1
BITMAP
01E0007C00
03F800FE00
07F801FF00
07FC01FF00
07FC01FF00
07FC01FF00
07F800FF00
03F800FE00
01E0007C00
0000000000
0000000000
0000000000
0000000000
0000000000
0000000000
000FFF0000
00FFFFE000
07FFFFF800
1FFFFFFC00
1FFFFFFE00
1FFFFFFF00
0FF003FF80
0F8000FF80
0600003FC0
0000001FC0
0000001FC0
0000000FE0
0000000FE0
0000000FE0
0000000FE0
0000000FE0
0000000FE0
0000000FE0
0007FFFFE0
007FFFFFE0
03FFFFFFE0
07FFFFFFE0
1FFFFFFFE0
3FFE000FE0
3FE0000FE0
7F80000FE0
7F00000FE0
FF00000FE0
FE00000FE0
FE00000FE0
FE00000FE0
FC00001FE0
FC00001FE0
FE00001FE0
FE00003FE0
FE00007FE0
FF0000FFE0
FF8003FFE0
7FE00FFFE0
7FFFFFEFE0
3FFFFFC7E0
1FFFFF87E0
0FFFFE07E0
03FFF807E0
007FE00000
ENDCHAR
STARTCHAR 00E5
ENCODING 229
SWIDTH 600 0
DWIDTH 48 0
BBX 35 67 6 -1
BITMAP
0001FC0000
0007FF0000
000FFF8000
001FFFC000
003F0FC000
003E03E000
003C03E000
003C01E000
003C01E000
003C01E000
003C03E000
003E03E000
003F0FC000
001FFFC000
000FFF8000
0007FF0000
0001FC0000
0000000000
0000000000
0000000000
0000000000
0000000000
000FFF0000
00FFFFE000
07FFFFF800
1FFFFFFC00
1FFFFFFE00
1FFFFFFF00
0FF003FF80
0F8000FF80
0600003FC0
0000001FC0
0000001FC0
0000000FE0
0000000FE0
0000000FE0
0000000FE0
0000000FE0
0000000FE0
0000000FE0
0007FFFFE0
007FFFFFE0
03FFFFFFE0
07FFFFFFE0
1FFFFFFFE0
3FFE000FE0
3FE0000FE0
7F80000FE0
7F00000FE0
FF00000FE0
FE00000FE0
FE00000FE0
FE00000FE0
FC00001FE0
FC00001FE0
FE00001FE0
FE00003FE0
FE00007FE0
FF0000FFE0
FF8003FFE0
7FE00FFFE0
7FFFFFEFE0
3FFFFFC7E0
1FFFFF87E0
0FFFFE07E0
03FFF807E0
007FE00000
ENDCHAR
STARTCHAR 00E6
ENCODING 230
SWIDTH 600 0
DWIDTH 48 0
BBX 44 45 2 -1
BITMAP
007F8007F000
03FFE01FFC00
0FFFF03FFE00
3FFFF87FFF00
1FFFFCFFFF80
1FFFFDFFFFC0
0F81FFFC3FC0
0E007FF00FC0
04007FE00FE0
00003FE007E0
00003FC007E0
00003FC007F0
00003FC007F0
00001F8003F0
00001F8003F0
00001F8003F0
00001F8003F0
00001F8003F0
007FFFFFFFF0
03FFFFFFFFF0
0FFFFFFFFFF0
1FFFFFFFFFF0
3FFFFFFFFFF0
3FFFFFFFFFF0
7FE03F800000
7F803F800000
FF003F800000
FE003F800000
FE003F800000
FC003F800000
FC003F800000
FC003FC00000
FC003FC00000
FC003FC00000
FC007FE00000
FC007FE00000
FE00FFF00020
FE01FBF80060
7F83F9FE03E0
7FFFF1FFFFE0
3FFFE0FFFFE0
3FFFE07FFFE0
1FFFC03FFFE0
0FFF001FFF80
03FC0003FC00
ENDCHAR
STARTCHAR 00E7
ENCODING 231
SWIDTH 600 0
DWIDTH 48 0
BBX 33 63 7 -19
BITMAP
0001FFC000
000FFFFC00
007FFFFF80
00FFFFFF80
03FFFFFF80
07FFFFFF00
0FFF003F00
0FFC000700
1FF0000200
3FE0000000
3FC0000000
3F80000000
7F80000000
7F80000000
7F00000000
FF00000000
FF00000000
FF00000000
FE00000000
FE00000000
FE00000000
FE00000000
FE00000000
FE00000000
FE00000000
FE00000000
FE00000000
FE00000000
FF00000000
FF00000000
FF00000000
7F00000000
7F80000000
7F80000000
3FC0000000
3FE0000000
1FF0000080
1FF8000380
0FFF001F80
07FFFFFF80
03FFFFFF80
01FFFFFF80
007FFFFF80
001FFFFE00
0001FFC000
0000780000
0000F80000
0000F80000
0001F80000
0001FE0000
0003FF8000
00007FC000
00000FE000
000007E000
000007E000
000007E000
000007E000
000007E000
00001FC000
001FFFC000
001FFF8000
001FFE0000
001FF00000
ENDCHAR
STARTCHAR 00E8
ENCODING 232
SWIDTH 600 0
DWIDTH 48 0
BBX 38 63 5 -1
BITMAP
007F800000
007FC00000
003FE00000
001FE00000
000FF00000
000FF00000
0007F80000
0003FC0000
0001FC0000
0000FE0000
00007F0000
00003F8000
00000F8000
0000000000
0000000000
0000000000
0000000000
0000000000
0001FF8000
000FFFF000
003FFFFC00
00FFFFFE00
01FFFFFF00
03FFFFFF80
07FF00FFC0
0FFC003FE0
1FF0001FE0
1FE0000FF0
3FC00007F0
3FC00007F8
7F800003F8
7F800003F8
7F000001FC
7F000001FC
FF000001FC
FE000001FC
FFFFFFFFFC
FFFFFFFFFC
FFFFFFFFFC
FFFFFFFFFC
FFFFFFFFFC
FFFFFFFFFC
FE00000000
FE00000000
FE00000000
FE00000000
FF00000000
FF00000000
7F00000000
7F00000000
7F80000000
3FC0000000
3FC0000000
1FE0000000
1FF0000030
0FFC0000F0
07FF800FF0
03FFFFFFF0
01FFFFFFF0
007FFFFFF0
003FFFFFE0
0007FFFF00
0000FFF000
ENDCHAR
STARTCHAR 00E9
ENCODING 233
SWIDTH 600 0
DWIDTH 48 0
BBX 38 63 5 -1
BITMAP
000001FF00
000001FF00
000003FE00
000003FC00
000007F800
00000FF000
00000FE000
00001FE000
00001FC000
00003F8000
00007F0000
0000FC0000
0000F80000
0000000000
0000000000
0000000000
0000000000
0000000000
0001FF8000
000FFFF000
003FFFFC00
00FFFFFE00
01FFFFFF00
03FFFFFF80
07FF00FFC0
0FFC003FE0
1FF0001FE0
1FE0000FF0
3FC00007F0
3FC00007F8
7F800003F8
7F800003F8
7F000001FC
7F000001FC
FF000001FC
FE000001FC
FFFFFFFFFC
FFFFFFFFFC
FFFFFFFFFC
FFFFFFFFFC
FFFFFFFFFC
FFFFFFFFFC
FE00000000
FE00000000
FE00000000
FE00000000
FF00000000
FF00000000
7F00000000
7F00000000
7F80000000
3FC0000000
3FC0000000
1FE0000000
1FF0000030
0FFC0000F0
07FF800FF0
03FFFFFFF0
01FFFFFFF0
007FFFFFF0
003FFFFFE0
0007FFFF00
0000FFF000
ENDCHAR
STARTCHAR 00EA
ENCODING 234
SWIDTH 600 0
DWIDTH 48 0
BBX 38 63 5 -1
BITMAP
0001FE0000
0001FF0000
0003FF0000
0007FF8000
000FFFC000
000FFFE000
001FCFF000
003F87F800
007F03F800
00FE01FC00
01FC007E00
03F8003F00
03E0001F80
0000000000
0000000000
0000000000
0000000000
0000000000
0001FF8000
000FFFF000
003FFFFC00
00FFFFFE00
01FFFFFF00
03FFFFFF80
07FF00FFC0
0FFC003FE0
1FF0001FE0
1FE0000FF0
3FC00007F0
3FC00007F8
7F800003F8
7F800003F8
7F000001FC
7F000001FC
FF000001FC
FE000001FC
FFFFFFFFFC
FFFFFFFFFC
FFFFFFFFFC
FFFFFFFFFC
FFFFFFFFFC
FFFFFFFFFC
FE00000000
FE00000000
FE00000000
FE00000000
FF00000000
FF00000000
7F00000000
7F00000000
7F80000000
3FC0000000
3FC0000000
1FE0000000
1FF0000030
0FFC0000F0
07FF800FF0
03FFFFFFF0
01FFFFFFF0
007FFFFFF0
003FFFFFE0
0007FFFF00
0000FFF000
ENDCHAR
STARTCHAR 00EB
ENCODING 235
SWIDTH 600 0
DWIDTH 48 0
BBX 38 60 5 -1
BITMAP
00F0003E00
01FC007F00
03FC00FF80
03FC00FF80
03FE00FF80
03FC00FF80
03FC00FF00
01FC007F00
00F0003E00
0000000000
0000000000
0000000000
0000000000
0000000000
0000000000
0001FF8000
000FFFF000
003FFFFC00
00FFFFFE00
01FFFFFF00
03FFFFFF80
07FF00FFC0
0FFC003FE0
1FF0001FE0
1FE0000FF0
3FC00007F0
3FC00007F8
7F800003F8
7F800003F8
7F000001FC
7F000001FC
FF000001FC
FE000001FC
FFFFFFFFFC
FFFFFFFFFC
FFFFFFFFFC
FFFFFFFFFC
FFFFFFFFFC
FFFFFFFFFC
FE00000000
FE00000000
FE00000000
FE00000000
FF00000000
FF00000000
7F00000000
7F00000000
7F80000000
3FC0000000
3FC0000000
1FE0000000
1FF0000030
0FFC0000F0
07FF800FF0
03FFFFFFF0
01FFFFFFF0
007FFFFFF0
003FFFFFE0
0007FFFF00
0000FFF000
ENDCHAR
STARTCHAR 00EC
ENCODING 236
SWIDTH 600 0
DWIDTH 48 0
BBX 37 62 6 0
BITMAP
00FF000000
00FF800000
007F800000
007FC00000
003FC00000
001FE00000
000FF00000
0007F00000
0003F80000
0001FC0000
0000FC0000
00007E0000
00003F0000
0000000000
0000000000
0000000000
0000000000
0000000000
0000000000
3FFFFE0000
3FFFFE0000
3FFFFE0000
3FFFFE0000
3FFFFE0000
1FFFFE0000
0000FE0000
0000FE0000
0000FE0000
0000FE0000
0000FE0000
0000FE0000
0000FE0000
0000FE0000
0000FE0000
0000FE0000
0000FE0000
0000FE0000
0000FE0000
0000FE0000
0000FE0000
0000FE0000
0000FE0000
0000FE0000
0000FE0000
0000FE0000
0000FE0000
0000FE0000
0000FE0000
0000FE0000
0000FE0000
0000FE0000
0000FE0000
0000FE0000
0000FE0000
0000FE0000
0000FE0000
003FFFF000
FFFFFFFFF8
FFFFFFFFF8
FFFFFFFFF8
FFFFFFFFF8
FFFFFFFFF8
ENDCHAR
STARTCHAR 00ED
ENCODING 237
SWIDTH 600 0
DWIDTH 48 0
BBX 37 62 6 0
BITMAP
000003FE00
000003FC00
000007FC00
00000FF800
00000FF000
00001FE000
00001FC000
00003F8000
00007F0000
00007E0000
0000FC0000
0001F80000
0001F00000
0000000000
0000000000
0000000000
0000000000
0000000000
0000000000
3FFFFE0000
3FFFFE0000
3FFFFE0000
3FFFFE0000
3FFFFE0000
1FFFFE0000
0000FE0000
0000FE0000
0000FE0000
0000FE0000
0000FE0000
0000FE0000
0000FE0000
0000FE0000
0000FE0000
0000FE0000
0000FE0000
0000FE0000
0000FE0000
0000FE0000
0000FE0000
0000FE0000
0000FE0000
0000FE0000
0000FE0000
0000FE0000
0000FE0000
0000FE0000
0000FE0000
0000FE0000
0000FE0000
0000FE0000
0000FE0000
0000FE0000
0000FE0000
0000FE0000
0000FE0000
003FFFF000
FFFFFFFFF8
FFFFFFFFF8
FFFFFFFFF8
FFFFFFFFF8
FFFFFFFFF8
ENDCHAR
STARTCHAR 00EE
ENCODING 238
SWIDTH 600 0
DWIDTH 48 0
BBX 37 62 6 0
BITMAP
0003FC0000
0007FC0000
0007FE0000
000FFF0000
001FFF8000
003FFF8000
007F9FC000
007F0FE000
00FE07F000
01FC03F800
03F001FC00
07E000FE00
0FC0003F00
0000000000
0000000000
0000000000
0000000000
0000000000
0000000000
3FFFFE0000
3FFFFE0000
3FFFFE0000
3FFFFE0000
3FFFFE0000
1FFFFE0000
0000FE0000
0000FE0000
0000FE0000
0000FE0000
0000FE0000
0000FE0000
0000FE0000
0000FE0000
0000FE0000
0000FE0000
0000FE0000
0000FE0000
0000FE0000
0000FE0000
0000FE0000
0000FE0000
0000FE0000
0000FE0000
0000FE0000
0000FE0000
0000FE0000
0000FE0000
0000FE0000
0000FE0000
0000FE0000
0000FE0000
0000FE0000
0000FE0000
0000FE0000
0000FE0000
0000FE0000
003FFFF000
FFFFFFFFF8
FFFFFFFFF8
FFFFFFFFF8
FFFFFFFFF8
FFFFFFFFF8
ENDCHAR
STARTCHAR 00EF
ENCODING 239
SWIDTH 600 0
DWIDTH 48 0
BBX 37 59 6 0
BITMAP
01E0007800
07F000FE00
07F801FE00
07F801FE00
0FF801FF00
07F801FE00
07F801FE00
07F000FE00
01E0007800
0000000000
0000000000
0000000000
0000000000
0000000000
0000000000
0000000000
3FFFFE0000
3FFFFE0000
3FFFFE0000
3FFFFE0000
3FFFFE0000
1FFFFE0000
0000FE0000
0000FE0000
0000FE0000
0000FE0000
0000FE0000
0000FE0000
0000FE0000
0000FE0000
0000FE0000
0000FE0000
0000FE0000
0000FE0000
0000FE0000
0000FE0000
0000FE0000
0000FE0000
0000FE0000
0000FE0000
0000FE0000
0000FE0000
0000FE0000
0000FE0000
0000FE0000
0000FE0000
0000FE0000
0000FE0000
0000FE0000
0000FE0000
0000FE0000
0000FE0000
0000FE0000
003FFFF000
FFFFFFFFF8
FFFFFFFFF8
FFFFFFFFF8
FFFFFFFFF8
FFFFFFFFF8
ENDCHAR
STARTCHAR 00F0
ENCODING 240
SWIDTH 600 0
DWIDTH 48 0
BBX 40 63 4 -1
BITMAP
0004000000
0006000180
000F8003C0
001FE00FC0
001FF03FE0
003FFCFFF0
000FFFFF80
0003FFFF00
0000FFFC00
00007FF000
0000FFE000
0003FFF000
000FFFF800
001FFBFC00
007FF1FE00
007FC0FF00
003F007F00
001E003F80
0018001FC0
0000001FC0
0000000FE0
00000007E0
00000007F0
00000003F0
0003FF03F8
001FFFE1F8
007FFFF9F8
01FFFFFCFC
03FFFFFEFC
07FFFFFFFC
0FFE007FFC
0FF8001FFE
1FE00007FE
3FC00003FE
3FC00003FE
3F800001FE
7F800001FE
7F000000FF
7F000000FF
7F000000FF
7F000000FF
FF000000FF
FF000000FF
FF000000FE
FF000000FE
FF000000FE
7F000000FE
7F000000FE
7F000000FE
7F000001FC
7F800001FC
3F800001FC
3FC00003F8
1FE00007F8
1FF0000FF0
0FF8001FF0
07FE007FE0
03FFFFFFC0
01FFFFFF80
00FFFFFF00
003FFFFC00
000FFFF000
0001FF8000
ENDCHAR
STARTCHAR 00F1
ENCODING 241
SWIDTH 600 0
DWIDTH 48 0
BBX 36 59 6 0
BITMAP
003F000780
007FC00780
01FFF00F80
01FFFC1F80
03FFFFFF00
03FFFFFF00
07E0FFFE00
07C03FFC00
07801FF800
078003F000
0000000000
0000000000
0000000000
0000000000
0000000000
00007FC000
FC03FFF800
FC0FFFFE00
FE3FFFFF00
FE7FFFFF80
FE7FFFFFC0
FEFE00FFC0
FFF8003FE0
FFF0001FE0
FFE0001FE0
FFC0000FF0
FFC0000FF0
FF80000FF0
FF800007F0
FF000007F0
FF000007F0
FF000007F0
FF000007F0
FF000007F0
FF000007F0
FF000007F0
FF000007F0
FF000007F0
FF000007F0
FF000007F0
FF000007F0
FF000007F0
FF000007F0
FF000007F0
FF000007F0
FF000007F0
FF000007F0
FF000007F0
FF000007F0
FF000007F0
FF000007F0
FF000007F0
FF000007F0
FF000007F0
FF000007F0
FF000007F0
FF000007F0
FF000007F0
FF000007F0
ENDCHAR
STARTCHAR 00F2
ENCODING 242
SWIDTH 600 0
DWIDTH 48 0
BBX 40 63 4 -1
BITMAP
003FC00000
003FE00000
001FE00000
001FF00000
000FF00000
0007F80000
0003FC0000
0001FC0000
0000FE0000
00007F0000
00003F0000
00001F8000
00000FC000
0000000000
0000000000
0000000000
0000000000
0000000000
0001FF8000
000FFFF000
003FFFFC00
00FFFFFF00
01FFFFFF80
03FFFFFFC0
07FF00FFE0
0FF8003FF0
0FF0000FF0
1FE00007F8
1FC00007F8
3FC00003FC
3F800003FC
7F800001FC
7F800001FE
7F000000FE
7F000000FE
7F000000FE
7F000000FE
FF000000FE
FF000000FF
FF000000FF
FF000000FF
FF000000FF
FF000000FF
7F000000FE
7F000000FE
7F000000FE
7F000000FE
7F000001FE
7F800001FE
3F800001FC
3F800003FC
3FC00003FC
1FE00007F8
1FE00007F8
0FF0000FF0
0FFC003FF0
07FF00FFE0
03FFFFFFC0
01FFFFFF80
00FFFFFF00
003FFFFC00
000FFFF000
0001FF8000
ENDCHAR
STARTCHAR 00F3
ENCODING 243
SWIDTH 600 0
DWIDTH 48 0
BBX 40 63 4 -1
BITMAP
000000FF80
000000FF00
000001FF00
000003FE00
000003FC00
000007F800
000007F000
00000FE000
00001FC000
00001F8000
00003F0000
00007E0000
00007C0000
0000000000
0000000000
0000000000
0000000000
0000000000
0001FF8000
000FFFF000
003FFFFC00
00FFFFFF00
01FFFFFF80
03FFFFFFC0
07FF00FFE0
0FF8003FF0
0FF0000FF0
1FE00007F8
1FC00007F8
3FC00003FC
3F800003FC
7F800001FC
7F800001FE
7F000000FE
7F000000FE
7F000000FE
7F000000FE
FF000000FE
FF000000FF
FF000000FF
FF000000FF
FF000000FF
FF000000FF
7F000000FE
7F000000FE
7F000000FE
7F000000FE
7F000001FE
7F800001FE
3F800001FC
3F800003FC
3FC00003FC
1FE00007F8
1FE00007F8
0FF0000FF0
0FFC003FF0
07FF00FFE0
03FFFFFFC0
01FFFFFF80
00FFFFFF00
003FFFFC00
000FFFF000
0001FF8000
ENDCHAR
STARTCHAR 00F4
ENCODING 244
SWIDTH 600 0
DWIDTH 48 0
BBX 40 63 4 -1
BITMAP
0000FF0000
0001FF0000
0001FF8000
0003FFC000
0007FFE000
000FFFE000
001FE7F000
001FC3F800
003F81FC00
007F00FE00
00FC007F00
01F8003F80
03F0000FC0
0000000000
0000000000
0000000000
0000000000
0000000000
0001FF8000
000FFFF000
003FFFFC00
00FFFFFF00
01FFFFFF80
03FFFFFFC0
07FF00FFE0
0FF8003FF0
0FF0000FF0
1FE00007F8
1FC00007F8
3FC00003FC
3F800003FC
7F800001FC
7F800001FE
7F000000FE
7F000000FE
7F000000FE
7F000000FE
FF000000FE
FF000000FF
FF000000FF
FF000000FF
FF000000FF
FF000000FF
7F000000FE
7F000000FE
7F000000FE
7F000000FE
7F000001FE
7F800001FE
3F800001FC
3F800003FC
3FC00003FC
1FE00007F8
1FE00007F8
0FF0000FF0
0FFC003FF0
07FF00FFE0
03FFFFFFC0
01FFFFFF80
00FFFFFF00
003FFFFC00
000FFFF000
0001FF8000
ENDCHAR
STARTCHAR 00F5
ENCODING 245
SWIDTH 600 0
DWIDTH 48 0
BBX 40 60 4 -1
BITMAP
001F8003C0
003FF003C0
007FF807C0
00FFFE0FC0
01FFFFFF80
01FFFFFF80
03F07FFF00
03E01FFE00
03C007FC00
03C001F800
0000000000
0000000000
0000000000
0000000000
0000000000
0001FF8000
000FFFF000
003FFFFC00
00FFFFFF00
01FFFFFF80
03FFFFFFC0
07FF00FFE0
0FF8003FF0
0FF0000FF0
1FE00007F8
1FC00007F8
3FC00003FC
3F800003FC
7F800001FC
7F800001FE
7F000000FE
7F000000FE
7F000000FE
7F000000FE
FF000000FE
FF000000FF
FF000000FF
FF000000FF
FF000000FF
FF000000FF
7F000000FE
7F000000FE
7F000000FE
7F000000FE
7F000001FE
7F800001FE
3F800001FC
3F800003FC
3FC00003FC
1FE00007F8
1FE00007F8
0FF0000FF0
0FFC003FF0
07FF00FFE0
03FFFFFFC0
01FFFFFF80
00FFFFFF00
003FFFFC00
000FFFF000
0001FF8000
ENDCHAR
STARTCHAR 00F6
ENCODING 246
SWIDTH 600 0
DWIDTH 48 0
BBX 40 60 4 -1
BITMAP
0078001E00
01FC003F80
01FE007F80
01FE007F80
03FE007FC0
01FE007F80
01FE007F80
01FC003F80
0078001E00
0000000000
0000000000
0000000000
0000000000
0000000000
0000000000
0001FF8000
000FFFF000
003FFFFC00
00FFFFFF00
01FFFFFF80
03FFFFFFC0
07FF00FFE0
0FF8003FF0
0FF0000FF0
1FE00007F8
1FC00007F8
3FC00003FC
3F800003FC
7F800001FC
7F800001FE
7F000000FE
7F000000FE
7F000000FE
7F000000FE
FF000000FE
FF000000FF
FF000000FF
FF000000FF
FF000000FF
FF000000FF
7F000000FE
7F000000FE
7F000000FE
7F000000FE
7F000001FE
7F800001FE
3F800001FC
3F800003FC
3FC00003FC
1FE00007F8
1FE00007F8
0FF0000FF0
0FFC003FF0
07FF00FFE0
03FFFFFFC0
01FFFFFF80
00FFFFFF00
003FFFFC00
000FFFF000
0001FF8000
ENDCHAR
STARTCHAR 00F7
ENCODING 247
SWIDTH 600 0
DWIDTH 48 0
BBX 36 37 6 10
BITMAP
0000F00000
0003F80000
0003FC0000
0003FC0000
0007FC0000
0007FC0000
0003FC0000
0003FC0000
0003F80000
0000F00000
0000000000
0000000000
0000000000
0000000000
0000000000
FFFFFFFFF0
FFFFFFFFF0
FFFFFFFFF0
FFFFFFFFF0
FFFFFFFFF0
FFFFFFFFF0
0000000000
0000000000
0000000000
0000000000
0000000000
0000000000
0000F00000
0003F80000
0003FC0000
0003FC0000
0007FC0000
0007FC0000
0003FC0000
0003FC0000
0003F80000
0000F00000
ENDCHAR
STARTCHAR 00F8
ENCODING 248
SWIDTH 600 0
DWIDTH 48 0
BBX 40 49 4 -3
BITMAP
0000000040
0000000070
0001FF80F8
000FFFF0FE
003FFFFDFC
00FFFFFFF8
01FFFFFFF8
03FFFFFFF0
07FF00FFE0
0FFC003FE0
0FF0001FF0
1FE0003FF8
1FC0007FF8
3FC0007FFC
3F8000FFFC
7F8001FDFC
7F8001FDFE
7F0003F9FE
7F0007F0FE
7F000FE0FE
7F000FE0FE
FF001FC0FE
FF003F80FF
FF003F80FF
FF007F00FF
FF00FE00FF
FF00FC00FF
7F01FC00FE
7F03F800FE
7F07F000FE
7F07F000FE
7F0FE000FE
7F9FC001FE
3F9F8001FC
3FBF8003FC
3FFF0003FC
1FFE0007F8
1FFE0007F8
0FFC000FF0
0FFC003FF0
07FF00FFE0
07FFFFFFC0
0FFFFFFF80
1FFFFFFF00
1FFFFFFC00
3F8FFFF000
1F01FF8000
0700000000
0200000000
ENDCHAR
STARTCHAR 00F9
ENCODING 249
SWIDTH 600 0
DWIDTH 48 0
BBX 36 63 6 -1
BITMAP
00FF000000
00FF800000
007F800000
007FC00000
003FC00000
001FE00000
000FF00000
0007F00000
0003F80000
0001FC0000
0000FC0000
00007E0000
00003F0000
0000000000
0000000000
0000000000
0000000000
0000000000
0000000000
FE00000FF0
FE00000FF0
FE00000FF0
FE00000FF0
FE00000FF0
FE00000FF0
FE00000FF0
FE00000FF0
FE00000FF0
FE00000FF0
FE00000FF0
FE00000FF0
FE00000FF0
FE00000FF0
FE00000FF0
FE00000FF0
FE00000FF0
FE00000FF0
FE00000FF0
FE00000FF0
FE00000FF0
FE00000FF0
FE00000FF0
FE00000FF0
FE00000FF0
FE00000FF0
FE00000FF0
FE00000FF0
FE00000FF0
FE00000FF0
FE00001FF0
FF00001FF0
FF00001FF0
FF00003FF0
7F80007FF0
7F80007FF0
7FC001FFF0
3FF007F7F0
3FFFFFF7F0
1FFFFFE7F0
0FFFFFC7F0
07FFFF83F0
01FFFE03F0
003FF00000
ENDCHAR
STARTCHAR 00FA
ENCODING 250
SWIDTH 600 0
DWIDTH 48 0
BBX 36 63 6 -1
BITMAP
000003FE00
000003FC00
000007FC00
00000FF800
00000FF000
00001FE000
00001FC000
00003F8000
00007F0000
00007E0000
0000FC0000
0001F80000
0001F00000
0000000000
0000000000
0000000000
0000000000
0000000000
0000000000
FE00000FF0
FE00000FF0
FE00000FF0
FE00000FF0
FE00000FF0
FE00000FF0
FE00000FF0
FE00000FF0
FE00000FF0
FE00000FF0
FE00000FF0
FE00000FF0
FE00000FF0
FE00000FF0
FE00000FF0
FE00000FF0
FE00000FF0
FE00000FF0
FE00000FF0
FE00000FF0
FE00000FF0
FE00000FF0
FE00000FF0
FE00000FF0
FE00000FF0
FE00000FF0
FE00000FF0
FE00000FF0
FE00000FF0
FE00000FF0
FE00001FF0
FF00001FF0
FF00001FF0
FF00003FF0
7F80007FF0
7F80007FF0
7FC001FFF0
3FF007F7F0
3FFFFFF7F0
1FFFFFE7F0
0FFFFFC7F0
07FFFF83F0
01FFFE03F0
003FF00000
ENDCHAR
STARTCHAR 00FB
ENCODING 251
SWIDTH 600 0
DWIDTH 48 0
BBX 36 63 6 -1
BITMAP
0003FC0000
0007FC0000
0007FE0000
000FFF0000
001FFF8000
003FFF8000
007F9FC000
007F0FE000
00FE07F000
01FC03F800
03F001FC00
07E000FE00
0FC0003F00
0000000000
0000000000
0000000000
0000000000
0000000000
0000000000
FE00000FF0
FE00000FF0
FE00000FF0
FE00000FF0
FE00000FF0
FE00000FF0
FE00000FF0
FE00000FF0
FE00000FF0
FE00000FF0
FE00000FF0
FE00000FF0
FE00000FF0
FE00000FF0
FE00000FF0
FE00000FF0
FE00000FF0
FE00000FF0
FE00000FF0
FE00000FF0
FE00000FF0
FE00000FF0
FE00000FF0
FE00000FF0
FE00000FF0
FE00000FF0
FE00000FF0
FE00000FF0
FE00000FF0
FE00000FF0
FE00001FF0
FF00001FF0
FF00001FF0
FF00003FF0
7F80007FF0
7F80007FF0
7FC001FFF0
3FF007F7F0
3FFFFFF7F0
1FFFFFE7F0
0FFFFFC7F0
07FFFF83F0
01FFFE03F0
003FF00000
ENDCHAR
STARTCHAR 00FC
ENCODING 252
SWIDTH 600 0
DWIDTH 48 0
BBX 36 60 6 -1
BITMAP
01E0007800
07F000FE00
07F801FE00
07F801FE00
0FF801FF00
07F801FE00
07F801FE00
07F000FE00
01E0007800
0000000000
0000000000
0000000000
0000000000
0000000000
0000000000
0000000000
FE00000FF0
FE00000FF0
FE00000FF0
FE00000FF0
FE00000FF0
FE00000FF0
FE00000FF0
FE00000FF0
FE00000FF0
FE00000FF0
FE00000FF0
FE00000FF0
FE00000FF0
FE00000FF0
FE00000FF0
FE00000FF0
FE00000FF0
FE00000FF0
FE00000FF0
FE00000FF0
FE00000FF0
FE00000FF0
FE00000FF0
FE00000FF0
FE00000FF0
FE00000FF0
FE00000FF0
FE00000FF0
FE00000FF0
FE00000FF0
FE00001FF0
FF00001FF0
FF00001FF0
FF00003FF0
7F80007FF0
7F80007FF0
7FC001FFF0
3FF007F7F0
3FFFFFF7F0
1FFFFFE7F0
0FFFFFC7F0
07FFFF83F0
01FFFE03F0
003FF00000
ENDCHAR
STARTCHAR 00FD
ENCODING 253
SWIDTH 600 0
DWIDTH 48 0
BBX 40 81 4 -19
BITMAP
000000FF80
000000FF00
000001FF00
000003FE00
000003FC00
000007F800
000007F000
00000FE000
00001FC000
00001F8000
00003F0000
00007E0000
00007C0000
0000000000
0000000000
0000000000
0000000000
0000000000
0000000000
FE0000007F
FE000000FF
7F000000FE
7F000000FE
7F000001FE
3F800001FC
3F800001FC
1FC00003FC
1FC00003F8
0FE00003F8
0FE00007F0
0FE00007F0
07F00007F0
07F0000FE0
03F8000FE0
03F8000FE0
03F8001FC0
01FC001FC0
01FC001F80
00FE003F80
00FE003F80
007E003F00
007F007F00
007F007F00
003F807E00
003F80FE00
001F80FC00
001FC0FC00
000FC1FC00
000FE1F800
000FE1F800
0007E3F800
0007F3F000
0003F3F000
0003F3E000
0003F7E000
0001FFE000
0001FFC000
0000FFC000
0000FFC000
00007F8000
00007F8000
00007F0000
00007F0000
00007F0000
00007E0000
0000FE0000
0000FE0000
0001FC0000
0001FC0000
0003F80000
0003F80000
0007F80000
0007F00000
000FE00000
003FE00000
7FFFC00000
7FFFC00000
7FFF800000
7FFE000000
7FFC000000
3FE0000000
ENDCHAR
STARTCHAR 00FE
ENCODING 254
SWIDTH 600 0
DWIDTH 48 0
BBX 38 80 6 -19
BITMAP
FF00000000
FF00000000
FF00000000
FF00000000
FF00000000
FF00000000
FF00000000
FF00000000
FF00000000
FF00000000
FF00000000
FF00000000
FF00000000
FF00000000
FF00000000
FF00000000
FF00000000
FF00FF8000
FE07FFF000
FE1FFFF800
FE3FFFFE00
FE7FFFFF00
FEFFFFFF80
FEFE01FFC0
FFF8007FC0
FFE0003FE0
FFC0001FE0
FFC0000FF0
FF80000FF0
FF800007F0
FF000007F8
FF000007F8
FF000003F8
FF000003F8
FF000003F8
FF000003F8
FF000003F8
FF000003FC
FF000003FC
FF000003FC
FF000003FC
FF000003FC
FF000003F8
FF000003F8
FF000003F8
FF000003F8
FF000003F8
FF000007F8
FF800007F8
FF800007F0
FF80000FF0
FFC0000FF0
FFE0001FE0
FFE0003FE0
FFF8007FC0
FFFE01FF80
FEFFFFFF80
FE7FFFFF00
FE3FFFFE00
FE0FFFF800
FE07FFF000
FF00FF8000
FF00000000
FF00000000
FF00000000
FF00000000
FF00000000
FF00000000
FF00000000
FF00000000
FF00000000
FF00000000
FF00000000
FF00000000
FF00000000
FF00000000
FF00000000
FF00000000
FF00000000
FF00000000
ENDCHAR
STARTCHAR 00FF
ENCODING 255
SWIDTH 600 0
DWIDTH 48 0
BBX 40 78 4 -19
BITMAP
0078001E00
01FC003F80
01FE007F80
01FE007F80
03FE007FC0
01FE007F80
01FE007F80
01FC003F80
0078001E00
0000000000
0000000000
0000000000
0000000000
0000000000
0000000000
0000000000
FE0000007F
FE000000FF
7F000000FE
7F000000FE
7F000001FE
3F800001FC
3F800001FC
1FC00003FC
1FC00003F8
0FE00003F8
0FE00007F0
0FE00007F0
07F00007F0
07F0000FE0
03F8000FE0
03F8000FE0
03F8001FC0
01FC001FC0
01FC001F80
00FE003F80
00FE003F80
007E003F00
007F007F00
007F007F00
003F807E00
003F80FE00
001F80FC00
001FC0FC00
000FC1FC00
000FE1F800
000FE1F800
0007E3F800
0007F3F000
0003F3F000
0003F3E000
0003F7E000
0001FFE000
0001FFC000
0000FFC000
0000FFC000
00007F8000
00007F8000
00007F0000
00007F0000
00007F0000
00007E0000
0000FE0000
0000FE0000
0001FC0000
0001FC0000
0003F80000
0003F80000
0007F80000
0007F00000
000FE00000
003FE00000
7FFFC00000
7FFFC00000
7FFF800000
7FFE000000
7FFC000000
3FE0000000
ENDCHAR
STARTCHAR 0100
ENCODING 256
SWIDTH 600 0
DWIDTH 48 0
BBX 44 70 2 0
BITMAP
003FFFFFC000
003FFFFFC000
003FFFFFC000
003FFFFFC000
003FFFFFC000
003FFFFFC000
000000000000
000000000000
000000000000
000000000000
000000000000
000000000000
00003FC00000
00003FC00000
00007FE00000
00007FE00000
00007FE00000
0000FFF00000
0000FFF00000
0000FFF00000
0001FFF80000
0001FFF80000
0001FBF80000
0003F9F80000
0003F9FC0000
0003F9FC0000
0007F0FC0000
0007F0FE0000
0007F0FE0000
0007E0FE0000
000FE07F0000
000FE07F0000
000FE07F0000
001FC03F8000
001FC03F8000
001FC03F8000
003F801FC000
003F801FC000
003F801FC000
007F000FE000
007F000FE000
007F000FE000
00FE000FF000
00FE0007F000
00FE0007F000
01FE0007F800
01FFFFFFF800
01FFFFFFF800
03FFFFFFFC00
03FFFFFFFC00
03FFFFFFFC00
07FFFFFFFC00
07F00000FE00
07F00000FE00
07F00000FE00
0FE000007F00
0FE000007F00
0FE000007F00
1FC000003F80
1FC000003F80
1FC000003F80
3F8000003FC0
3F8000001FC0
3F8000001FC0
7F8000001FE0
7F0000000FE0
7F0000000FE0
FF0000000FF0
FE00000007F0
FE00000007F0
ENDCHAR
STARTCHAR 0101
ENCODING 257
SWIDTH 600 0
DWIDTH 48 0
BBX 35 57 6 -1
BITMAP
03FFFFFC00
03FFFFFC00
03FFFFFC00
03FFFFFC00
03FFFFFC00
03FFFFFC00
0000000000
0000000000
0000000000
0000000000
0000000000
0000000000
000FFF0000
00FFFFE000
07FFFFF800
1FFFFFFC00
1FFFFFFE00
1FFFFFFF00
0FF003FF80
0F8000FF80
0600003FC0
0000001FC0
0000001FC0
0000000FE0
0000000FE0
0000000FE0
0000000FE0
0000000FE0
0000000FE0
0000000FE0
0007FFFFE0
007FFFFFE0
03FFFFFFE0
07FFFFFFE0
1FFFFFFFE0
3FFE000FE0
3FE0000FE0
7F80000FE0
7F00000FE0
FF00000FE0
FE00000FE0
FE00000FE0
FE00000FE0
FC00001FE0
FC00001FE0
FE00001FE0
FE00003FE0
FE00007FE0
FF0000FFE0
FF8003FFE0
7FE00FFFE0
7FFFFFEFE0
3FFFFFC7E0
1FFFFF87E0
0FFFFE07E0
03FFF807E0
007FE00000
ENDCHAR
STARTCHAR 0102
ENCODING 258
SWIDTH 600 0
DWIDTH 48 0
BBX 44 74 2 0
BITMAP
003C0003C000
003E0007C000
003E0007C000
003F000FC000
003F801F8000
001FE07F8000
000FFFFF0000
000FFFFE0000
0003FFFC0000
0001FFF80000
00003FC00000
000000000000
000000000000
000000000000
000000000000
000000000000
00003FC00000
00003FC00000
00007FE00000
00007FE00000
00007FE00000
0000FFF00000
0000FFF00000
0000FFF00000
0001FFF80000
0001FFF80000
0001FBF80000
0003F9F80000
0003F9FC0000
0003F9FC0000
0007F0FC0000
0007F0FE0000
0007F0FE0000
0007E0FE0000
000FE07F0000
000FE07F0000
000FE07F0000
001FC03F8000
001FC03F8000
001FC03F8000
003F801FC000
003F801FC000
003F801FC000
007F000FE000
007F000FE000
007F000FE000
00FE000FF000
00FE0007F000
00FE0007F000
01FE0007F800
01FFFFFFF800
01FFFFFFF800
03FFFFFFFC00
03FFFFFFFC00
03FFFFFFFC00
07FFFFFFFC00
07F00000FE00
07F00000FE00
07F00000FE00
0FE000007F00
0FE000007F00
0FE000007F00
1FC000003F80
1FC000003F80
1FC000003F80
3F8000003FC0
3F8000001FC0
3F8000001FC0
7F8000001FE0
7F0000000FE0
7F0000000FE0
FF0000000FF0
FE00000007F0
FE00000007F0
ENDCHAR
STARTCHAR 0103
ENCODING 259
SWIDTH 600 0
DWIDTH 48 0
BBX 35 61 6 -1
BITMAP
03E0003E00
03E0003E00
03E0007E00
03F0007C00
01F800FC00
01FE07F800
00FFFFF800
007FFFF000
003FFFE000
001FFF8000
0003FC0000
0000000000
0000000000
0000000000
0000000000
0000000000
000FFF0000
00FFFFE000
07FFFFF800
1FFFFFFC00
1FFFFFFE00
1FFFFFFF00
0FF003FF80
0F8000FF80
0600003FC0
0000001FC0
0000001FC0
0000000FE0
0000000FE0
0000000FE0
0000000FE0
0000000FE0
0000000FE0
0000000FE0
0007FFFFE0
007FFFFFE0
03FFFFFFE0
07FFFFFFE0
1FFFFFFFE0
3FFE000FE0
3FE0000FE0
7F80000FE0
7F00000FE0
FF00000FE0
FE00000FE0
FE00000FE0
FE00000FE0
FC00001FE0
FC00001FE0
FE00001FE0
FE00003FE0
FE00007FE0
FF0000FFE0
FF8003FFE0
7FE00FFFE0
7FFFFFEFE0
3FFFFFC7E0
1FFFFF87E0
0FFFFE07E0
03FFF807E0
007FE00000
ENDCHAR
STARTCHAR 0104
ENCODING 260
SWIDTH 600 0
DWIDTH 48 0
BBX 46 76 2 -18
BITMAP
00003FC00000
00003FC00000
00007FE00000
00007FE00000
00007FE00000
0000FFF00000
0000FFF00000
0000FFF00000
0001FFF80000
0001FFF80000
0001FBF80000
0003F9F80000
0003F9FC0000
0003F9FC0000
0007F0FC0000
0007F0FE0000
0007F0FE0000
0007E0FE0000
000FE07F0000
000FE07F0000
000FE07F0000
001FC03F8000
001FC03F8000
001FC03F8000
003F801FC000
003F801FC000
003F801FC000
007F000FE000
007F000FE000
007F000FE000
00FE000FF000
00FE0007F000
00FE0007F000
01FE0007F800
01FFFFFFF800
01FFFFFFF800
03FFFFFFFC00
03FFFFFFFC00
03FFFFFFFC00
07FFFFFFFC00
07F00000FE00
07F00000FE00
07F00000FE00
0FE000007F00
0FE000007F00
0FE000007F00
1FC000003F80
1FC000003F80
1FC000003F80
3F8000003FC0
3F8000001FC0
3F8000001FC0
7F8000001FE0
7F0000000FE0
7F0000000FE0
FF0000000FF0
FE00000007F0
FE00000007F0
0000000001F0
0000000003E0
0000000007C0
000000000F80
000000001F00
000000001F00
000000003E00
000000003E00
000000007E00
000000007E00
000000007E00
000000007E00
000000007F80
000000003FFC
000000003FFC
000000001FFC
000000000FFC
0000000003FC
ENDCHAR
STARTCHAR 0105
ENCODING 261
SWIDTH 600 0
DWIDTH 48 0
BBX 36 62 6 -18
BITMAP
000FFF0000
00FFFFE000
07FFFFF800
1FFFFFFC00
1FFFFFFE00
1FFFFFFF00
0FF003FF80
0F8000FF80
0600003FC0
0000001FC0
0000001FC0
0000000FE0
0000000FE0
0000000FE0
0000000FE0
0000000FE0
0000000FE0
0000000FE0
0007FFFFE0
007FFFFFE0
03FFFFFFE0
07FFFFFFE0
1FFFFFFFE0
3FFE000FE0
3FE0000FE0
7F80000FE0
7F00000FE0
FF00000FE0
FE00000FE0
FE00000FE0
FE00000FE0
FC00001FE0
FC00001FE0
FE00001FE0
FE00003FE0
FE00007FE0
FF0000FFE0
FF8003FFE0
7FE00FFFE0
7FFFFFEFE0
3FFFFFC7E0
1FFFFF87E0
0FFFFE07E0
03FFF807E0
007FE007C0
0000001F80
0000001F00
0000003E00
0000007C00
000000FC00
000000F800
000000F800
000001F800
000001F800
000001F800
000001F800
000001FC00
000000FFF0
000000FFF0
0000007FF0
0000003FF0
0000000FE0
ENDCHAR
STARTCHAR 0106
ENCODING 262
SWIDTH 600 0
DWIDTH 48 0
BBX 39 77 5 -1
BITMAP
0000000FF8
0000001FF0
0000001FE0
0000003FE0
0000003FC0
0000007F80
000000FF00
000000FE00
000001FC00
000003F800
000003F000
000007E000
00000FC000
0000000000
0000000000
0000000000
0000000000
00001FFE00
0000FFFFE0
0007FFFFFC
000FFFFFFE
003FFFFFFC
007FFFFFFC
00FFF003F8
01FF800078
03FF000018
03FC000000
07F8000000
0FF0000000
0FF0000000
1FE0000000
1FC0000000
1FC0000000
3FC0000000
3F80000000
3F80000000
7F80000000
7F00000000
7F00000000
7F00000000
7F00000000
7F00000000
FF00000000
FF00000000
FF00000000
FF00000000
FF00000000
FF00000000
FF00000000
FF00000000
FF00000000
FF00000000
7F00000000
7F00000000
7F00000000
7F00000000
7F80000000
7F80000000
3F80000000
3FC0000000
3FC0000000
3FC0000000
1FE0000000
1FE0000000
0FF0000000
0FF8000000
07FC000000
07FE000008
03FF800038
01FFF003F8
01FFFFFFF8
00FFFFFFF8
003FFFFFF8
001FFFFFF8
0007FFFFF8
0001FFFFC0
00003FFC00
ENDCHAR
STARTCHAR 0107
ENCODING 263
SWIDTH 600 0
DWIDTH 48 0
BBX 33 63 7 -1
BITMAP
000001FF00
000001FF00
000003FE00
000003FC00
000007F800
00000FF000
00000FE000
00001FE000
00003FC000
00003F8000
00007E0000
0000FC0000
0000F80000
0000000000
0000000000
0000000000
0000000000
0000000000
0001FFC000
000FFFFC00
007FFFFF80
00FFFFFF80
03FFFFFF80
07FFFFFF00
0FFF003F00
0FFC000700
1FF0000200
3FE0000000
3FC0000000
3F80000000
7F80000000
7F80000000
7F00000000
FF00000000
FF00000000
FF00000000
FE00000000
FE00000000
FE00000000
FE00000000
FE00000000
FE00000000
FE00000000
FE00000000
FE00000000
FE00000000
FF00000000
FF00000000
FF00000000
7F00000000
7F80000000
7F80000000
3FC0000000
3FE0000000
1FF0000080
1FF8000380
0FFF001F80
07FFFFFF80
03FFFFFF80
01FFFFFF80
007FFFFF80
001FFFFE00
0001FFC000
ENDCHAR
STARTCHAR 0108
ENCODING 264
SWIDTH 600 0
DWIDTH 48 0
BBX 39 77 5 -1
BITMAP
00000FF000
00001FF000
00003FF800
00003FFC00
00007FFC00
0000FEFE00
0001FC7F00
0003F83F80
0007F01FC0
0007E00FE0
000FC007F0
001F8003F8
003F0001F8
0000000000
0000000000
0000000000
0000000000
00001FFE00
0000FFFFE0
0007FFFFFC
000FFFFFFE
003FFFFFFC
007FFFFFFC
00FFF003F8
01FF800078
03FF000018
03FC000000
07F8000000
0FF0000000
0FF0000000
1FE0000000
1FC0000000
1FC0000000
3FC0000000
3F80000000
3F80000000
7F80000000
7F00000000
7F00000000
7F00000000
7F00000000
7F00000000
FF00000000
FF00000000
FF00000000
FF00000000
FF00000000
FF00000000
FF00000000
FF00000000
FF00000000
FF00000000
7F00000000
7F00000000
7F00000000
7F00000000
7F80000000
7F80000000
3F80000000
3FC0000000
3FC0000000
3FC0000000
1FE0000000
1FE0000000
0FF0000000
0FF8000000
07FC000000
07FE000008
03FF800038
01FFF003F8
01FFFFFFF8
00FFFFFFF8
003FFFFFF8
001FFFFFF8
0007FFFFF8
0001FFFFC0
00003FFC00
ENDCHAR
STARTCHAR 0109
ENCODING 265
SWIDTH 600 0
DWIDTH 48 0
BBX 33 63 7 -1
BITMAP
0001FE0000
0001FF0000
0003FF0000
0007FF8000
000FFFC000
000FFFE000
001FCFF000
003F87F000
007F03F800
00FE01FC00
01FC00FE00
03F8003F00
03E0001F80
0000000000
0000000000
0000000000
0000000000
0000000000
0001FFC000
000FFFFC00
007FFFFF80
00FFFFFF80
03FFFFFF80
07FFFFFF00
0FFF003F00
0FFC000700
1FF0000200
3FE0000000
3FC0000000
3F80000000
7F80000000
7F80000000
7F00000000
FF00000000
FF00000000
FF00000000
FE00000000
FE00000000
FE00000000
FE00000000
FE00000000
FE00000000
FE00000000
FE00000000
FE00000000
FE00000000
FF00000000
FF00000000
FF00000000
7F00000000
7F80000000
7F80000000
3FC0000000
3FE0000000
1FF0000080
1FF8000380
0FFF001F80
07FFFFFF80
03FFFFFF80
01FFFFFF80
007FFFFF80
001FFFFE00
0001FFC000
ENDCHAR
STARTCHAR 010A
ENCODING 266
SWIDTH 600 0
DWIDTH 48 0
BBX 39 76 5 -1
BITMAP
000007C000
00000FE000
00001FF000
00001FF800
00001FF800
00001FF800
00001FF800
00001FF000
00000FE000
000007C000
0000000000
0000000000
0000000000
0000000000
0000000000
0000000000
00001FFE00
0000FFFFE0
0007FFFFFC
000FFFFFFE
003FFFFFFC
007FFFFFFC
00FFF003F8
01FF800078
03FF000018
03FC000000
07F8000000
0FF0000000
0FF0000000
1FE0000000
1FC0000000
1FC0000000
3FC0000000
3F80000000
3F80000000
7F80000000
7F00000000
7F00000000
7F00000000
7F00000000
7F00000000
FF00000000
FF00000000
FF00000000
FF00000000
FF00000000
FF00000000
FF00000000
FF00000000
FF00000000
FF00000000
7F00000000
7F00000000
7F00000000
7F00000000
7F80000000
7F80000000
3F80000000
3FC0000000
3FC0000000
3FC0000000
1FE0000000
1FE0000000
0FF0000000
0FF8000000
07FC000000
07FE000008
03FF800038
01FFF003F8
01FFFFFFF8
00FFFFFFF8
003FFFFFF8
001FFFFFF8
0007FFFFF8
0001FFFFC0
00003FFC00
ENDCHAR
STARTCHAR 010B
ENCODING 267
SWIDTH 600 0
DWIDTH 48 0
BBX 33 62 7 -1
BITMAP
00007C0000
0001FE0000
0001FF0000
0003FF0000
0003FF0000
0003FF0000
0003FF0000
0001FF0000
0001FE0000
0000780000
0000000000
0000000000
0000000000
0000000000
0000000000
0000000000
0000000000
0001FFC000
000FFFFC00
007FFFFF80
00FFFFFF80
03FFFFFF80
07FFFFFF00
0FFF003F00
0FFC000700
1FF0000200
3FE0000000
3FC0000000
3F80000000
7F80000000
7F80000000
7F00000000
FF00000000
FF00000000
FF00000000
FE00000000
FE00000000
FE00000000
FE00000000
FE00000000
FE00000000
FE00000000
FE00000000
FE00000000
FE00000000
FF00000000
FF00000000
FF00000000
7F00000000
7F80000000
7F80000000
3FC0000000
3FE0000000
1FF0000080
1FF8000380
0FFF001F80
07FFFFFF80
03FFFFFF80
01FFFFFF80
007FFFFF80
001FFFFE00
0001FFC000
ENDCHAR
STARTCHAR 010C
ENCODING 268
SWIDTH 600 0
DWIDTH 48 0
BBX 39 77 5 -1
BITMAP
003F0000F8
003F8003F8
001FC007F0
000FE00FE0
0007F81FC0
0003FC3F80
0001FE7F00
0000FFFE00
00007FFC00
00003FFC00
00003FF800
00001FF000
00000FF000
0000000000
0000000000
0000000000
0000000000
00001FFE00
0000FFFFE0
0007FFFFFC
000FFFFFFE
003FFFFFFC
007FFFFFFC
00FFF003F8
01FF800078
03FF000018
03FC000000
07F8000000
0FF0000000
0FF0000000
1FE0000000
1FC0000000
1FC0000000
3FC0000000
3F80000000
3F80000000
7F80000000
7F00000000
7F00000000
7F00000000
7F00000000
7F00000000
FF00000000
FF00000000
FF00000000
FF00000000
FF00000000
FF00000000
FF00000000
FF00000000
FF00000000
FF00000000
7F00000000
7F00000000
7F00000000
7F00000000
7F80000000
7F80000000
3F80000000
3FC0000000
3FC0000000
3FC0000000
1FE0000000
1FE0000000
0FF0000000
0FF8000000
07FC000000
07FE000008
03FF800038
01FFF003F8
01FFFFFFF8
00FFFFFFF8
003FFFFFF8
001FFFFFF8
0007FFFFF8
0001FFFFC0
00003FFC00
ENDCHAR
STARTCHAR 010D
ENCODING 269
SWIDTH 600 0
DWIDTH 48 0
BBX 33 63 7 -1
BITMAP
03E0001F80
03F8003F00
01FC00FE00
00FE01FE00
007F03FC00
003F87F800
001FCFF000
001FFFE000
000FFFC000
0007FF8000
0003FF0000
0001FF0000
0001FE0000
0000000000
0000000000
0000000000
0000000000
0000000000
0001FFC000
000FFFFC00
007FFFFF80
00FFFFFF80
03FFFFFF80
07FFFFFF00
0FFF003F00
0FFC000700
1FF0000200
3FE0000000
3FC0000000
3F80000000
7F80000000
7F80000000
7F00000000
FF00000000
FF00000000
FF00000000
FE00000000
FE00000000
FE00000000
FE00000000
FE00000000
FE00000000
FE00000000
FE00000000
FE00000000
FE00000000
FF00000000
FF00000000
FF00000000
7F00000000
7F80000000
7F80000000
3FC0000000
3FE0000000
1FF0000080
1FF8000380
0FFF001F80
07FFFFFF80
03FFFFFF80
01FFFFFF80
007FFFFF80
001FFFFE00
0001FFC000
ENDCHAR
STARTCHAR 010E
ENCODING 270
SWIDTH 600 0
DWIDTH 48 0
BBX 38 76 6 0
BITMAP
1F0000FC00
1FC001F800
0FE007F000
07F00FE000
03F81FC000
01FC3FC000
00FE7F8000
00FFFF0000
007FFE0000
003FFC0000
001FF80000
000FF80000
000FF00000
0000000000
0000000000
0000000000
0000000000
0000000000
FFFFE00000
FFFFFE0000
FFFFFF8000
FFFFFFE000
FFFFFFF800
FFFFFFFC00
FE003FFE00
FE0007FF00
FE0001FF80
FE0000FF80
FE00007FC0
FE00003FE0
FE00001FE0
FE00000FF0
FE00000FF0
FE000007F0
FE000007F8
FE000007F8
FE000003F8
FE000003FC
FE000003FC
FE000003FC
FE000001FC
FE000001FC
FE000001FC
FE000001FC
FE000001FC
FE000001FC
FE000001FC
FE000001FC
FE000001FC
FE000001FC
FE000001FC
FE000001FC
FE000001FC
FE000001FC
FE000003FC
FE000003FC
FE000003F8
FE000003F8
FE000007F8
FE000007F8
FE00000FF0
FE00000FF0
FE00001FE0
FE00001FE0
FE00003FC0
FE00007FC0
FE0000FF80
FE0003FF00
FE000FFE00
FE007FFC00
FFFFFFF800
FFFFFFF000
FFFFFFC000
FFFFFF8000
FFFFFC0000
FFFFC00000
ENDCHAR
STARTCHAR 010F
ENCODING 271
SWIDTH 600 0
DWIDTH 48 0
BBX 47 62 4 -1
BITMAP
0000001FC0FE
0000001FC0FE
0000001FC0FE
0000001FC0FC
0000001FC0FC
0000001FC1FC
0000001FC1F8
0000001FC1F8
0000001FC1F0
0000001FC1F0
0000001FC3E0
0000001FC3E0
0000001FC3C0
0000001FC000
0000001FC000
0000001FC000
0000001FC000
000FF01FC000
007FFE1FC000
01FFFF1FC000
03FFFF9FC000
07FFFFCFC000
0FFFFFEFC000
1FFC07FFC000
1FF003FFC000
3FE001FFC000
3FC000FFC000
7F80007FC000
7F80007FC000
7F00003FC000
FF00003FC000
FF00003FC000
FF00001FC000
FE00001FC000
FE00001FC000
FE00001FC000
FE00001FC000
FE00001FC000
FE00001FC000
FE00001FC000
FE00001FC000
FE00001FC000
FE00001FC000
FE00001FC000
FE00001FC000
FE00001FC000
FE00001FC000
FF00001FC000
FF00003FC000
7F00003FC000
7F80003FC000
7F80007FC000
3FC000FFC000
3FC000FFC000
1FF003FFC000
1FF807EFC000
0FFFFFEFC000
07FFFFCFC000
03FFFF8FC000
01FFFF0FC000
007FFC0FC000
000FF0000000
ENDCHAR
STARTCHAR 0110
ENCODING 272
SWIDTH 600 0
DWIDTH 48 0
BBX 45 58 0 0
BITMAP
03FFFFC00000
03FFFFFC0000
03FFFFFF0000
03FFFFFFC000
03FFFFFFE000
03FFFFFFF800
03FC007FFC00
03FC000FFE00
03FC0007FE00
03FC0001FF00
03FC0000FF80
03FC00007F80
03FC00003FC0
03FC00003FC0
03FC00001FE0
03FC00000FE0
03FC00000FF0
03FC00000FF0
03FC000007F0
03FC000007F0
03FC000007F8
03FC000007F8
03FC000007F8
03FC000003F8
03FC000003F8
03FC000003F8
03FC000003F8
FFFFFE0003F8
FFFFFE0003F8
FFFFFE0003F8
FFFFFE0003F8
FFFFFE0003F8
FFFFFE0003F8
03FC000003F8
03FC000007F8
03FC000007F8
03FC000007F8
03FC000007F0
03FC000007F0
03FC00000FF0
03FC00000FF0
03FC00000FE0
03FC00001FE0
03FC00001FE0
03FC00003FC0
03FC00007FC0
03FC00007F80
03FC0000FF80
03FC0001FF00
03FC0007FE00
03FC001FFC00
03FC00FFF800
03FFFFFFF000
03FFFFFFE000
03FFFFFF8000
03FFFFFE0000
03FFFFF80000
03FFFF800000
ENDCHAR
STARTCHAR 0111
ENCODING 273
SWIDTH 600 0
DWIDTH 48 0
BBX 44 62 4 -1
BITMAP
00000003FC00
00000003FC00
00000003FC00
00000003FC00
00000003FC00
00000003FC00
00000003FC00
0000FFFFFFF0
0000FFFFFFF0
0000FFFFFFF0
0000FFFFFFF0
0000FFFFFFF0
0000FFFFFFF0
00000003FC00
00000003FC00
00000003FC00
00000003FC00
00000003FC00
0003FE03FC00
003FFFC1FC00
007FFFE1FC00
01FFFFF1FC00
03FFFFF9FC00
07FFFFFDFC00
0FFF01FFFC00
0FF8007FFC00
1FF0003FFC00
1FE0001FFC00
3FC0000FFC00
3FC00007FC00
7F800007FC00
7F800007FC00
7F800003FC00
7F000003FC00
7F000003FC00
7F000003FC00
FF000003FC00
FF000003FC00
FF000003FC00
FF000003FC00
FF000003FC00
FF000003FC00
FF000003FC00
7F000003FC00
7F000003FC00
7F000003FC00
7F000003FC00
7F800003FC00
7F800003FC00
3F800007FC00
3FC00007FC00
3FC0000FFC00
1FE0001FFC00
1FF0001FFC00
0FF8007FFC00
0FFE01FFFC00
07FFFFFDFC00
03FFFFF9FC00
01FFFFF1FC00
007FFFE1FC00
003FFF80FC00
0007FE000000
ENDCHAR
STARTCHAR 0112
ENCODING 274
SWIDTH 600 0
DWIDTH 48 0
BBX 33 70 8 0
BITMAP
07FFFFF000
07FFFFF000
07FFFFF000
07FFFFF000
07FFFFF000
07FFFFF000
0000000000
0000000000
0000000000
0000000000
0000000000
0000000000
FFFFFFFF80
FFFFFFFF80
FFFFFFFF80
FFFFFFFF80
FFFFFFFF80
FFFFFFFF80
FE00000000
FE00000000
FE00000000
FE00000000
FE00000000
FE00000000
FE00000000
FE00000000
FE00000000
FE00000000
FE00000000
FE00000000
FE00000000
FE00000000
FE00000000
FE00000000
FE00000000
FE00000000
FE00000000
FFFFFFFF00
FFFFFFFF00
FFFFFFFF00
FFFFFFFF00
FFFFFFFF00
FFFFFFFF00
FE00000000
FE00000000
FE00000000
FE00000000
FE00000000
FE00000000
FE00000000
FE00000000
FE00000000
FE00000000
FE00000000
FE00000000
FE00000000
FE00000000
FE00000000
FE00000000
FE00000000
FE00000000
FE00000000
FE00000000
FE00000000
FFFFFFFF80
FFFFFFFF80
FFFFFFFF80
FFFFFFFF80
FFFFFFFF80
FFFFFFFF80
ENDCHAR
STARTCHAR 0113
ENCODING 275
SWIDTH 600 0
DWIDTH 48 0
BBX 38 57 5 -1
BITMAP
01FFFFFE00
01FFFFFE00
01FFFFFE00
01FFFFFE00
01FFFFFE00
01FFFFFE00
0000000000
0000000000
0000000000
0000000000
0000000000
0000000000
0001FF8000
000FFFF000
003FFFFC00
00FFFFFE00
01FFFFFF00
03FFFFFF80
07FF00FFC0
0FFC003FE0
1FF0001FE0
1FE0000FF0
3FC00007F0
3FC00007F8
7F800003F8
7F800003F8
7F000001FC
7F000001FC
FF000001FC
FE000001FC
FFFFFFFFFC
FFFFFFFFFC
FFFFFFFFFC
FFFFFFFFFC
FFFFFFFFFC
FFFFFFFFFC
FE00000000
FE00000000
FE00000000
FE00000000
FF00000000
FF00000000
7F00000000
7F00000000
7F80000000
3FC0000000
3FC0000000
1FE0000000
1FF0000030
0FFC0000F0
07FF800FF0
03FFFFFFF0
01FFFFFFF0
007FFFFFF0
003FFFFFE0
0007FFFF00
0000FFF000
ENDCHAR
STARTCHAR 0114
ENCODING 276
SWIDTH 600 0
DWIDTH 48 0
BBX 33 74 8 0
BITMAP
0F8000F800
0F8000F800
0F8001F800
07C001F000
07E003F000
07F80FE000
03FFFFE000
01FFFFC000
00FFFF8000
007FFE0000
000FF00000
0000000000
0000000000
0000000000
0000000000
0000000000
FFFFFFFF80
FFFFFFFF80
FFFFFFFF80
FFFFFFFF80
FFFFFFFF80
FFFFFFFF80
FE00000000
FE00000000
FE00000000
FE00000000
FE00000000
FE00000000
FE00000000
FE00000000
FE00000000
FE00000000
FE00000000
FE00000000
FE00000000
FE00000000
FE00000000
FE00000000
FE00000000
FE00000000
FE00000000
FFFFFFFF00
FFFFFFFF00
FFFFFFFF00
FFFFFFFF00
FFFFFFFF00
FFFFFFFF00
FE00000000
FE00000000
FE00000000
FE00000000
FE00000000
FE00000000
FE00000000
FE00000000
FE00000000
FE00000000
FE00000000
FE00000000
FE00000000
FE00000000
FE00000000
FE00000000
FE00000000
FE00000000
FE00000000
FE00000000
FE00000000
FFFFFFFF80
FFFFFFFF80
FFFFFFFF80
FFFFFFFF80
FFFFFFFF80
FFFFFFFF80
ENDCHAR
STARTCHAR 0115
ENCODING 277
SWIDTH 600 0
DWIDTH 48 0
BBX 38 61 5 -1
BITMAP
01F0001F00
01F0001F00
01F0003E00
01F8003E00
00FC007E00
00FF03FC00
007FFFFC00
003FFFF800
001FFFF000
000FFFC000
0001FF0000
0000000000
0000000000
0000000000
0000000000
0000000000
0001FF8000
000FFFF000
003FFFFC00
00FFFFFE00
01FFFFFF00
03FFFFFF80
07FF00FFC0
0FFC003FE0
1FF0001FE0
1FE0000FF0
3FC00007F0
3FC00007F8
7F800003F8
7F800003F8
7F000001FC
7F000001FC
FF000001FC
FE000001FC
FFFFFFFFFC
FFFFFFFFFC
FFFFFFFFFC
FFFFFFFFFC
FFFFFFFFFC
FFFFFFFFFC
FE00000000
FE00000000
FE00000000
FE00000000
FF00000000
FF00000000
7F00000000
7F00000000
7F80000000
3FC0000000
3FC0000000
1FE0000000
1FF0000030
0FFC0000F0
07FF800FF0
03FFFFFFF0
01FFFFFFF0
007FFFFFF0
003FFFFFE0
0007FFFF00
0000FFF000
ENDCHAR
STARTCHAR 0116
ENCODING 278
SWIDTH 600 0
DWIDTH 48 0
BBX 33 75 8 0
BITMAP
0003E00000
0007F00000
000FF80000
001FF80000
001FF80000
001FF80000
001FF80000
000FF80000
0007F00000
0003E00000
0000000000
0000000000
0000000000
0000000000
0000000000
0000000000
0000000000
FFFFFFFF80
FFFFFFFF80
FFFFFFFF80
FFFFFFFF80
FFFFFFFF80
FFFFFFFF80
FE00000000
FE00000000
FE00000000
FE00000000
FE00000000
FE00000000
FE00000000
FE00000000
FE00000000
FE00000000
FE00000000
FE00000000
FE00000000
FE00000000
FE00000000
FE00000000
FE00000000
FE00000000
FE00000000
FFFFFFFF00
FFFFFFFF00
FFFFFFFF00
FFFFFFFF00
FFFFFFFF00
FFFFFFFF00
FE00000000
FE00000000
FE00000000
FE00000000
FE00000000
FE00000000
FE00000000
FE00000000
FE00000000
FE00000000
FE00000000
FE00000000
FE00000000
FE00000000
FE00000000
FE00000000
FE00000000
FE00000000
FE00000000
FE00000000
FE00000000
FFFFFFFF80
FFFFFFFF80
FFFFFFFF80
FFFFFFFF80
FFFFFFFF80
FFFFFFFF80
ENDCHAR
STARTCHAR 0117
ENCODING 279
SWIDTH 600 0
DWIDTH 48 0
BBX 38 62 5 -1
BITMAP
00007C0000
0001FE0000
0001FF0000
0003FF0000
0003FF0000
0003FF0000
0003FF0000
0001FF0000
0001FE0000
00007C0000
0000000000
0000000000
0000000000
0000000000
0000000000
0000000000
0000000000
0001FF8000
000FFFF000
003FFFFC00
00FFFFFE00
01FFFFFF00
03FFFFFF80
07FF00FFC0
0FFC003FE0
1FF0001FE0
1FE0000FF0
3FC00007F0
3FC00007F8
7F800003F8
7F800003F8
7F000001FC
7F000001FC
FF000001FC
FE000001FC
FFFFFFFFFC
FFFFFFFFFC
FFFFFFFFFC
FFFFFFFFFC
FFFFFFFFFC
FFFFFFFFFC
FE00000000
FE00000000
FE00000000
FE00000000
FF00000000
FF00000000
7F00000000
7F00000000
7F80000000
3FC0000000
3FC0000000
1FE0000000
1FF0000030
0FFC0000F0
07FF800FF0
03FFFFFFF0
01FFFFFFF0
007FFFFFF0
003FFFFFE0
0007FFFF00
0000FFF000
ENDCHAR
STARTCHAR 0118
ENCODING 280
SWIDTH 600 0
DWIDTH 48 0
BBX 33 76 8 -18
BITMAP
FFFFFFFF80
FFFFFFFF80
FFFFFFFF80
FFFFFFFF80
FFFFFFFF80
FFFFFFFF80
FE00000000
FE00000000
FE00000000
FE00000000
FE00000000
FE00000000
FE00000000
FE00000000
FE00000000
FE00000000
FE00000000
FE00000000
FE00000000
FE00000000
FE00000000
FE00000000
FE00000000
FE00000000
FE00000000
FFFFFFFF00
FFFFFFFF00
FFFFFFFF00
FFFFFFFF00
FFFFFFFF00
FFFFFFFF00
FE00000000
FE00000000
FE00000000
FE00000000
FE00000000
FE00000000
FE00000000
FE00000000
FE00000000
FE00000000
FE00000000
FE00000000
FE00000000
FE00000000
FE00000000
FE00000000
FE00000000
FE00000000
FE00000000
FE00000000
FE00000000
FFFFFFFF80
FFFFFFFF80
FFFFFFFF80
FFFFFFFF80
FFFFFFFF80
FFFFFFFF80
000001F000
000003E000
000007E000
00000FC000
00000F8000
00001F0000
00001F0000
00003F0000
00003E0000
00003E0000
00003F0000
00003F0000
00003F8000
00003FFE00
00001FFE00
00001FFE00
00000FFE00
000003FC00
ENDCHAR
STARTCHAR 0119
ENCODING 281
SWIDTH 600 0
DWIDTH 48 0
BBX 38 62 5 -18
BITMAP
0001FF8000
000FFFF000
003FFFFC00
00FFFFFE00
01FFFFFF00
03FFFFFF80
07FF00FFC0
0FFC003FE0
1FF0001FE0
1FE0000FF0
3FC00007F0
3FC00007F8
7F800003F8
7F800003F8
7F000001FC
7F000001FC
FF000001FC
FE000001FC
FFFFFFFFFC
FFFFFFFFFC
FFFFFFFFFC
FFFFFFFFFC
FFFFFFFFFC
FFFFFFFFFC
FE00000000
FE00000000
FE00000000
FE00000000
FF00000000
FF00000000
7F00000000
7F00000000
7F80000000
3FC0000000
3FC0000000
1FE0000000
1FF0000030
0FFC0000F0
07FF800FF0
03FFFFFFF0
01FFFFFFF0
007FFFFFF0
003FFFFFF0
0007FFFFC0
0000FFFF80
0000001F00
0000003E00
0000007C00
000000F800
000001F800
000001F000
000001F000
000003F000
000003F000
000003F000
000003F800
000001FC00
000001FFF0
000001FFF0
000000FFF0
0000007FF0
0000001FE0
ENDCHAR
STARTCHAR 011A
ENCODING 282
SWIDTH 600 0
DWIDTH 48 0
BBX 33 76 8 0
BITMAP
1F0000FC00
1FC001FC00
0FE003F800
07F007F000
03F81FE000
01FC3FC000
00FE7F8000
007FFF0000
003FFE0000
003FFC0000
001FFC0000
000FF80000
000FF00000
0000000000
0000000000
0000000000
0000000000
0000000000
FFFFFFFF80
FFFFFFFF80
FFFFFFFF80
FFFFFFFF80
FFFFFFFF80
FFFFFFFF80
FE00000000
FE00000000
FE00000000
FE00000000
FE00000000
FE00000000
FE00000000
FE00000000
FE00000000
FE00000000
FE00000000
FE00000000
FE00000000
FE00000000
FE00000000
FE00000000
FE00000000
FE00000000
FE00000000
FFFFFFFF00
FFFFFFFF00
FFFFFFFF00
FFFFFFFF00
FFFFFFFF00
FFFFFFFF00
FE00000000
FE00000000
FE00000000
FE00000000
FE00000000
FE00000000
FE00000000
FE00000000
FE00000000
FE00000000
FE00000000
FE00000000
FE00000000
FE00000000
FE00000000
FE00000000
FE00000000
FE00000000
FE00000000
FE00000000
FE00000000
FFFFFFFF80
FFFFFFFF80
FFFFFFFF80
FFFFFFFF80
FFFFFFFF80
FFFFFFFF80
ENDCHAR
STARTCHAR 011B
ENCODING 283
SWIDTH 600 0
DWIDTH 48 0
BBX 38 63 5 -1
BITMAP
03E0001F80
03F8003F00
01FC007F00
00FE01FE00
007F03FC00
003F87F800
001FCFF000
000FFFE000
000FFFC000
0007FF8000
0003FF0000
0001FF0000
0001FE0000
0000000000
0000000000
0000000000
0000000000
0000000000
0001FF8000
000FFFF000
003FFFFC00
00FFFFFE00
01FFFFFF00
03FFFFFF80
07FF00FFC0
0FFC003FE0
1FF0001FE0
1FE0000FF0
3FC00007F0
3FC00007F8
7F800003F8
7F800003F8
7F000001FC
7F000001FC
FF000001FC
FE000001FC
FFFFFFFFFC
FFFFFFFFFC
FFFFFFFFFC
FFFFFFFFFC
FFFFFFFFFC
FFFFFFFFFC
FE00000000
FE00000000
FE00000000
FE00000000
FF00000000
FF00000000
7F00000000
7F00000000
7F80000000
3FC0000000
3FC0000000
1FE0000000
1FF0000030
0FFC0000F0
07FF800FF0
03FFFFFFF0
01FFFFFFF0
007FFFFFF0
003FFFFFE0
0007FFFF00
0000FFF000
ENDCHAR
STARTCHAR 011C
ENCODING 284
SWIDTH 600 0
DWIDTH 48 0
BBX 38 77 4 -1
BITMAP
00003FC000
00007FC000
0000FFE000
0000FFF000
0001FFF000
0003FBF800
0007F1FC00
000FE0FE00
000FC07F00
001F803F80
003F001FC0
007E000FE0
00FC0003E0
0000000000
0000000000
0000000000
0000000000
00001FFC00
0001FFFF80
0007FFFFF0
001FFFFFFC
007FFFFFF8
00FFFFFFF8
01FFFFFFF8
03FFF007F0
03FF8000F0
07FE000020
0FFC000000
0FF8000000
1FF0000000
1FE0000000
3FC0000000
3FC0000000
3F80000000
7F80000000
7F80000000
7F00000000
FF00000000
FF00000000
FF00000000
FE00000000
FE00000000
FE00000000
FE00000000
FE00000000
FE00000000
FE0007FFFC
FE0007FFFC
FE0007FFFC
FE0007FFFC
FE0007FFFC
FE0007FFFC
FE000001FC
FE000001FC
FE000001FC
FF000001FC
FF000001FC
FF000001FC
7F000001FC
7F000001FC
7F800001FC
7F800001FC
3F800001FC
3FC00001FC
3FE00001FC
1FE00001FC
1FF00001FC
0FF80001FC
07FC0001FC
07FF0001FC
03FFC007FC
01FFFFFFFC
00FFFFFFFC
003FFFFFFC
000FFFFFFC
0003FFFFE0
00007FFC00
ENDCHAR
STARTCHAR 011D
ENCODING 285
SWIDTH 600 0
DWIDTH 48 0
BBX 38 81 4 -19
BITMAP
0000FF0000
0001FF0000
0001FF8000
0003FFC000
0007FFE000
000FFFE000
001FE7F000
001FC3F800
003F81FC00
007F00FE00
00FC007F00
01F8003F80
03F0000FC0
0000000000
0000000000
0000000000
0000000000
0000000000
0003FC0000
001FFF80FC
007FFFE0FC
00FFFFF1FC
03FFFFF9FC
03FFFFFDFC
07FE01FFFC
0FF8007FFC
1FF0001FFC
1FE0000FFC
1FC00007FC
3FC00007FC
3F800003FC
7F800003FC
7F800003FC
7F000003FC
7F000001FC
7F000001FC
7F000001FC
FF000001FC
FF000001FC
FF000001FC
FF000001FC
FF000001FC
FF000001FC
FF000001FC
7F000001FC
7F000001FC
7F000001FC
7F000001FC
7F800003FC
7F800003FC
3F800003FC
3FC00007FC
3FC00007FC
1FE0000FFC
1FF0001FFC
0FF8003FFC
07FF00FFFC
07FFFFFFFC
03FFFFFDFC
01FFFFF9FC
007FFFF1FC
001FFFC1FC
0003FE01FC
00000001FC
00000001FC
00000001F8
00000001F8
00000003F8
00000003F8
00000003F8
00000007F0
0000000FF0
1000001FF0
1E00003FE0
1FE001FFC0
1FFFFFFFC0
1FFFFFFF80
1FFFFFFF00
0FFFFFFC00
01FFFFF000
001FFF0000
ENDCHAR
STARTCHAR 011E
ENCODING 286
SWIDTH 600 0
DWIDTH 48 0
BBX 38 75 4 -1
BITMAP
007C0007C0
007C0007C0
003E0007C0
003E000FC0
003F801F80
001FC07F80
001FFFFF00
000FFFFE00
0007FFFC00
0001FFF000
00007FC000
0000000000
0000000000
0000000000
0000000000
00001FFC00
0001FFFF80
0007FFFFF0
001FFFFFFC
007FFFFFF8
00FFFFFFF8
01FFFFFFF8
03FFF007F0
03FF8000F0
07FE000020
0FFC000000
0FF8000000
1FF0000000
1FE0000000
3FC0000000
3FC0000000
3F80000000
7F80000000
7F80000000
7F00000000
FF00000000
FF00000000
FF00000000
FE00000000
FE00000000
FE00000000
FE00000000
FE00000000
FE00000000
FE0007FFFC
FE0007FFFC
FE0007FFFC
FE0007FFFC
FE0007FFFC
FE0007FFFC
FE000001FC
FE000001FC
FE000001FC
FF000001FC
FF000001FC
FF000001FC
7F000001FC
7F000001FC
7F800001FC
7F800001FC
3F800001FC
3FC00001FC
3FE00001FC
1FE00001FC
1FF00001FC
0FF80001FC
07FC0001FC
07FF0001FC
03FFC007FC
01FFFFFFFC
00FFFFFFFC
003FFFFFFC
000FFFFFFC
0003FFFFE0
00007FFC00
ENDCHAR
STARTCHAR 011F
ENCODING 287
SWIDTH 600 0
DWIDTH 48 0
BBX 38 79 4 -19
BITMAP
00F0000F00
00F8001F00
00F8001F00
00FC003F00
00FE007E00
007F81FE00
003FFFFC00
003FFFF800
000FFFF000
0007FFE000
0000FF0000
0000000000
0000000000
0000000000
0000000000
0000000000
0003FC0000
001FFF80FC
007FFFE0FC
00FFFFF1FC
03FFFFF9FC
03FFFFFDFC
07FE01FFFC
0FF8007FFC
1FF0001FFC
1FE0000FFC
1FC00007FC
3FC00007FC
3F800003FC
7F800003FC
7F800003FC
7F000003FC
7F000001FC
7F000001FC
7F000001FC
FF000001FC
FF000001FC
FF000001FC
FF000001FC
FF000001FC
FF000001FC
FF000001FC
7F000001FC
7F000001FC
7F000001FC
7F000001FC
7F800003FC
7F800003FC
3F800003FC
3FC00007FC
3FC00007FC
1FE0000FFC
1FF0001FFC
0FF8003FFC
07FF00FFFC
07FFFFFFFC
03FFFFFDFC
01FFFFF9FC
007FFFF1FC
001FFFC1FC
0003FE01FC
00000001FC
00000001FC
00000001F8
00000001F8
00000003F8
00000003F8
00000003F8
00000007F0
0000000FF0
1000001FF0
1E00003FE0
1FE001FFC0
1FFFFFFFC0
1FFFFFFF80
1FFFFFFF00
0FFFFFFC00
01FFFFF000
001FFF0000
ENDCHAR
STARTCHAR 0120
ENCODING 288
SWIDTH 600 0
DWIDTH 48 0
BBX 38 76 4 -1
BITMAP
00001F0000
00003FC000
00007FC000
00007FE000
00007FE000
00007FE000
00007FE000
00007FC000
00003FC000
00001F0000
0000000000
0000000000
0000000000
0000000000
0000000000
0000000000
00001FFC00
0001FFFF80
0007FFFFF0
001FFFFFFC
007FFFFFF8
00FFFFFFF8
01FFFFFFF8
03FFF007F0
03FF8000F0
07FE000020
0FFC000000
0FF8000000
1FF0000000
1FE0000000
3FC0000000
3FC0000000
3F80000000
7F80000000
7F80000000
7F00000000
FF00000000
FF00000000
FF00000000
FE00000000
FE00000000
FE00000000
FE00000000
FE00000000
FE00000000
FE0007FFFC
FE0007FFFC
FE0007FFFC
FE0007FFFC
FE0007FFFC
FE0007FFFC
FE000001FC
FE000001FC
FE000001FC
FF000001FC
FF000001FC
FF000001FC
7F000001FC
7F000001FC
7F800001FC
7F800001FC
3F800001FC
3FC00001FC
3FE00001FC
1FE00001FC
1FF00001FC
0FF80001FC
07FC0001FC
07FF0001FC
03FFC007FC
01FFFFFFFC
00FFFFFFFC
003FFFFFFC
000FFFFFFC
0003FFFFE0
00007FFC00
ENDCHAR
STARTCHAR 0121
ENCODING 289
SWIDTH 600 0
DWIDTH 48 0
BBX 38 80 4 -19
BITMAP
00007C0000
0000FF0000
0001FF0000
0001FF8000
0001FF8000
0001FF8000
0001FF8000
0001FF0000
0000FF0000
00003C0000
0000000000
0000000000
0000000000
0000000000
0000000000
0000000000
0000000000
0003FC0000
001FFF80FC
007FFFE0FC
00FFFFF1FC
03FFFFF9FC
03FFFFFDFC
07FE01FFFC
0FF8007FFC
1FF0001FFC
1FE0000FFC
1FC00007FC
3FC00007FC
3F800003FC
7F800003FC
7F800003FC
7F000003FC
7F000001FC
7F000001FC
7F000001FC
FF000001FC
FF000001FC
FF000001FC
FF000001FC
FF000001FC
FF000001FC
FF000001FC
7F000001FC
7F000001FC
7F000001FC
7F000001FC
7F800003FC
7F800003FC
3F800003FC
3FC00007FC
3FC00007FC
1FE0000FFC
1FF0001FFC
0FF8003FFC
07FF00FFFC
07FFFFFFFC
03FFFFFDFC
01FFFFF9FC
007FFFF1FC
001FFFC1FC
0003FE01FC
00000001FC
00000001FC
00000001F8
00000001F8
00000003F8
00000003F8
00000003F8
00000007F0
0000000FF0
1000001FF0
1E00003FE0
1FE001FFC0
1FFFFFFFC0
1FFFFFFF80
1FFFFFFF00
0FFFFFFC00
01FFFFF000
001FFF0000
ENDCHAR
STARTCHAR 0122
ENCODING 290
SWIDTH 600 0
DWIDTH 48 0
BBX 38 77 4 -18
BITMAP
00001FFC00
0001FFFF80
0007FFFFF0
001FFFFFFC
007FFFFFF8
00FFFFFFF8
01FFFFFFF8
03FFF007F0
03FF8000F0
07FE000020
0FFC000000
0FF8000000
1FF0000000
1FE0000000
3FC0000000
3FC0000000
3F80000000
7F80000000
7F80000000
7F00000000
FF00000000
FF00000000
FF00000000
FE00000000
FE00000000
FE00000000
FE00000000
FE00000000
FE00000000
FE0007FFFC
FE0007FFFC
FE0007FFFC
FE0007FFFC
FE0007FFFC
FE0007FFFC
FE000001FC
FE000001FC
FE000001FC
FF000001FC
FF000001FC
FF000001FC
7F000001FC
7F000001FC
7F800001FC
7F800001FC
3F800001FC
3FC00001FC
3FE00001FC
1FE00001FC
1FF00001FC
0FF80001FC
07FC0001FC
07FF0001FC
03FFC007FC
01FFFFFFFC
00FFFFFFFC
003FFFFFFC
000FFFFFFC
0003FFFFE0
00007FFC00
0000000000
0000000000
0000000000
0000000000
00000FE000
00001FC000
00001FC000
00001FC000
00001F8000
00003F8000
00003F0000
00003F0000
00003E0000
00007E0000
00007C0000
0000780000
0000F80000
ENDCHAR
STARTCHAR 0123
ENCODING 291
SWIDTH 600 0
DWIDTH 48 0
BBX 38 80 4 -19
BITMAP
0000078000
00000F8000
00001F8000
00001F0000
00003F0000
00003F0000
00007E0000
00007E0000
0000FE0000
0000FC0000
0001FC0000
0001FC0000
0001FC0000
0000000000
0000000000
0000000000
0000000000
0003FC0000
001FFF80FC
007FFFE0FC
00FFFFF1FC
03FFFFF9FC
03FFFFFDFC
07FE01FFFC
0FF8007FFC
1FF0001FFC
1FE0000FFC
1FC00007FC
3FC00007FC
3F800003FC
7F800003FC
7F800003FC
7F000003FC
7F000001FC
7F000001FC
7F000001FC
FF000001FC
FF000001FC
FF000001FC
FF000001FC
FF000001FC
FF000001FC
FF000001FC
7F000001FC
7F000001FC
7F000001FC
7F000001FC
7F800003FC
7F800003FC
3F800003FC
3FC00007FC
3FC00007FC
1FE0000FFC
1FF0001FFC
0FF8003FFC
07FF00FFFC
07FFFFFFFC
03FFFFFDFC
01FFFFF9FC
007FFFF1FC
001FFFC1FC
0003FE01FC
00000001FC
00000001FC
00000001F8
00000001F8
00000003F8
00000003F8
00000003F8
00000007F0
0000000FF0
1000001FF0
1E00003FE0
1FE001FFC0
1FFFFFFFC0
1FFFFFFF80
1FFFFFFF00
0FFFFFFC00
01FFFFF000
001FFF0000
ENDCHAR
STARTCHAR 0124
ENCODING 292
SWIDTH 600 0
DWIDTH 48 0
BBX 36 76 6 0
BITMAP
0003FC0000
0007FC0000
0007FE0000
000FFF0000
001FFF8000
003FFF8000
007F9FC000
007F0FE000
00FE07F000
01FC03F800
03F001FC00
07E000FE00
0FC0003F00
0000000000
0000000000
0000000000
0000000000
0000000000
FE000007F0
FE000007F0
FE000007F0
FE000007F0
FE000007F0
FE000007F0
FE000007F0
FE000007F0
FE000007F0
FE000007F0
FE000007F0
FE000007F0
FE000007F0
FE000007F0
FE000007F0
FE000007F0
FE000007F0
FE000007F0
FE000007F0
FE000007F0
FE000007F0
FE000007F0
FE000007F0
FE000007F0
FE000007F0
FFFFFFFFF0
FFFFFFFFF0
FFFFFFFFF0
FFFFFFFFF0
FFFFFFFFF0
FFFFFFFFF0
FE000007F0
FE000007F0
FE000007F0
FE000007F0
FE000007F0
FE000007F0
FE000007F0
FE000007F0
FE000007F0
FE000007F0
FE000007F0
FE000007F0
FE000007F0
FE000007F0
FE000007F0
FE000007F0
FE000007F0
FE000007F0
FE000007F0
FE000007F0
FE000007F0
FE000007F0
FE000007F0
FE000007F0
FE000007F0
FE000007F0
FE000007F0
ENDCHAR
STARTCHAR 0125
ENCODING 293
SWIDTH 600 0
DWIDTH 48 0
BBX 45 80 -3 0
BITMAP
007F80000000
00FF80000000
00FFC0000000
01FFE0000000
03FFF0000000
07FFF8000000
07F3F8000000
0FE1FC000000
1FC0FE000000
3F807F000000
7F003F800000
FC000FC00000
F80007E00000
000000000000
000000000000
000000000000
000000000000
000000000000
000000000000
007F80000000
007F80000000
007F80000000
007F80000000
007F80000000
007F80000000
007F80000000
007F80000000
007F80000000
007F80000000
007F80000000
007F80000000
007F80000000
007F80000000
007F80000000
007F80000000
007F80000000
007F803FE000
007F81FFFC00
007F87FFFE00
007F0FFFFF80
007F1FFFFFC0
007F3FFFFFC0
007F7F80FFE0
007F7C003FF0
007FF8001FF0
007FF0000FF0
007FE00007F0
007FE00007F8
007FC00007F8
007FC00007F8
007FC00003F8
007F800003F8
007F800003F8
007F800003F8
007F800003F8
007F800003F8
007F800003F8
007F800003F8
007F800003F8
007F800003F8
007F800003F8
007F800003F8
007F800003F8
007F800003F8
007F800003F8
007F800003F8
007F800003F8
007F800003F8
007F800003F8
007F800003F8
007F800003F8
007F800003F8
007F800003F8
007F800003F8
007F800003F8
007F800003F8
007F800003F8
007F800003F8
007F800003F8
007F800003F8
ENDCHAR
STARTCHAR 0126
ENCODING 294
SWIDTH 600 0
DWIDTH 48 0
BBX 48 58 0 0
BITMAP
03F800001FC0
03F800001FC0
03F800001FC0
03F800001FC0
03F800001FC0
03F800001FC0
03F800001FC0
03F800001FC0
03F800001FC0
03F800001FC0
FFFFFFFFFFFF
FFFFFFFFFFFF
FFFFFFFFFFFF
FFFFFFFFFFFF
FFFFFFFFFFFF
FFFFFFFFFFFF
03F800001FC0
03F800001FC0
03F800001FC0
03F800001FC0
03F800001FC0
03F800001FC0
03F800001FC0
03F800001FC0
03F800001FC0
03FFFFFFFFC0
03FFFFFFFFC0
03FFFFFFFFC0
03FFFFFFFFC0
03FFFFFFFFC0
03FFFFFFFFC0
03F800001FC0
03F800001FC0
03F800001FC0
03F800001FC0
03F800001FC0
03F800001FC0
03F800001FC0
03F800001FC0
03F800001FC0
03F800001FC0
03F800001FC0
03F800001FC0
03F800001FC0
03F800001FC0
03F800001FC0
03F800001FC0
03F800001FC0
03F800001FC0
03F800001FC0
03F800001FC0
03F800001FC0
03F800001FC0
03F800001FC0
03F800001FC0
03F800001FC0
03F800001FC0
03F800001FC0
ENDCHAR
STARTCHAR 0127
ENCODING 295
SWIDTH 600 0
DWIDTH 48 0
BBX 42 61 0 0
BITMAP
03FC00000000
03FC00000000
03FC00000000
03FC00000000
03FC00000000
03FC00000000
03FC00000000
FFFFFFF00000
FFFFFFF00000
FFFFFFF00000
FFFFFFF00000
FFFFFFF00000
FFFFFFF00000
03FC00000000
03FC00000000
03FC00000000
03FC00000000
03FC01FF0000
03FC0FFFE000
03FC3FFFF000
03FC7FFFFC00
03F8FFFFFE00
03F9FFFFFE00
03FBFC07FF00
03FBE001FF80
03FFC000FF80
03FF80007F80
03FF00003F80
03FF00003FC0
03FE00003FC0
03FE00003FC0
03FE00001FC0
03FC00001FC0
03FC00001FC0
03FC00001FC0
03FC00001FC0
03FC00001FC0
03FC00001FC0
03FC00001FC0
03FC00001FC0
03FC00001FC0
03FC00001FC0
03FC00001FC0
03FC00001FC0
03FC00001FC0
03FC00001FC0
03FC00001FC0
03FC00001FC0
03FC00001FC0
03FC00001FC0
03FC00001FC0
03FC00001FC0
03FC00001FC0
03FC00001FC0
03FC00001FC0
03FC00001FC0
03FC00001FC0
03FC00001FC0
03FC00001FC0
03FC00001FC0
03FC00001FC0
ENDCHAR
STARTCHAR 0128
ENCODING 296
SWIDTH 600 0
DWIDTH 48 0
BBX 30 73 9 0
BITMAP
03F00078
07FE0078
0FFF00F8
1FFFC1F8
3FFFFFF0
3FFFFFF0
7E0FFFE0
7C03FFC0
7800FF80
78003F00
00000000
00000000
00000000
00000000
00000000
FFFFFFFC
FFFFFFFC
FFFFFFFC
FFFFFFFC
FFFFFFFC
FFFFFFFC
001FE000
001FE000
001FE000
001FE000
001FE000
001FE000
001FE000
001FE000
001FE000
001FE000
001FE000
001FE000
001FE000
001FE000
001FE000
001FE000
001FE000
001FE000
001FE000
001FE000
001FE000
001FE000
001FE000
001FE000
001FE000
001FE000
001FE000
001FE000
001FE000
001FE000
001FE000
001FE000
001FE000
001FE000
001FE000
001FE000
001FE000
001FE000
001FE000
001FE000
001FE000
001FE000
001FE000
001FE000
001FE000
001FE000
07FFFF80
FFFFFFFC
FFFFFFFC
FFFFFFFC
FFFFFFFC
FFFFFFFC
ENDCHAR
STARTCHAR 0129
ENCODING 297
SWIDTH 600 0
DWIDTH 48 0
BBX 37 59 6 0
BITMAP
007E000F00
00FFC00F00
01FFE01F00
03FFF83F00
07FFFFFE00
07FFFFFE00
0FC1FFFC00
0F807FF800
0F001FF000
0F0007E000
0000000000
0000000000
0000000000
0000000000
0000000000
0000000000
3FFFFE0000
3FFFFE0000
3FFFFE0000
3FFFFE0000
3FFFFE0000
1FFFFE0000
0000FE0000
0000FE0000
0000FE0000
0000FE0000
0000FE0000
0000FE0000
0000FE0000
0000FE0000
0000FE0000
0000FE0000
0000FE0000
0000FE0000
0000FE0000
0000FE0000
0000FE0000
0000FE0000
0000FE0000
0000FE0000
0000FE0000
0000FE0000
0000FE0000
0000FE0000
0000FE0000
0000FE0000
0000FE0000
0000FE0000
0000FE0000
0000FE0000
0000FE0000
0000FE0000
0000FE0000
003FFFF000
FFFFFFFFF8
FFFFFFFFF8
FFFFFFFFF8
FFFFFFFFF8
FFFFFFFFF8
ENDCHAR
STARTCHAR 012A
ENCODING 298
SWIDTH 600 0
DWIDTH 48 0
BBX 30 70 9 0
BITMAP
1FFFFFE0
1FFFFFE0
1FFFFFE0
1FFFFFE0
1FFFFFE0
1FFFFFE0
00000000
00000000
00000000
00000000
00000000
00000000
FFFFFFFC
FFFFFFFC
FFFFFFFC
FFFFFFFC
FFFFFFFC
FFFFFFFC
001FE000
001FE000
001FE000
001FE000
001FE000
001FE000
001FE000
001FE000
001FE000
001FE000
001FE000
001FE000
001FE000
001FE000
001FE000
001FE000
001FE000
001FE000
001FE000
001FE000
001FE000
001FE000
001FE000
001FE000
001FE000
001FE000
001FE000
001FE000
001FE000
001FE000
001FE000
001FE000
001FE000
001FE000
001FE000
001FE000
001FE000
001FE000
001FE000
001FE000
001FE000
001FE000
001FE000
001FE000
001FE000
001FE000
07FFFF80
FFFFFFFC
FFFFFFFC
FFFFFFFC
FFFFFFFC
FFFFFFFC
ENDCHAR
STARTCHAR 012B
ENCODING 299
SWIDTH 600 0
DWIDTH 48 0
BBX 37 56 6 0
BITMAP
03FFFFFC00
03FFFFFC00
03FFFFFC00
03FFFFFC00
03FFFFFC00
03FFFFFC00
0000000000
0000000000
0000000000
0000000000
0000000000
0000000000
0000000000
3FFFFE0000
3FFFFE0000
3FFFFE0000
3FFFFE0000
3FFFFE0000
1FFFFE0000
0000FE0000
0000FE0000
0000FE0000
0000FE0000
0000FE0000
0000FE0000
0000FE0000
0000FE0000
0000FE0000
0000FE0000
0000FE0000
0000FE0000
0000FE0000
0000FE0000
0000FE0000
0000FE0000
0000FE0000
0000FE0000
0000FE0000
0000FE0000
0000FE0000
0000FE0000
0000FE0000
0000FE0000
0000FE0000
0000FE0000
0000FE0000
0000FE0000
0000FE0000
0000FE0000
0000FE0000
003FFFF000
FFFFFFFFF8
FFFFFFFFF8
FFFFFFFFF8
FFFFFFFFF8
FFFFFFFFF8
ENDCHAR
STARTCHAR 012C
ENCODING 300
SWIDTH 600 0
DWIDTH 48 0
BBX 30 74 9 0
BITMAP
1E0001E0
1F0003E0
1F0003E0
1F8007E0
1FC00FC0
0FF03FC0
07FFFF80
07FFFF00
01FFFE00
00FFFC00
001FE000
00000000
00000000
00000000
00000000
00000000
FFFFFFFC
FFFFFFFC
FFFFFFFC
FFFFFFFC
FFFFFFFC
FFFFFFFC
001FE000
001FE000
001FE000
001FE000
001FE000
001FE000
001FE000
001FE000
001FE000
001FE000
001FE000
001FE000
001FE000
001FE000
001FE000
001FE000
001FE000
001FE000
001FE000
001FE000
001FE000
001FE000
001FE000
001FE000
001FE000
001FE000
001FE000
001FE000
001FE000
001FE000
001FE000
001FE000
001FE000
001FE000
001FE000
001FE000
001FE000
001FE000
001FE000
001FE000
001FE000
001FE000
001FE000
001FE000
001FE000
001FE000
07FFFF80
FFFFFFFC
FFFFFFFC
FFFFFFFC
FFFFFFFC
FFFFFFFC
ENDCHAR
STARTCHAR 012D
ENCODING 301
SWIDTH 600 0
DWIDTH 48 0
BBX 37 60 6 0
BITMAP
03C0003C00
03E0007C00
03E0007C00
03F000FC00
03F801F800
01FE07F800
00FFFFF000
00FFFFE000
003FFFC000
001FFF8000
0003FC0000
0000000000
0000000000
0000000000
0000000000
0000000000
0000000000
3FFFFE0000
3FFFFE0000
3FFFFE0000
3FFFFE0000
3FFFFE0000
1FFFFE0000
0000FE0000
0000FE0000
0000FE0000
0000FE0000
0000FE0000
0000FE0000
0000FE0000
0000FE0000
0000FE0000
0000FE0000
0000FE0000
0000FE0000
0000FE0000
0000FE0000
0000FE0000
0000FE0000
0000FE0000
0000FE0000
0000FE0000
0000FE0000
0000FE0000
0000FE0000
0000FE0000
0000FE0000
0000FE0000
0000FE0000
0000FE0000
0000FE0000
0000FE0000
0000FE0000
0000FE0000
003FFFF000
FFFFFFFFF8
FFFFFFFFF8
FFFFFFFFF8
FFFFFFFFF8
FFFFFFFFF8
ENDCHAR
STARTCHAR 012E
ENCODING 302
SWIDTH 600 0
DWIDTH 48 0
BBX 30 76 9 -18
BITMAP
FFFFFFFC
FFFFFFFC
FFFFFFFC
FFFFFFFC
FFFFFFFC
FFFFFFFC
001FE000
001FE000
001FE000
001FE000
001FE000
001FE000
001FE000
001FE000
001FE000
001FE000
001FE000
001FE000
001FE000
001FE000
001FE000
001FE000
001FE000
001FE000
001FE000
001FE000
001FE000
001FE000
001FE000
001FE000
001FE000
001FE000
001FE000
001FE000
001FE000
001FE000
001FE000
001FE000
001FE000
001FE000
001FE000
001FE000
001FE000
001FE000
001FE000
001FE000
001FE000
001FE000
001FE000
001FE000
001FE000
001FE000
07FFFF80
FFFFFFFC
FFFFFFFC
FFFFFFFC
FFFFFFFC
FFFFFFFC
000007C0
00000F80
00001F00
00003E00
00007E00
00007C00
0000F800
0000F800
0001F800
0001F800
0001F800
0001F800
0001FE00
0000FFF0
0000FFF0
00007FF0
00003FF0
00000FF0
ENDCHAR
STARTCHAR 012F
ENCODING 303
SWIDTH 600 0
DWIDTH 48 0
BBX 37 79 6 -18
BITMAP
0000F80000
0001FC0000
0003FE0000
0003FE0000
0003FF0000
0003FF0000
0003FE0000
0003FE0000
0001FC0000
0000F80000
0000000000
0000000000
0000000000
0000000000
0000000000
0000000000
0000000000
0000000000
3FFFFE0000
3FFFFE0000
3FFFFE0000
3FFFFE0000
3FFFFE0000
1FFFFE0000
0000FE0000
0000FE0000
0000FE0000
0000FE0000
0000FE0000
0000FE0000
0000FE0000
0000FE0000
0000FE0000
0000FE0000
0000FE0000
0000FE0000
0000FE0000
0000FE0000
0000FE0000
0000FE0000
0000FE0000
0000FE0000
0000FE0000
0000FE0000
0000FE0000
0000FE0000
0000FE0000
0000FE0000
0000FE0000
0000FE0000
0000FE0000
0000FE0000
0000FE0000
0000FE0000
0000FE0000
003FFFF000
FFFFFFFFF8
FFFFFFFFF8
FFFFFFFFF8
FFFFFFFFF8
FFFFFFFFF8
0000007C00
000000F800
000001F800
000003F000
000003E000
000007C000
000007C000
00000FC000
00000F8000
00000F8000
00000FC000
00000FC000
00000FE000
00000FFF80
000007FF80
000007FF80
000003FF80
000000FF00
ENDCHAR
STARTCHAR 0130
ENCODING 304
SWIDTH 600 0
DWIDTH 48 0
BBX 30 75 9 0
BITMAP
000F8000
001FE000
003FE000
003FF000
003FF000
003FF000
003FF000
003FE000
001FE000
00078000
00000000
00000000
00000000
00000000
00000000
00000000
00000000
FFFFFFFC
FFFFFFFC
FFFFFFFC
FFFFFFFC
FFFFFFFC
FFFFFFFC
001FE000
001FE000
001FE000
001FE000
001FE000
001FE000
001FE000
001FE000
001FE000
001FE000
001FE000
001FE000
001FE000
001FE000
001FE000
001FE000
001FE000
001FE000
001FE000
001FE000
001FE000
001FE000
001FE000
001FE000
001FE000
001FE000
001FE000
001FE000
001FE000
001FE000
001FE000
001FE000
001FE000
001FE000
001FE000
001FE000
001FE000
001FE000
001FE000
001FE000
001FE000
001FE000
001FE000
001FE000
001FE000
001FE000
07FFFF80
FFFFFFFC
FFFFFFFC
FFFFFFFC
FFFFFFFC
FFFFFFFC
ENDCHAR
STARTCHAR 0131
ENCODING 305
SWIDTH 600 0
DWIDTH 48 0
BBX 37 43 6 0
BITMAP
3FFFFE0000
3FFFFE0000
3FFFFE0000
3FFFFE0000
3FFFFE0000
1FFFFE0000
0000FE0000
0000FE0000
0000FE0000
0000FE0000
0000FE0000
0000FE0000
0000FE0000
0000FE0000
0000FE0000
0000FE0000
0000FE0000
0000FE0000
0000FE0000
0000FE0000
0000FE0000
0000FE0000
0000FE0000
0000FE0000
0000FE0000
0000FE0000
0000FE0000
0000FE0000
0000FE0000
0000FE0000
0000FE0000
0000FE0000
0000FE0000
0000FE0000
0000FE0000
0000FE0000
0000FE0000
003FFFF000
FFFFFFFFF8
FFFFFFFFF8
FFFFFFFFF8
FFFFFFFFF8
FFFFFFFFF8
ENDCHAR
STARTCHAR 0132
ENCODING 306
SWIDTH 600 0
DWIDTH 48 0
BBX 32 59 8 -1
BITMAP
FE00007F
FE00007F
FE00007F
FE00007F
FE00007F
FE00007F
FE00007F
FE00007F
FE00007F
FE00007F
FE00007F
FE00007F
FE00007F
FE00007F
FE00007F
FE00007F
FE00007F
FE00007F
FE00007F
FE00007F
FE00007F
FE00007F
FE00007F
FE00007F
FE00007F
FE00007F
FE00007F
FE00007F
FE00007F
FE00007F
FE00007F
FE00007F
FE00007F
FE00007F
FE00007F
FE00007F
FE00007F
FE00007F
FE00007F
FE00007F
FE00007F
0000007F
0000007F
000000FF
000000FF
000000FF
000001FE
000001FE
000003FE
800007FC
E0000FFC
FF007FF8
FFFFFFF8
FFFFFFF0
FFFFFFE0
FFFFFFC0
FFFFFF00
3FFFFC00
01FFE000
ENDCHAR
STARTCHAR 0133
ENCODING 307
SWIDTH 600 0
DWIDTH 48 0
BBX 32 80 8 -19
BITMAP
1E000078
7F8001FE
FFC003FF
FFC003FF
FFC003FF
FFC003FF
FFC003FF
7FC003FE
7F8001FE
1E000078
00000000
00000000
00000000
00000000
00000000
00000000
00000000
00000000
7F8000FE
7F8000FE
7F8000FE
7F8000FE
7F8000FE
7F8000FE
7F8000FE
7F8000FE
7F8000FE
7F8000FE
7F8000FE
7F8000FE
7F8000FE
7F8000FE
7F8000FE
7F8000FE
7F8000FE
7F8000FE
7F8000FE
7F8000FE
7F8000FE
7F8000FE
7F8000FE
7F8000FE
7F8000FE
7F8000FE
7F8000FE
7F8000FE
7F8000FE
7F8000FE
7F8000FE
7F8000FE
7F8000FE
7F8000FE
7F8000FE
7F8000FE
7F8000FE
7F8000FE
7F8000FE
7F8000FE
7F8000FE
7F8000FE
7F8000FE
000000FE
000000FE
000000FE
000000FE
000000FE
000000FE
000001FE
000001FE
000001FC
000003FC
000007FC
00000FF8
3E003FF8
3FFFFFF0
3FFFFFE0
3FFFFFC0
3FFFFF00
3FFFFE00
01FFE000
ENDCHAR
STARTCHAR 0134
ENCODING 308
SWIDTH 600 0
DWIDTH 48 0
BBX 39 77 8 -1
BITMAP
000003F800
000007FC00
00000FFE00
00000FFE00
00001FFF00
00003FBF80
00007F1FC0
0000FE0FE0
0001FC07F0
0003F803F8
0003F001FC
0007E000FE
000FC0007E
0000000000
0000000000
0000000000
0000000000
0000000000
000003F800
000003F800
000003F800
000003F800
000003F800
000003F800
000003F800
000003F800
000003F800
000003F800
000003F800
000003F800
000003F800
000003F800
000003F800
000003F800
000003F800
000003F800
000003F800
000003F800
000003F800
000003F800
000003F800
000003F800
000003F800
000003F800
000003F800
000003F800
000003F800
000003F800
000003F800
000003F800
000003F800
000003F800
000003F800
000003F800
000003F800
000003F800
000003F800
000003F800
000003F800
000003F800
000003F800
000003F800
000007F800
000007F800
000007F800
00000FF000
00000FF000
00001FF000
E0007FE000
FE01FFE000
FFFFFFC000
FFFFFF8000
FFFFFF8000
FFFFFE0000
FFFFFC0000
3FFFF00000
01FF800000
ENDCHAR
STARTCHAR 0135
ENCODING 309
SWIDTH 600 0
DWIDTH 48 0
BBX 36 81 5 -19
BITMAP
00003FC000
00003FE000
00007FE000
0000FFF000
0001FFF800
0001FFFC00
0003F9FE00
0007F0FE00
000FE07F00
001FC03F80
003F801FC0
007F0007E0
007C0003F0
0000000000
0000000000
0000000000
0000000000
0000000000
0000000000
03FFFFE000
03FFFFE000
03FFFFE000
03FFFFE000
03FFFFE000
001FFFE000
00000FE000
00000FE000
00000FE000
00000FE000
00000FE000
00000FE000
00000FE000
00000FE000
00000FE000
00000FE000
00000FE000
00000FE000
00000FE000
00000FE000
00000FE000
00000FE000
00000FE000
00000FE000
00000FE000
00000FE000
00000FE000
00000FE000
00000FE000
00000FE000
00000FE000
00000FE000
00000FE000
00000FE000
00000FE000
00000FE000
00000FE000
00000FE000
00000FE000
00000FE000
00000FE000
00000FE000
00000FE000
00000FE000
00000FE000
00000FE000
00000FE000
00001FE000
00001FE000
00001FE000
00001FC000
00003FC000
00003FC000
00007FC000
8000FF8000
F003FF8000
FFFFFF0000
FFFFFE0000
FFFFFC0000
FFFFF80000
FFFFE00000
0FFF000000
ENDCHAR
STARTCHAR 0136
ENCODING 310
SWIDTH 600 0
DWIDTH 48 0
BBX 38 76 6 -18
BITMAP
FE000007F8
FE00000FF0
FE00001FE0
FE00003FE0
FE00003FC0
FE00007F80
FE0000FF80
FE0000FF00
FE0001FE00
FE0003FC00
FE0007FC00
FE0007F800
FE000FF000
FE001FF000
FE003FE000
FE003FC000
FE007F8000
FE00FF8000
FE00FF0000
FE01FE0000
FE03FC0000
FE07FC0000
FE07F80000
FE0FF00000
FE1FF00000
FE1FE00000
FE3FC00000
FE7FE00000
FE7FE00000
FEFFF00000
FFFFF80000
FFFFF80000
FFF3FC0000
FFE1FE0000
FFE1FE0000
FFC0FF0000
FF80FF0000
FF007F8000
FE003FC000
FE003FC000
FE001FE000
FE000FF000
FE000FF000
FE0007F800
FE0007FC00
FE0003FC00
FE0001FE00
FE0001FE00
FE0000FF00
FE0000FF80
FE00007F80
FE00003FC0
FE00003FE0
FE00001FE0
FE00000FF0
FE00000FF0
FE000007F8
FE000007FC
0000000000
0000000000
0000000000
0000000000
0000000000
0001FC0000
0001FC0000
0001FC0000
0001F80000
0001F80000
0003F80000
0003F00000
0003F00000
0007E00000
0007C00000
0007C00000
000F800000
000F000000
ENDCHAR
STARTCHAR 0137
ENCODING 311
SWIDTH 600 0
DWIDTH 48 0
BBX 38 79 8 -18
BITMAP
FF00000000
FF00000000
FF00000000
FF00000000
FF00000000
FF00000000
FF00000000
FF00000000
FF00000000
FF00000000
FF00000000
FF00000000
FF00000000
FF00000000
FF00000000
FF00000000
FF00000000
FF00000000
FF00001FF0
FF00003FE0
FF00003FC0
FF00007F80
FF0000FF00
FF0001FF00
FF0003FE00
FF0007FC00
FF000FF800
FF001FF000
FF003FE000
FF003FC000
FF007F8000
FF00FF0000
FF01FE0000
FE03FC0000
FE07FC0000
FE0FF80000
FE1FF00000
FE1FF00000
FE3FF80000
FE7FF80000
FEFFFC0000
FFFDFE0000
FFF8FF0000
FFF0FF0000
FFE07F8000
FFC03FC000
FF801FE000
FF001FE000
FF000FF000
FF0007F800
FF0003FC00
FF0003FC00
FF0001FE00
FF0000FF00
FF00007F80
FF00007F80
FF00003FC0
FF00001FE0
FF00001FF0
FF00000FF0
FF000007FC
0000000000
0000000000
0000000000
0000000000
0000000000
0000FE0000
0000FC0000
0001FC0000
0001FC0000
0001F80000
0001F80000
0003F00000
0003F00000
0003E00000
0007E00000
0007C00000
0007800000
000F800000
ENDCHAR
STARTCHAR 0138
ENCODING 312
SWIDTH 600 0
DWIDTH 48 0
BBX 38 43 8 0
BITMAP
FF00001FF0
FF00003FE0
FF00003FC0
FF00007F80
FF0000FF00
FF0001FF00
FF0003FE00
FF0007FC00
FF000FF800
FF001FF000
FF003FE000
FF003FC000
FF007F8000
FF00FF0000
FF01FE0000
FE03FC0000
FE07FC0000
FE0FF80000
FE1FF00000
FE1FF00000
FE3FF80000
FE7FF80000
FEFFFC0000
FFFDFE0000
FFF8FF0000
FFF0FF0000
FFE07F8000
FFC03FC000
FF801FE000
FF001FE000
FF000FF000
FF0007F800
FF0003FC00
FF0003FC00
FF0001FE00
FF0000FF00
FF00007F80
FF00007F80
FF00003FC0
FF00001FE0
FF00001FF0
FF00000FF0
FF000007FC
ENDCHAR
STARTCHAR 0139
ENCODING 313
SWIDTH 600 0
DWIDTH 48 0
BBX 32 76 9 0
BITMAP
00FF8000
01FF0000
01FF0000
03FE0000
03FC0000
07F80000
0FF00000
0FE00000
1FC00000
3F800000
3F000000
7E000000
7C000000
00000000
00000000
00000000
00000000
00000000
FE000000
FE000000
FE000000
FE000000
FE000000
FE000000
FE000000
FE000000
FE000000
FE000000
FE000000
FE000000
FE000000
FE000000
FE000000
FE000000
FE000000
FE000000
FE000000
FE000000
FE000000
FE000000
FE000000
FE000000
FE000000
FE000000
FE000000
FE000000
FE000000
FE000000
FE000000
FE000000
FE000000
FE000000
FE000000
FE000000
FE000000
FE000000
FE000000
FE000000
FE000000
FE000000
FE000000
FE000000
FE000000
FE000000
FE000000
FE000000
FE000000
FE000000
FE000000
FFFFFFFF
FFFFFFFF
FFFFFFFF
FFFFFFFF
FFFFFFFF
FFFFFFFF
FFFFFFFF
ENDCHAR
STARTCHAR 013A
ENCODING 314
SWIDTH 600 0
DWIDTH 48 0
BBX 37 80 6 0
BITMAP
000003FE00
000003FC00
000007FC00
00000FF800
00000FF000
00001FE000
00001FC000
00003F8000
00007F0000
00007E0000
0000FC0000
0001F80000
0001F00000
0000000000
0000000000
0000000000
0000000000
0000000000
0000000000
7FFFFE0000
7FFFFE0000
7FFFFE0000
7FFFFE0000
7FFFFE0000
7FFFFE0000
0000FE0000
0000FE0000
0000FE0000
0000FE0000
0000FE0000
0000FE0000
0000FE0000
0000FE0000
0000FE0000
0000FE0000
0000FE0000
0000FE0000
0000FE0000
0000FE0000
0000FE0000
0000FE0000
0000FE0000
0000FE0000
0000FE0000
0000FE0000
0000FE0000
0000FE0000
0000FE0000
0000FE0000
0000FE0000
0000FE0000
0000FE0000
0000FE0000
0000FE0000
0000FE0000
0000FE0000
0000FE0000
0000FE0000
0000FE0000
0000FE0000
0000FE0000
0000FE0000
0000FE0000
0000FE0000
0000FE0000
0000FE0000
0000FE0000
0000FE0000
0000FE0000
0000FE0000
0000FE0000
0000FE0000
0000FE0000
0000FE0000
003FFFF800
FFFFFFFFF8
FFFFFFFFF8
FFFFFFFFF8
FFFFFFFFF8
FFFFFFFFF8
ENDCHAR
STARTCHAR 013B
ENCODING 315
SWIDTH 600 0
DWIDTH 48 0
BBX 32 76 9 -18
BITMAP
FE000000
FE000000
FE000000
FE000000
FE000000
FE000000
FE000000
FE000000
FE000000
FE000000
FE000000
FE000000
FE000000
FE000000
FE000000
FE000000
FE000000
FE000000
FE000000
FE000000
FE000000
FE000000
FE000000
FE000000
FE000000
FE000000
FE000000
FE000000
FE000000
FE000000
FE000000
FE000000
FE000000
FE000000
FE000000
FE000000
FE000000
FE000000
FE000000
FE000000
FE000000
FE000000
FE000000
FE000000
FE000000
FE000000
FE000000
FE000000
FE000000
FE000000
FE000000
FFFFFFFF
FFFFFFFF
FFFFFFFF
FFFFFFFF
FFFFFFFF
FFFFFFFF
FFFFFFFF
00000000
00000000
00000000
00000000
00000000
0003F800
0003F800
0003F000
0007F000
0007F000
0007E000
0007E000
000FC000
000FC000
000F8000
001F0000
001F0000
001E0000
ENDCHAR
STARTCHAR 013C
ENCODING 316
SWIDTH 600 0
DWIDTH 48 0
BBX 37 79 6 -18
BITMAP
7FFFFE0000
7FFFFE0000
7FFFFE0000
7FFFFE0000
7FFFFE0000
7FFFFE0000
0000FE0000
0000FE0000
0000FE0000
0000FE0000
0000FE0000
0000FE0000
0000FE0000
0000FE0000
0000FE0000
0000FE0000
0000FE0000
0000FE0000
0000FE0000
0000FE0000
0000FE0000
0000FE0000
0000FE0000
0000FE0000
0000FE0000
0000FE0000
0000FE0000
0000FE0000
0000FE0000
0000FE0000
0000FE0000
0000FE0000
0000FE0000
0000FE0000
0000FE0000
0000FE0000
0000FE0000
0000FE0000
0000FE0000
0000FE0000
0000FE0000
0000FE0000
0000FE0000
0000FE0000
0000FE0000
0000FE0000
0000FE0000
0000FE0000
0000FE0000
0000FE0000
0000FE0000
0000FE0000
0000FE0000
0000FE0000
0000FE0000
003FFFF800
FFFFFFFFF8
FFFFFFFFF8
FFFFFFFFF8
FFFFFFFFF8
FFFFFFFFF8
0000000000
0000000000
0000000000
0000000000
0000000000
0000FE0000
0000FE0000
0000FE0000
0000FC0000
0000FC0000
0001F80000
0001F80000
0001F00000
0003F00000
0003E00000
0003E00000
0007C00000
0007800000
ENDCHAR
STARTCHAR 013D
ENCODING 317
SWIDTH 600 0
DWIDTH 48 0
BBX 32 58 9 0
BITMAP
FE0000FE
FE0000FE
FE0000FE
FE0000FC
FE0000FC
FE0001FC
FE0001F8
FE0001F8
FE0001F0
FE0003F0
FE0003E0
FE0003E0
FE0003C0
FE000000
FE000000
FE000000
FE000000
FE000000
FE000000
FE000000
FE000000
FE000000
FE000000
FE000000
FE000000
FE000000
FE000000
FE000000
FE000000
FE000000
FE000000
FE000000
FE000000
FE000000
FE000000
FE000000
FE000000
FE000000
FE000000
FE000000
FE000000
FE000000
FE000000
FE000000
FE000000
FE000000
FE000000
FE000000
FE000000
FE000000
FE000000
FFFFFFFF
FFFFFFFF
FFFFFFFF
FFFFFFFF
FFFFFFFF
FFFFFFFF
FFFFFFFF
ENDCHAR
STARTCHAR 013E
ENCODING 318
SWIDTH 600 0
DWIDTH 48 0
BBX 39 61 6 0
BITMAP
7FFFFE00FE
7FFFFE00FE
7FFFFE00FE
7FFFFE00FC
7FFFFE01FC
7FFFFE01F8
0000FE01F8
0000FE01F0
0000FE03F0
0000FE03E0
0000FE03E0
0000FE03C0
0000FE07C0
0000FE0000
0000FE0000
0000FE0000
0000FE0000
0000FE0000
0000FE0000
0000FE0000
0000FE0000
0000FE0000
0000FE0000
0000FE0000
0000FE0000
0000FE0000
0000FE0000
0000FE0000
0000FE0000
0000FE0000
0000FE0000
0000FE0000
0000FE0000
0000FE0000
0000FE0000
0000FE0000
0000FE0000
0000FE0000
0000FE0000
0000FE0000
0000FE0000
0000FE0000
0000FE0000
0000FE0000
0000FE0000
0000FE0000
0000FE0000
0000FE0000
0000FE0000
0000FE0000
0000FE0000
0000FE0000
0000FE0000
0000FE0000
0000FE0000
003FFFF800
FFFFFFFFF8
FFFFFFFFF8
FFFFFFFFF8
FFFFFFFFF8
FFFFFFFFF8
ENDCHAR
STARTCHAR 013F
ENCODING 319
SWIDTH 600 0
DWIDTH 48 0
BBX 32 58 9 0
BITMAP
FE000000
FE000000
FE000000
FE000000
FE000000
FE000000
FE000000
FE000000
FE000000
FE000000
FE000000
FE000000
FE000000
FE000000
FE000000
FE000000
FE000000
FE000000
FE000000
FE000000
FE000000
FE000000
FE00007C
FE0001FE
FE0001FF
FE0003FF
FE0003FF
FE0003FF
FE0003FF
FE0003FF
FE0001FF
FE0000FE
FE00007C
FE000000
FE000000
FE000000
FE000000
FE000000
FE000000
FE000000
FE000000
FE000000
FE000000
FE000000
FE000000
FE000000
FE000000
FE000000
FE000000
FE000000
FE000000
FFFFFFFF
FFFFFFFF
FFFFFFFF
FFFFFFFF
FFFFFFFF
FFFFFFFF
FFFFFFFF
ENDCHAR
STARTCHAR 0140
ENCODING 320
SWIDTH 600 0
DWIDTH 48 0
BBX 47 61 6 0
BITMAP
7FFFFE000000
7FFFFE000000
7FFFFE000000
7FFFFE000000
7FFFFE000000
7FFFFE000000
0000FE000000
0000FE000000
0000FE000000
0000FE000000
0000FE000000
0000FE000000
0000FE000000
0000FE000000
0000FE000000
0000FE000000
0000FE000000
0000FE000000
0000FE000000
0000FE000000
0000FE000000
0000FE000000
0000FE0000F0
0000FE0003FC
0000FE0003FC
0000FE0007FE
0000FE0007FE
0000FE0007FE
0000FE0007FE
0000FE0007FE
0000FE0003FC
0000FE0003FC
0000FE0000F0
0000FE000000
0000FE000000
0000FE000000
0000FE000000
0000FE000000
0000FE000000
0000FE000000
0000FE000000
0000FE000000
0000FE000000
0000FE000000
0000FE000000
0000FE000000
0000FE000000
0000FE000000
0000FE000000
0000FE000000
0000FE000000
0000FE000000
0000FE000000
0000FE000000
0000FE000000
003FFFF80000
FFFFFFFFF800
FFFFFFFFF800
FFFFFFFFF800
FFFFFFFFF800
FFFFFFFFF800
ENDCHAR
STARTCHAR 0141
ENCODING 321
SWIDTH 600 0
DWIDTH 48 0
BBX 40 58 4 0
BITMAP
00FF000000
00FF000000
00FF000000
00FF000000
00FF000000
00FF000000
00FF000000
00FF000000
00FF000000
00FF000000
00FF000000
00FF000000
00FF000000
00FF000000
00FF000000
00FF000000
00FF000000
00FF000000
00FF000000
00FF000000
00FF000000
00FF00C000
00FF03C000
00FF07E000
00FF1FE000
00FF7FF000
00FFFFE000
00FFFF8000
00FFFF0000
00FFFC0000
00FFF00000
01FFE00000
03FF800000
0FFF000000
3FFF000000
FFFF000000
7FFF000000
7FFF000000
3EFF000000
18FF000000
10FF000000
00FF000000
00FF000000
00FF000000
00FF000000
00FF000000
00FF000000
00FF000000
00FF000000
00FF000000
00FF000000
00FFFFFFFF
00FFFFFFFF
00FFFFFFFF
00FFFFFFFF
00FFFFFFFF
00FFFFFFFF
00FFFFFFFF
ENDCHAR
STARTCHAR 0142
ENCODING 322
SWIDTH 600 0
DWIDTH 48 0
BBX 37 61 6 0
BITMAP
7FFFFE0000
7FFFFE0000
7FFFFE0000
7FFFFE0000
7FFFFE0000
7FFFFE0000
0000FE0000
0000FE0000
0000FE0000
0000FE0000
0000FE0000
0000FE0000
0000FE0000
0000FE0000
0000FE0000
0000FE0000
0000FE0000
0000FE0000
0000FE0000
0000FE0000
0000FE0000
0000FE0000
0000FE0200
0000FE0E00
0000FE1F00
0000FE7F00
0000FFFF80
0000FFFF00
0000FFFE00
0000FFF800
0000FFF000
0001FFC000
0003FF0000
000FFE0000
003FFE0000
007FFE0000
01FFFE0000
03FFFE0000
03FCFE0000
01F8FE0000
01E0FE0000
00C0FE0000
0000FE0000
0000FE0000
0000FE0000
0000FE0000
0000FE0000
0000FE0000
0000FE0000
0000FE0000
0000FE0000
0000FE0000
0000FE0000
0000FE0000
0000FE0000
003FFFF800
FFFFFFFFF8
FFFFFFFFF8
FFFFFFFFF8
FFFFFFFFF8
FFFFFFFFF8
ENDCHAR
STARTCHAR 0143
ENCODING 323
SWIDTH 600 0
DWIDTH 48 0
BBX 36 76 6 0
BITMAP
000003FE00
000003FE00
000007FC00
000007F800
00000FF000
00000FE000
00001FE000
00003FC000
00003F8000
00007F0000
0000FE0000
0000FC0000
0001F00000
0000000000
0000000000
0000000000
0000000000
0000000000
FF800007F0
FFC00007F0
FFC00007F0
FFE00007F0
FFE00007F0
FFE00007F0
FFF00007F0
FFF00007F0
FFF80007F0
FDF80007F0
FDFC0007F0
FDFC0007F0
FCFC0007F0
FCFE0007F0
FC7E0007F0
FC7F0007F0
FC3F0007F0
FC3F8007F0
FC3F8007F0
FC1FC007F0
FC1FC007F0
FC0FC007F0
FC0FE007F0
FE07E007F0
FE07F007F0
FE03F007F0
FE03F807F0
FE03F807F0
FE01F807F0
FE01FC07F0
FE00FC07F0
FE00FE07F0
FE007E07F0
FE007F07F0
FE007F07F0
FE003F07F0
FE003F87F0
FE001F83F0
FE001FC3F0
FE000FC3F0
FE000FE3F0
FE000FE3F0
FE0007E3F0
FE0007F3F0
FE0003F3F0
FE0003FBF0
FE0001FBF0
FE0001FFF0
FE0000FFF0
FE0000FFF0
FE0000FFF0
FE00007FF0
FE00007FF0
FE00003FF0
FE00003FF0
FE00001FF0
FE00001FF0
FE00001FF0
ENDCHAR
STARTCHAR 0144
ENCODING 324
SWIDTH 600 0
DWIDTH 48 0
BBX 36 62 6 0
BITMAP
000001FF00
000003FE00
000003FE00
000007FC00
000007F800
00000FF000
00001FE000
00001FC000
00003F8000
00003F0000
00007E0000
0000FC0000
0000F80000
0000000000
0000000000
0000000000
0000000000
0000000000
00007FC000
FC03FFF800
FC0FFFFE00
FE3FFFFF00
FE7FFFFF80
FE7FFFFFC0
FEFE00FFC0
FFF8003FE0
FFF0001FE0
FFE0001FE0
FFC0000FF0
FFC0000FF0
FF80000FF0
FF800007F0
FF000007F0
FF000007F0
FF000007F0
FF000007F0
FF000007F0
FF000007F0
FF000007F0
FF000007F0
FF000007F0
FF000007F0
FF000007F0
FF000007F0
FF000007F0
FF000007F0
FF000007F0
FF000007F0
FF000007F0
FF000007F0
FF000007F0
FF000007F0
FF000007F0
FF000007F0
FF000007F0
FF000007F0
FF000007F0
FF000007F0
FF000007F0
FF000007F0
FF000007F0
FF000007F0
ENDCHAR
STARTCHAR 0145
ENCODING 325
SWIDTH 600 0
DWIDTH 48 0
BBX 36 76 6 -18
BITMAP
FF800007F0
FFC00007F0
FFC00007F0
FFE00007F0
FFE00007F0
FFE00007F0
FFF00007F0
FFF00007F0
FFF80007F0
FDF80007F0
FDFC0007F0
FDFC0007F0
FCFC0007F0
FCFE0007F0
FC7E0007F0
FC7F0007F0
FC3F0007F0
FC3F8007F0
FC3F8007F0
FC1FC007F0
FC1FC007F0
FC0FC007F0
FC0FE007F0
FE07E007F0
FE07F007F0
FE03F007F0
FE03F807F0
FE03F807F0
FE01F807F0
FE01FC07F0
FE00FC07F0
FE00FE07F0
FE007E07F0
FE007F07F0
FE007F07F0
FE003F07F0
FE003F87F0
FE001F83F0
FE001FC3F0
FE000FC3F0
FE000FE3F0
FE000FE3F0
FE0007E3F0
FE0007F3F0
FE0003F3F0
FE0003FBF0
FE0001FBF0
FE0001FFF0
FE0000FFF0
FE0000FFF0
FE0000FFF0
FE00007FF0
FE00007FF0
FE00003FF0
FE00003FF0
FE00001FF0
FE00001FF0
FE00001FF0
0000000000
0000000000
0000000000
0000000000
0000000000
0001FC0000
0003F80000
0003F80000
0003F80000
0003F00000
0003F00000
0007E00000
0007E00000
0007C00000
000FC00000
000F800000
000F000000
001F000000
ENDCHAR
STARTCHAR 0146
ENCODING 326
SWIDTH 600 0
DWIDTH 48 0
BBX 36 62 6 -18
BITMAP
00007FC000
FC03FFF800
FC0FFFFE00
FE3FFFFF00
FE7FFFFF80
FE7FFFFFC0
FEFE00FFC0
FFF8003FE0
FFF0001FE0
FFE0001FE0
FFC0000FF0
FFC0000FF0
FF80000FF0
FF800007F0
FF000007F0
FF000007F0
FF000007F0
FF000007F0
FF000007F0
FF000007F0
FF000007F0
FF000007F0
FF000007F0
FF000007F0
FF000007F0
FF000007F0
FF000007F0
FF000007F0
FF000007F0
FF000007F0
FF000007F0
FF000007F0
FF000007F0
FF000007F0
FF000007F0
FF000007F0
FF000007F0
FF000007F0
FF000007F0
FF000007F0
FF000007F0
FF000007F0
FF000007F0
FF000007F0
0000000000
0000000000
0000000000
0000000000
0000000000
0001FC0000
0001FC0000
0001FC0000
0001F80000
0003F80000
0003F00000
0003F00000
0007E00000
0007E00000
0007C00000
000F800000
000F800000
000F000000
ENDCHAR
STARTCHAR 0147
ENCODING 327
SWIDTH 600 0
DWIDTH 48 0
BBX 36 76 6 0
BITMAP
07C0003F00
07F0007F00
03F800FE00
01FC03FC00
00FE07F800
007F0FF000
003F9FE000
001FFFC000
001FFF8000
000FFF0000
0007FE0000
0003FE0000
0003FC0000
0000000000
0000000000
0000000000
0000000000
0000000000
FF800007F0
FFC00007F0
FFC00007F0
FFE00007F0
FFE00007F0
FFE00007F0
FFF00007F0
FFF00007F0
FFF80007F0
FDF80007F0
FDFC0007F0
FDFC0007F0
FCFC0007F0
FCFE0007F0
FC7E0007F0
FC7F0007F0
FC3F0007F0
FC3F8007F0
FC3F8007F0
FC1FC007F0
FC1FC007F0
FC0FC007F0
FC0FE007F0
FE07E007F0
FE07F007F0
FE03F007F0
FE03F807F0
FE03F807F0
FE01F807F0
FE01FC07F0
FE00FC07F0
FE00FE07F0
FE007E07F0
FE007F07F0
FE007F07F0
FE003F07F0
FE003F87F0
FE001F83F0
FE001FC3F0
FE000FC3F0
FE000FE3F0
FE000FE3F0
FE0007E3F0
FE0007F3F0
FE0003F3F0
FE0003FBF0
FE0001FBF0
FE0001FFF0
FE0000FFF0
FE0000FFF0
FE0000FFF0
FE00007FF0
FE00007FF0
FE00003FF0
FE00003FF0
FE00001FF0
FE00001FF0
FE00001FF0
ENDCHAR
STARTCHAR 0148
ENCODING 328
SWIDTH 600 0
DWIDTH 48 0
BBX 36 62 6 0
BITMAP
07E0001F00
03F0007F00
01FC00FE00
00FE01FC00
007F03F800
007F87F000
003FCFE000
001FFFE000
000FFFC000
0007FF8000
0003FF0000
0003FE0000
0001FE0000
0000000000
0000000000
0000000000
0000000000
0000000000
00007FC000
FC03FFF800
FC0FFFFE00
FE3FFFFF00
FE7FFFFF80
FE7FFFFFC0
FEFE00FFC0
FFF8003FE0
FFF0001FE0
FFE0001FE0
FFC0000FF0
FFC0000FF0
FF80000FF0
FF800007F0
FF000007F0
FF000007F0
FF000007F0
FF000007F0
FF000007F0
FF000007F0
FF000007F0
FF000007F0
FF000007F0
FF000007F0
FF000007F0
FF000007F0
FF000007F0
FF000007F0
FF000007F0
FF000007F0
FF000007F0
FF000007F0
FF000007F0
FF000007F0
FF000007F0
FF000007F0
FF000007F0
FF000007F0
FF000007F0
FF000007F0
FF000007F0
FF000007F0
FF000007F0
FF000007F0
ENDCHAR
STARTCHAR 0149
ENCODING 329
SWIDTH 600 0
DWIDTH 48 0
BBX 46 58 -4 0
BITMAP
0FF000000000
0FF800000000
0FF000000000
1FF000000000
1FF000000000
1FE000000000
1FE000000000
1FE000000000
3FC000000000
3FC000000000
3FC000000000
3F8000000000
3F8000000000
7F8000000000
7F00001FF000
7F0F807FFE00
7E0FC1FFFF80
7E0FC7FFFFC0
FC0FC7FFFFE0
FC0FCFFFFFF0
000FDFC07FF0
000FFF001FF8
000FFE000FF8
000FFC0007F8
000FF80003FC
000FF80003FC
000FF00003FC
000FF00001FC
000FF00001FC
000FE00001FC
000FE00001FC
000FE00001FC
000FE00001FC
000FE00001FC
000FE00001FC
000FE00001FC
000FE00001FC
000FE00001FC
000FE00001FC
000FE00001FC
000FE00001FC
000FE00001FC
000FE00001FC
000FE00001FC
000FE00001FC
000FE00001FC
000FE00001FC
000FE00001FC
000FE00001FC
000FE00001FC
000FE00001FC
000FE00001FC
000FE00001FC
000FE00001FC
000FE00001FC
000FE00001FC
000FE00001FC
000FE00001FC
ENDCHAR
STARTCHAR 014A
ENCODING 330
SWIDTH 600 0
DWIDTH 48 0
BBX 36 73 6 -15
BITMAP
FF800007F0
FFC00007F0
FFC00007F0
FFE00007F0
FFE00007F0
FFE00007F0
FFF00007F0
FFF00007F0
FFF80007F0
FDF80007F0
FDFC0007F0
FDFC0007F0
FCFC0007F0
FCFE0007F0
FC7E0007F0
FC7F0007F0
FC3F0007F0
FC3F8007F0
FC3F8007F0
FC1FC007F0
FC1FC007F0
FC0FC007F0
FC0FE007F0
FE07E007F0
FE07F007F0
FE03F007F0
FE03F807F0
FE03F807F0
FE01F807F0
FE01FC07F0
FE00FC07F0
FE00FE07F0
FE007E07F0
FE007F07F0
FE007F07F0
FE003F07F0
FE003F87F0
FE001F83F0
FE001FC3F0
FE000FC3F0
FE000FE3F0
FE000FE3F0
FE0007E3F0
FE0007F3F0
FE0003F3F0
FE0003FBF0
FE0001FBF0
FE0001FFF0
FE0000FFF0
FE0000FFF0
FE0000FFF0
FE00007FF0
FE00007FF0
FE00003FF0
FE00003FF0
FE00001FF0
FE00001FF0
FE00001FF0
00000003F0
00000003F0
00000007F0
00000007F0
00000007F0
0000000FF0
0000000FE0
0000001FE0
0001007FC0
0001FFFFC0
0001FFFF80
0001FFFF00
0001FFFE00
0001FFF800
00007FC000
ENDCHAR
STARTCHAR 014B
ENCODING 331
SWIDTH 600 0
DWIDTH 48 0
BBX 36 63 6 -19
BITMAP
00007FC000
FC03FFF800
FC0FFFFE00
FE3FFFFF00
FE7FFFFF80
FE7FFFFFC0
FEFE00FFC0
FFF8003FE0
FFF0001FE0
FFE0001FE0
FFC0000FF0
FFC0000FF0
FF80000FF0
FF800007F0
FF000007F0
FF000007F0
FF000007F0
FF000007F0
FF000007F0
FF000007F0
FF000007F0
FF000007F0
FF000007F0
FF000007F0
FF000007F0
FF000007F0
FF000007F0
FF000007F0
FF000007F0
FF000007F0
FF000007F0
FF000007F0
FF000007F0
FF000007F0
FF000007F0
FF000007F0
FF000007F0
FF000007F0
FF000007F0
FF000007F0
FF000007F0
FF000007F0
FF000007F0
FF000007F0
00000007F0
00000007F0
00000007F0
00000007F0
00000007F0
00000007F0
00000007F0
00000007F0
00000007F0
0000000FF0
0000000FF0
0000000FE0
0000203FE0
00001FFFE0
00001FFFC0
00001FFF80
00001FFF00
00001FFE00
00000FF800
ENDCHAR
STARTCHAR 014C
ENCODING 332
SWIDTH 600 0
DWIDTH 48 0
BBX 40 71 4 -1
BITMAP
00FFFFFF00
00FFFFFF00
00FFFFFF00
00FFFFFF00
00FFFFFF00
00FFFFFF00
0000000000
0000000000
0000000000
0000000000
0000000000
0001FF8000
000FFFF000
003FFFFC00
007FFFFE00
00FFFFFF00
01FFFFFF80
03FF00FFC0
07FC003FE0
0FF8000FF0
0FF0000FF0
1FE00007F8
1FC00003F8
3FC00003FC
3F800001FC
3F800001FC
7F800001FE
7F000000FE
7F000000FE
7F000000FE
FF000000FF
FF000000FF
FE0000007F
FE0000007F
FE0000007F
FE0000007F
FE0000007F
FE0000007F
FE0000007F
FE0000007F
FE0000007F
FE0000007F
FE0000007F
FE0000007F
FE0000007F
FE0000007F
FE0000007F
FE0000007F
FE0000007F
FE0000007F
FF000000FF
FF000000FF
7F000000FE
7F000000FE
7F000000FE
7F800001FE
3F800001FC
3F800001FC
3FC00003FC
1FC00003F8
1FE00007F8
0FF0000FF0
0FF8000FF0
07FC003FE0
03FF00FFC0
03FFFFFF80
01FFFFFF00
007FFFFE00
003FFFFC00
000FFFF000
0001FF8000
ENDCHAR
STARTCHAR 014D
ENCODING 333
SWIDTH 600 0
DWIDTH 48 0
BBX 40 57 4 -1
BITMAP
00FFFFFF00
00FFFFFF00
00FFFFFF00
00FFFFFF00
00FFFFFF00
00FFFFFF00
0000000000
0000000000
0000000000
0000000000
0000000000
0000000000
0001FF8000
000FFFF000
003FFFFC00
00FFFFFF00
01FFFFFF80
03FFFFFFC0
07FF00FFE0
0FF8003FF0
0FF0000FF0
1FE00007F8
1FC00007F8
3FC00003FC
3F800003FC
7F800001FC
7F800001FE
7F000000FE
7F000000FE
7F000000FE
7F000000FE
FF000000FE
FF000000FF
FF000000FF
FF000000FF
FF000000FF
FF000000FF
7F000000FE
7F000000FE
7F000000FE
7F000000FE
7F000001FE
7F800001FE
3F800001FC
3F800003FC
3FC00003FC
1FE00007F8
1FE00007F8
0FF0000FF0
0FFC003FF0
07FF00FFE0
03FFFFFFC0
01FFFFFF80
00FFFFFF00
003FFFFC00
000FFFF000
0001FF8000
ENDCHAR
STARTCHAR 014E
ENCODING 334
SWIDTH 600 0
DWIDTH 48 0
BBX 40 75 4 -1
BITMAP
00F0000F00
00F8001F00
00F8001F00
00FC003F00
00FE007E00
007F81FE00
003FFFFC00
003FFFF800
000FFFF000
0007FFE000
0000FF0000
0000000000
0000000000
0000000000
0000000000
0001FF8000
000FFFF000
003FFFFC00
007FFFFE00
00FFFFFF00
01FFFFFF80
03FF00FFC0
07FC003FE0
0FF8000FF0
0FF0000FF0
1FE00007F8
1FC00003F8
3FC00003FC
3F800001FC
3F800001FC
7F800001FE
7F000000FE
7F000000FE
7F000000FE
FF000000FF
FF000000FF
FE0000007F
FE0000007F
FE0000007F
FE0000007F
FE0000007F
FE0000007F
FE0000007F
FE0000007F
FE0000007F
FE0000007F
FE0000007F
FE0000007F
FE0000007F
FE0000007F
FE0000007F
FE0000007F
FE0000007F
FE0000007F
FF000000FF
FF000000FF
7F000000FE
7F000000FE
7F000000FE
7F800001FE
3F800001FC
3F800001FC
3FC00003FC
1FC00003F8
1FE00007F8
0FF0000FF0
0FF8000FF0
07FC003FE0
03FF00FFC0
03FFFFFF80
01FFFFFF00
007FFFFE00
003FFFFC00
000FFFF000
0001FF8000
ENDCHAR
STARTCHAR 014F
ENCODING 335
SWIDTH 600 0
DWIDTH 48 0
BBX 40 61 4 -1
BITMAP
00F0000F00
00F8001F00
00F8001F00
00FC003F00
00FE007E00
007F81FE00
003FFFFC00
003FFFF800
000FFFF000
0007FFE000
0000FF0000
0000000000
0000000000
0000000000
0000000000
0000000000
0001FF8000
000FFFF000
003FFFFC00
00FFFFFF00
01FFFFFF80
03FFFFFFC0
07FF00FFE0
0FF8003FF0
0FF0000FF0
1FE00007F8
1FC00007F8
3FC00003FC
3F800003FC
7F800001FC
7F800001FE
7F000000FE
7F000000FE
7F000000FE
7F000000FE
FF000000FE
FF000000FF
FF000000FF
FF000000FF
FF000000FF
FF000000FF
7F000000FE
7F000000FE
7F000000FE
7F000000FE
7F000001FE
7F800001FE
3F800001FC
3F800003FC
3FC00003FC
1FE00007F8
1FE00007F8
0FF0000FF0
0FFC003FF0
07FF00FFE0
03FFFFFFC0
01FFFFFF80
00FFFFFF00
003FFFFC00
000FFFF000
0001FF8000
ENDCHAR
STARTCHAR 0150
ENCODING 336
SWIDTH 600 0
DWIDTH 48 0
BBX 40 77 4 -1
BITMAP
0003FC0FF0
0007F81FF0
0007F81FE0
000FF03FC0
000FE03F80
001FE07F80
001FC07F00
003F80FE00
003F00FC00
007E01F800
00FC03F000
00F803E000
01F007C000
0000000000
0000000000
0000000000
0000000000
0001FF8000
000FFFF000
003FFFFC00
007FFFFE00
00FFFFFF00
01FFFFFF80
03FF00FFC0
07FC003FE0
0FF8000FF0
0FF0000FF0
1FE00007F8
1FC00003F8
3FC00003FC
3F800001FC
3F800001FC
7F800001FE
7F000000FE
7F000000FE
7F000000FE
FF000000FF
FF000000FF
FE0000007F
FE0000007F
FE0000007F
FE0000007F
FE0000007F
FE0000007F
FE0000007F
FE0000007F
FE0000007F
FE0000007F
FE0000007F
FE0000007F
FE0000007F
FE0000007F
FE0000007F
FE0000007F
FE0000007F
FE0000007F
FF000000FF
FF000000FF
7F000000FE
7F000000FE
7F000000FE
7F800001FE
3F800001FC
3F800001FC
3FC00003FC
1FC00003F8
1FE00007F8
0FF0000FF0
0FF8000FF0
07FC003FE0
03FF00FFC0
03FFFFFF80
01FFFFFF00
007FFFFE00
003FFFFC00
000FFFF000
0001FF8000
ENDCHAR
STARTCHAR 0151
ENCODING 337
SWIDTH 600 0
DWIDTH 48 0
BBX 40 63 4 -1
BITMAP
0003FC0FF0
0007F81FF0
0007F81FE0
000FF03FC0
000FE03F80
001FE07F80
001FC07F00
003F80FE00
003F00FC00
007E01F800
00FC03F000
00F803E000
01F007C000
0000000000
0000000000
0000000000
0000000000
0000000000
0001FF8000
000FFFF000
003FFFFC00
00FFFFFF00
01FFFFFF80
03FFFFFFC0
07FF00FFE0
0FF8003FF0
0FF0000FF0
1FE00007F8
1FC00007F8
3FC00003FC
3F800003FC
7F800001FC
7F800001FE
7F000000FE
7F000000FE
7F000000FE
7F000000FE
FF000000FE
FF000000FF
FF000000FF
FF000000FF
FF000000FF
FF000000FF
7F000000FE
7F000000FE
7F000000FE
7F000000FE
7F000001FE
7F800001FE
3F800001FC
3F800003FC
3FC00003FC
1FE00007F8
1FE00007F8
0FF0000FF0
0FFC003FF0
07FF00FFE0
03FFFFFFC0
01FFFFFF80
00FFFFFF00
003FFFFC00
000FFFF000
0001FF8000
ENDCHAR
STARTCHAR 0152
ENCODING 338
SWIDTH 600 0
DWIDTH 48 0
BBX 43 60 3 -1
BITMAP
0007FC000000
003FFFFFFFE0
007FFFFFFFE0
00FFFFFFFFE0
01FFFFFFFFE0
03FFFFFFFFE0
07FC0FFFFFE0
0FF003F80000
0FF003F80000
1FE003F80000
1FC003F80000
1FC003F80000
3FC003F80000
3F8003F80000
3F8003F80000
3F8003F80000
7F8003F80000
7F0003F80000
7F0003F80000
7F0003F80000
7F0003F80000
7F0003F80000
FF0003F80000
FF0003F80000
FF0003F80000
FF0003F80000
FF0003FFFF80
FF0003FFFF80
FF0003FFFF80
FF0003FFFF80
FF0003FFFF80
FF0003FFFF80
FF0003F80000
FF0003F80000
FF0003F80000
FF0003F80000
FF0003F80000
7F0003F80000
7F0003F80000
7F0003F80000
7F0003F80000
7F0003F80000
7F0003F80000
7F8003F80000
3F8003F80000
3F8003F80000
3F8003F80000
3FC003F80000
1FC003F80000
1FC003F80000
1FE003F80000
0FF003F80000
0FF003F80000
07FC0FFFFFE0
03FFFFFFFFE0
03FFFFFFFFE0
01FFFFFFFFE0
00FFFFFFFFE0
003FFFFFFFE0
000FF0000000
ENDCHAR
STARTCHAR 0153
ENCODING 339
SWIDTH 600 0
DWIDTH 48 0
BBX 44 45 2 -1
BITMAP
003F8003F000
01FFE00FFC00
03FFF01FFE00
07FFF83FFF00
0FFFF87FFF80
1FFFFC7FFFC0
1FE0FEFE1FC0
3FC07EF80FE0
3F803FF807E0
7F003FF007E0
7F001FF007E0
7E001FF003F0
7E001FE003F0
FE001FE003F0
FE000FE003F0
FE000FE003F0
FC000FE003F0
FC000FE003F0
FC000FE003F0
FC000FFFFFF0
FC000FFFFFF0
FC000FFFFFF0
FC000FFFFFF0
FC000FFFFFF0
FC000FC00000
FC000FE00000
FC000FE00000
FC000FE00000
FC000FE00000
FE000FE00000
FE000FE00000
7E000FE00000
7E001FE00000
7E001FF00000
7F001FF00000
3F003FF80000
3F803FF80020
3FC07EFC0060
1FE0FEFF03E0
0FFFFC7FFFE0
0FFFFC7FFFE0
07FFF83FFFE0
03FFF01FFFC0
01FFE00FFF00
003F8003FC00
ENDCHAR
STARTCHAR 0154
ENCODING 340
SWIDTH 600 0
DWIDTH 48 0
BBX 38 76 8 0
BITMAP
00000FF800
00000FF000
00001FF000
00003FE000
00003FC000
00007F8000
00007F0000
0000FE0000
0001FC0000
0001F80000
0003F00000
0007E00000
0007C00000
0000000000
0000000000
0000000000
0000000000
0000000000
FFFFE00000
FFFFFE0000
FFFFFFC000
FFFFFFE000
FFFFFFF800
FFFFFFFC00
FE003FFC00
FE0007FE00
FE0001FF00
FE0000FF00
FE0000FF00
FE00007F80
FE00007F80
FE00007F80
FE00007F80
FE00003F80
FE00003F80
FE00003F80
FE00007F80
FE00007F80
FE00007F80
FE00007F00
FE00007F00
FE0000FF00
FE0001FE00
FE0003FE00
FE0007FC00
FE003FF800
FFFFFFF000
FFFFFFE000
FFFFFF8000
FFFFFF0000
FFFFFC0000
FFFFFE0000
FE00FF0000
FE007F0000
FE007F8000
FE003F8000
FE003FC000
FE001FE000
FE001FE000
FE000FF000
FE0007F000
FE0007F800
FE0003FC00
FE0003FC00
FE0001FE00
FE0001FE00
FE0000FF00
FE00007F80
FE00007F80
FE00003FC0
FE00003FC0
FE00001FE0
FE00000FE0
FE00000FF0
FE000007F8
FE000007FC
ENDCHAR
ENDFONT
